<svg width="428" height="285" viewBox="0 0 428 285" fill="none" xmlns="http://www.w3.org/2000/svg">
<path d="M61.9459 143.851C61.9459 143.851 57.4262 143.526 57.8428 153.655C58.2594 163.784 59.2923 169.17 59.2923 169.17C59.2923 169.17 59.161 171.416 57.4205 170.977C55.6799 170.538 52.4043 168.35 50.7893 169.985C49.1743 171.621 49.7051 174.277 51.9307 177.338C54.1563 180.399 58.7787 187.279 59.201 187.906C59.6233 188.533 59.7716 189.667 58.539 189.553C57.3063 189.439 48.9746 186.624 47.8732 190.654C46.7718 194.684 54.3731 202.19 55.1892 203.023C56.0052 203.855 56.0452 204.391 55.7142 204.898C55.3832 205.405 52.6725 204.191 50.27 203.484C47.8675 202.777 44.9628 202.384 44.5177 204.761C44.0726 207.138 47.4281 214.098 59.9657 221.405L65.9976 224.415L71.7043 220.778C83.4486 212.228 86.0794 204.995 85.4003 202.675C84.7212 200.355 81.8678 201.039 79.5452 201.98C77.2226 202.92 74.6546 204.396 74.2723 203.923C73.8899 203.45 73.8842 202.926 74.609 202.014C75.3337 201.102 82.1475 192.865 80.6466 188.972C79.1458 185.079 71.1393 188.71 69.9238 188.972C68.7083 189.234 68.7539 188.049 69.102 187.393C69.4501 186.738 73.3706 179.413 75.2766 176.153C77.1827 172.892 77.5194 170.242 75.6761 168.743C73.8329 167.244 70.8654 169.78 69.1762 170.39C67.487 171 67.1332 168.783 67.1332 168.783C67.1332 168.783 67.624 163.316 67.0191 153.199C66.4142 143.081 61.8489 143.896 61.8489 143.896" fill="#EBEBEB"/>
<path d="M62.3054 152.92C62.3054 152.92 62.3054 152.994 62.3054 153.13C62.3054 153.267 62.3054 153.49 62.351 153.752C62.391 154.322 62.4481 155.114 62.5165 156.146C62.6535 158.221 62.8304 161.23 63.0358 164.947C63.4524 172.357 63.9318 182.645 64.4283 193.988C64.9247 205.331 65.387 215.608 65.7579 223.058C65.9462 226.769 66.1003 229.773 66.203 231.859C66.2544 232.891 66.2943 233.694 66.3229 234.253C66.3229 234.521 66.3229 234.726 66.3229 234.874C66.3229 235.022 66.3229 235.091 66.3229 235.091C66.3184 235.021 66.3184 234.95 66.3229 234.88C66.3229 234.726 66.3229 234.521 66.2772 234.259C66.2373 233.689 66.1859 232.896 66.1117 231.865C65.9748 229.79 65.7979 226.78 65.5924 223.07C65.1815 215.66 64.6965 205.365 64.2 194C63.7035 182.634 63.247 172.385 62.876 164.93C62.6877 161.225 62.5336 158.215 62.4252 156.129C62.3739 155.097 62.3339 154.293 62.3054 153.735C62.3054 153.467 62.3054 153.262 62.3054 153.113C62.3024 153.049 62.3024 152.984 62.3054 152.92Z" fill="#E0E0E0"/>
<path d="M55.2462 173.223C55.3832 173.313 55.5096 173.418 55.6229 173.537C55.8511 173.747 56.1935 174.061 56.5759 174.454C57.3748 175.241 58.442 176.358 59.6004 177.612L62.5508 180.838L63.4524 181.813C63.5714 181.924 63.6767 182.048 63.7663 182.183C63.6257 182.098 63.4972 181.995 63.3839 181.876C63.1557 181.665 62.8133 181.345 62.4366 180.952C61.6434 180.154 60.5877 179.026 59.4349 177.772L56.4618 174.568L55.5601 173.599C55.44 173.488 55.3346 173.361 55.2462 173.223Z" fill="#E0E0E0"/>
<path d="M64.3655 181.984C64.3198 181.938 66.5226 179.63 69.2903 176.854C72.0581 174.078 74.335 171.821 74.3807 171.861C74.4263 171.901 72.2179 174.215 69.4558 176.991C66.6938 179.767 64.4054 182.029 64.3655 181.984Z" fill="#E0E0E0"/>
<path d="M64.337 199.443C64.4659 199.336 64.6078 199.246 64.7592 199.175L65.9405 198.514C66.9335 197.944 68.3031 197.18 69.7868 196.268C71.2706 195.356 72.5888 194.495 73.5418 193.857L74.6831 193.11C74.8156 193.009 74.9592 192.923 75.1111 192.854C75.1111 192.854 74.9856 192.985 74.7345 193.184C74.4834 193.384 74.1125 193.658 73.6502 193.994C72.7258 194.661 71.4189 195.556 69.9295 196.462C68.44 197.368 67.0476 198.132 66.0318 198.656C65.5239 198.919 65.1074 199.124 64.8163 199.255C64.6631 199.333 64.5025 199.396 64.337 199.443Z" fill="#E0E0E0"/>
<path d="M54.3446 193.333C54.4912 193.379 54.6312 193.444 54.7612 193.526L55.8569 194.136C56.7756 194.655 58.0368 195.39 59.4178 196.211C60.7988 197.032 62.0543 197.79 62.9502 198.349L64.006 199.016C64.139 199.093 64.2633 199.185 64.3769 199.289C64.2291 199.246 64.0887 199.18 63.9603 199.095C63.6978 198.959 63.3269 198.748 62.8646 198.485C61.9459 197.967 60.6847 197.231 59.3037 196.411C57.9227 195.59 56.6672 194.832 55.7713 194.273C55.3261 194 54.9666 193.766 54.7155 193.606C54.5825 193.528 54.4582 193.437 54.3446 193.333Z" fill="#E0E0E0"/>
<path d="M52.3644 208.74C52.5482 208.81 52.7257 208.896 52.8951 208.996L54.2989 209.76C55.4802 210.421 57.1009 211.35 58.8643 212.388C60.6276 213.425 62.2883 214.377 63.4296 215.072L64.7935 215.91C64.9661 216.004 65.1287 216.114 65.2786 216.241C65.0927 216.178 64.9147 216.093 64.7478 215.99L63.344 215.226C62.1684 214.565 60.542 213.636 58.7787 212.599C57.0153 211.561 55.3889 210.609 54.2133 209.914L52.8494 209.076C52.6741 208.985 52.5111 208.872 52.3644 208.74Z" fill="#E0E0E0"/>
<path d="M65.056 215.99C65.2172 215.853 65.3933 215.734 65.581 215.637L67.0476 214.747C68.286 213.995 69.9866 212.946 71.8412 211.744C73.6959 210.541 75.3451 209.407 76.5321 208.58C77.1028 208.181 77.5707 207.856 77.9417 207.6C78.1066 207.47 78.2844 207.357 78.4724 207.263C78.3253 207.414 78.1649 207.552 77.993 207.674C77.6791 207.925 77.2112 208.278 76.6291 208.711C75.4593 209.572 73.8214 210.729 71.9668 211.932C70.1121 213.134 68.3887 214.166 67.1275 214.884C66.4998 215.243 65.9862 215.528 65.6267 215.717C65.4444 215.823 65.2535 215.915 65.056 215.99Z" fill="#E0E0E0"/>
<path d="M74.0954 226.387H57.4148L62.8589 267.564H68.6512L74.0954 226.387Z" fill="#E0E0E0"/>
<path d="M58.2765 231.448C58.2765 231.448 58.2765 231.505 58.3678 231.591C58.4741 231.72 58.6116 231.82 58.7672 231.882C59.0583 231.982 59.3684 232.015 59.674 231.977C59.9797 231.94 60.2726 231.833 60.5306 231.665C61.204 231.295 61.7918 230.565 62.6934 230.24C63.6958 229.922 64.7751 229.945 65.7636 230.303C66.7676 230.647 67.7258 231.112 68.617 231.688C69.3628 232.153 70.1387 232.568 70.9396 232.93C71.4839 233.176 72.0603 233.343 72.6516 233.426C72.8123 233.449 72.9744 233.46 73.1366 233.461C73.2451 233.461 73.3078 233.461 73.3078 233.461C72.5181 233.34 71.7496 233.107 71.0252 232.771C70.2402 232.388 69.4781 231.959 68.7425 231.488C67.8407 230.889 66.8642 230.41 65.8378 230.063C64.7951 229.683 63.6539 229.669 62.6021 230.023C62.1564 230.206 61.7438 230.46 61.3809 230.776C61.0793 231.043 60.7609 231.29 60.4279 231.517C60.1933 231.679 59.9265 231.788 59.6458 231.837C59.3652 231.886 59.0771 231.874 58.8015 231.802C58.607 231.716 58.4293 231.596 58.2765 231.448Z" fill="#F5F5F5"/>
<path d="M58.8871 239.029C58.8871 239.029 59.0183 238.864 59.2808 238.591C59.6574 238.216 60.1111 237.928 60.6105 237.747C61.3543 237.479 62.1433 237.359 62.9331 237.394C63.9084 237.469 64.8784 237.602 65.8378 237.793C66.8173 237.981 67.8195 238.021 68.811 237.912C69.6204 237.811 70.4095 237.586 71.1507 237.245C71.6481 237.021 72.119 236.742 72.5546 236.413C72.7213 236.302 72.8712 236.168 72.9997 236.014C72.3846 236.414 71.7398 236.767 71.0708 237.069C70.3404 237.364 69.572 237.556 68.7882 237.639C67.8199 237.727 66.844 237.68 65.8892 237.496C64.9193 237.303 63.9374 237.175 62.9502 237.114C62.1307 237.088 61.3145 237.231 60.5534 237.536C60.0374 237.743 59.5779 238.069 59.2124 238.488C59.1177 238.604 59.0337 238.728 58.9613 238.858C58.8985 238.978 58.8814 239.024 58.8871 239.029Z" fill="#F5F5F5"/>
<path d="M72.2064 243.094C72.0723 242.983 71.9169 242.902 71.7499 242.854C71.3049 242.687 70.8376 242.587 70.3632 242.558C69.6647 242.511 68.9632 242.552 68.2746 242.678C67.4985 242.803 66.6596 243.014 65.7864 243.202C64.9711 243.393 64.1359 243.487 63.2983 243.481C62.6207 243.466 61.9523 243.321 61.3295 243.054C60.7555 242.785 60.2457 242.396 59.8344 241.914C59.8949 242.078 59.9903 242.228 60.114 242.353C60.4336 242.709 60.8217 242.998 61.2554 243.202C61.8952 243.506 62.5903 243.677 63.2983 243.704C64.1563 243.725 65.0135 243.637 65.8492 243.441C66.7338 243.253 67.5612 243.031 68.3202 242.871C68.9916 242.744 69.6742 242.685 70.3575 242.695C70.9886 242.747 71.6102 242.881 72.2064 243.094Z" fill="#F5F5F5"/>
<path d="M60.3594 248.805C60.8688 248.581 61.4359 248.523 61.9801 248.64C62.5741 248.781 63.1489 248.994 63.6921 249.272C64.3848 249.602 65.1306 249.807 65.8949 249.877C67.2907 249.999 68.6894 249.676 69.8895 248.953C70.2468 248.735 70.5797 248.479 70.8825 248.189C70.9979 248.086 71.0979 247.967 71.1792 247.836C70.7344 248.178 70.2715 248.496 69.7925 248.788C68.6111 249.434 67.2653 249.717 65.9234 249.603C64.3427 249.517 63.1328 248.571 62.0372 248.463C61.6145 248.389 61.1798 248.426 60.776 248.571C60.6173 248.607 60.4724 248.688 60.3594 248.805Z" fill="#F5F5F5"/>
<path d="M61.2896 256.705C61.7685 256.721 62.2448 256.627 62.682 256.432C63.5209 256.152 64.5595 255.508 65.7693 255.024C66.3347 254.797 66.9354 254.672 67.5441 254.653C68.0375 254.658 68.5242 254.768 68.9708 254.978C69.3746 255.195 69.7254 255.499 69.998 255.867C69.998 255.867 69.998 255.725 69.8439 255.52C69.6416 255.217 69.3696 254.966 69.0507 254.79C68.5869 254.534 68.0682 254.393 67.5384 254.38C66.8946 254.382 66.2571 254.507 65.6609 254.75C64.4054 255.252 63.3782 255.89 62.6021 256.226C61.826 256.563 61.2839 256.66 61.2896 256.705Z" fill="#F5F5F5"/>
<path d="M62.1114 260.382C62.4448 260.546 62.8004 260.662 63.1671 260.724C64.9075 261.141 66.6971 261.318 68.4857 261.248C68.8571 261.256 69.2278 261.212 69.5871 261.117C69.5871 261.037 67.8751 261.117 65.8321 260.9C63.7891 260.684 62.1285 260.302 62.1114 260.382Z" fill="#F5F5F5"/>
<path d="M371.066 31.7606L365.382 31.7914L365.535 60.0287L371.219 59.998L371.066 31.7606Z" fill="#E0E0E0"/>
<path d="M330.881 31.8355L316.169 31.915L316.254 47.5043L330.965 47.4248L330.881 31.8355Z" fill="#EBEBEB"/>
<path d="M345.523 31.7564L330.812 31.8359L330.896 47.4251L345.608 47.3456L345.523 31.7564Z" fill="#F5F5F5"/>
<path d="M316.189 36.2406C325.965 36.3204 335.769 36.2406 345.544 36.1038C345.581 36.0968 345.614 36.0773 345.637 36.0487C345.661 36.0201 345.674 35.9842 345.674 35.947C345.674 35.9099 345.661 35.874 345.637 35.8454C345.614 35.8168 345.581 35.7973 345.544 35.7903C335.769 35.739 325.965 35.7903 316.195 35.9727C316.164 35.9791 316.136 35.9959 316.117 36.0203C316.097 36.0447 316.086 36.0752 316.086 36.1066C316.086 36.1381 316.097 36.1686 316.117 36.193C316.136 36.2174 316.164 36.2342 316.195 36.2406H316.189Z" fill="#E0E0E0"/>
<path d="M333.72 47.1643L306.991 47.3088L307.059 60.0139L333.789 59.8695L333.72 47.1643Z" fill="#EBEBEB"/>
<path d="M360.329 47.0206L333.6 47.165L333.668 59.8701L360.398 59.7257L360.329 47.0206Z" fill="#F5F5F5"/>
<path d="M307.019 50.8611C324.772 51.0606 342.594 50.8611 360.347 50.5989C360.384 50.5919 360.417 50.5725 360.441 50.5438C360.464 50.5152 360.477 50.4793 360.477 50.4422C360.477 50.405 360.464 50.3691 360.441 50.3405C360.417 50.3119 360.384 50.2924 360.347 50.2854C342.588 50.1885 324.766 50.1999 307.013 50.5932C306.982 50.5996 306.954 50.6164 306.935 50.6408C306.915 50.6652 306.904 50.6957 306.904 50.7272C306.904 50.7586 306.915 50.7891 306.935 50.8135C306.954 50.8379 306.982 50.8547 307.013 50.8611H307.019Z" fill="#E0E0E0"/>
<path d="M400.574 60.0324H297.015V64.581H400.574V60.0324Z" fill="#E0E0E0"/>
<path d="M318.175 62.2155H313.969V77.7423H318.175V62.2155Z" fill="#E0E0E0"/>
<path d="M380.931 62.2155H376.726V77.7423H380.931V62.2155Z" fill="#E0E0E0"/>
<path d="M376.613 21.2313L370.929 21.262L371.139 60.0955L376.823 60.0648L376.613 21.2313Z" fill="#EBEBEB"/>
<path d="M385.486 28.4679L376.658 28.5156L376.828 59.9848L385.656 59.9371L385.486 28.4679Z" fill="#F5F5F5"/>
<path d="M385.423 34.5477C383.957 34.6944 382.483 34.7439 381.011 34.6959C379.537 34.7438 378.062 34.6943 376.594 34.5477C379.534 34.3425 382.483 34.3425 385.423 34.5477Z" fill="#E0E0E0"/>
<path d="M385.423 33.2253C383.957 33.372 382.483 33.4215 381.011 33.3735C379.537 33.4214 378.062 33.3719 376.594 33.2253C379.534 33.0201 382.483 33.0201 385.423 33.2253Z" fill="#E0E0E0"/>
<path d="M385.423 55.2159C382.483 55.4211 379.534 55.4211 376.594 55.2159C379.534 55.0107 382.483 55.0107 385.423 55.2159Z" fill="#E0E0E0"/>
<path d="M385.423 53.8935C382.483 54.0987 379.534 54.0987 376.594 53.8935C379.534 53.6959 382.483 53.6959 385.423 53.8935Z" fill="#E0E0E0"/>
<path d="M381.154 51.0093C381.068 51.0093 381 47.8344 381 43.9185C381 40.0026 381.068 36.8277 381.154 36.8277C381.24 36.8277 381.308 40.0026 381.308 43.9185C381.308 47.8344 381.24 51.0093 381.154 51.0093Z" fill="#E0E0E0"/>
<path d="M395.13 36.2121H385.52V59.964H395.13V36.2121Z" fill="#EBEBEB"/>
<path d="M375.316 27.8844C375.316 28.2068 375.22 28.522 375.041 28.7901C374.862 29.0582 374.607 29.2671 374.309 29.3905C374.01 29.5139 373.682 29.5462 373.366 29.4833C373.049 29.4204 372.758 29.2651 372.53 29.0371C372.302 28.8091 372.146 28.5187 372.083 28.2024C372.02 27.8862 372.053 27.5584 372.176 27.2605C372.3 26.9627 372.509 26.7081 372.777 26.5289C373.046 26.3498 373.361 26.2542 373.684 26.2542C374.117 26.2542 374.532 26.4259 374.838 26.7317C375.144 27.0374 375.316 27.452 375.316 27.8844Z" fill="#E0E0E0"/>
<path d="M374.186 32.3703H373.176V55.4724H374.186V32.3703Z" fill="#E0E0E0"/>
<path d="M106.018 22.1103H45.7789V109.32H106.018V22.1103Z" fill="#E0E0E0"/>
<path d="M103 22.1103H42.76V109.32H103V22.1103Z" fill="#F5F5F5"/>
<path d="M95.5125 31.5552H50.2415V99.8754H95.5125V31.5552Z" fill="white"/>
<path d="M95.5125 99.8754C95.5125 99.8754 95.5125 99.7614 95.5125 99.5391C95.5125 99.3168 95.5125 98.9691 95.5125 98.5701C95.5125 97.7151 95.5125 96.4554 95.5125 94.8252C95.5125 91.5477 95.5125 86.7768 95.4725 80.7519C95.4725 68.7021 95.4269 51.6477 95.3983 31.5552L95.5467 31.7034H50.2814L50.4469 31.5381C50.4469 57.3135 50.4469 81.0711 50.4127 99.8583L50.2187 99.75L83.169 99.8184L92.2711 99.8526H94.6622H95.4897H94.6907H92.3225L83.2489 99.8868L50.2187 100.007H50.0874V99.8754C50.0874 81.0654 50.0874 57.3306 50.0874 31.5552V31.3899H50.2586H95.5239H95.6723V31.5381C95.6723 51.6705 95.6152 68.7591 95.5981 80.8317C95.5981 86.8452 95.5695 91.6047 95.5581 94.8708C95.5581 96.4896 95.5581 97.7208 95.5581 98.5872C95.5581 99.0033 95.5581 99.3168 95.5581 99.5391C95.5581 99.7614 95.5125 99.8754 95.5125 99.8754Z" fill="#E0E0E0"/>
<path d="M103.165 22.1103C102.854 22.6592 102.495 23.1799 102.092 23.6664C101.39 24.6012 100.38 25.8723 99.2389 27.2517C98.0976 28.6311 97.0419 29.8395 96.26 30.7059C95.8579 31.1929 95.415 31.6449 94.9361 32.0568C95.2746 31.5266 95.6564 31.0252 96.0774 30.5577L98.9764 27.0408L101.875 23.5239C102.266 23.0185 102.697 22.5457 103.165 22.1103Z" fill="#E0E0E0"/>
<path d="M95.7408 99.6531C97.9922 103.229 100.642 106.539 103.639 109.52L95.7408 99.6531Z" fill="white"/>
<path d="M103.639 109.52C103.14 109.148 102.679 108.728 102.263 108.266C101.213 107.201 100.219 106.082 99.2846 104.914C98.3477 103.746 97.4715 102.53 96.6595 101.272C96.2995 100.765 95.9917 100.222 95.7408 99.6531C96.1477 100.121 96.5197 100.618 96.8536 101.141C97.5155 102.07 98.4514 103.347 99.5414 104.709C100.631 106.071 101.67 107.257 102.429 108.129C102.866 108.562 103.271 109.027 103.639 109.52Z" fill="#E0E0E0"/>
<path d="M42.7486 109.252L50.641 99.5277L42.7486 109.252Z" fill="white"/>
<path d="M50.641 99.5277C49.4556 101.248 48.1813 102.905 46.8232 104.492C45.55 106.15 44.1899 107.738 42.7486 109.252C43.9346 107.54 45.2089 105.89 46.5664 104.31C47.8409 102.647 49.2009 101.05 50.641 99.5277Z" fill="#E0E0E0"/>
<path d="M42.76 22.1103C44.1189 23.5592 45.3972 25.0815 46.5892 26.6703C47.8654 28.197 49.058 29.7915 50.1616 31.4469C48.8027 29.998 47.5244 28.4757 46.3324 26.8869C45.054 25.362 43.8614 23.7673 42.76 22.1103Z" fill="#E0E0E0"/>
<path d="M81.4056 45.429H66.2487V88.4184H81.4056V45.429Z" fill="#E0E0E0"/>
<path d="M362.436 190.203H257.177V238.693H362.436V190.203Z" fill="#F5F5F5"/>
<path d="M359.931 236.408H259.585V192.757H359.931V236.408ZM260.224 235.752H359.275V193.407H260.224V235.752Z" fill="#E0E0E0"/>
<path d="M388.15 190.203H362.436V238.693H388.15V190.203Z" fill="#E0E0E0"/>
<path d="M259.91 206.266H359.6C359.631 206.26 359.658 206.243 359.678 206.218C359.698 206.194 359.709 206.163 359.709 206.132C359.709 206.101 359.698 206.07 359.678 206.046C359.658 206.021 359.631 206.004 359.6 205.998H259.91C259.879 206.004 259.852 206.021 259.832 206.046C259.812 206.07 259.801 206.101 259.801 206.132C259.801 206.163 259.812 206.194 259.832 206.218C259.852 206.243 259.879 206.26 259.91 206.266Z" fill="#E0E0E0"/>
<path d="M310.083 206.135C310.36 201.749 310.371 197.35 310.117 192.962C310.111 192.931 310.094 192.904 310.07 192.884C310.045 192.864 310.015 192.853 309.983 192.853C309.952 192.853 309.921 192.864 309.897 192.884C309.872 192.904 309.856 192.931 309.849 192.962C309.592 197.35 309.604 201.749 309.883 206.135C309.889 206.157 309.902 206.177 309.92 206.191C309.938 206.206 309.96 206.213 309.983 206.213C310.006 206.213 310.029 206.206 310.047 206.191C310.065 206.177 310.078 206.157 310.083 206.135Z" fill="#E0E0E0"/>
<path d="M336.916 199.546C336.916 199.814 336.836 200.076 336.687 200.299C336.538 200.522 336.327 200.696 336.079 200.798C335.831 200.901 335.558 200.928 335.295 200.877C335.032 200.825 334.79 200.696 334.599 200.507C334.409 200.318 334.279 200.076 334.226 199.814C334.173 199.551 334.199 199.278 334.301 199.03C334.403 198.782 334.576 198.57 334.799 198.42C335.022 198.271 335.284 198.19 335.552 198.189C335.731 198.188 335.908 198.223 336.074 198.291C336.239 198.358 336.389 198.458 336.516 198.584C336.643 198.71 336.743 198.86 336.812 199.025C336.881 199.19 336.916 199.367 336.916 199.546Z" fill="#E0E0E0"/>
<path d="M284.597 199.546C284.597 199.814 284.518 200.076 284.368 200.299C284.219 200.522 284.007 200.696 283.759 200.799C283.511 200.902 283.237 200.928 282.974 200.876C282.711 200.824 282.469 200.695 282.279 200.505C282.089 200.315 281.959 200.073 281.907 199.81C281.854 199.547 281.881 199.274 281.984 199.026C282.087 198.779 282.261 198.567 282.484 198.418C282.708 198.269 282.97 198.189 283.239 198.189C283.418 198.188 283.595 198.223 283.76 198.291C283.925 198.359 284.075 198.459 284.201 198.585C284.327 198.711 284.427 198.861 284.495 199.026C284.563 199.19 284.598 199.367 284.597 199.546Z" fill="#E0E0E0"/>
<path d="M311.116 214.582C311.116 214.85 311.036 215.113 310.887 215.336C310.738 215.559 310.526 215.733 310.278 215.836C310.029 215.938 309.756 215.965 309.493 215.913C309.229 215.86 308.987 215.731 308.797 215.541C308.608 215.352 308.478 215.11 308.426 214.847C308.373 214.584 308.4 214.311 308.503 214.063C308.606 213.815 308.78 213.603 309.003 213.454C309.227 213.305 309.489 213.226 309.758 213.226C310.118 213.227 310.462 213.371 310.717 213.625C310.971 213.879 311.115 214.223 311.116 214.582Z" fill="#E0E0E0"/>
<path d="M269.76 238.693L264.339 269.131H267.392L277.378 238.693H269.76Z" fill="#E0E0E0"/>
<path d="M354.989 238.693L359.52 269.188H356.473L347.365 238.693H354.989Z" fill="#E0E0E0"/>
<path d="M375.339 238.693L380.469 269.188H377.422L367.715 238.693H375.339Z" fill="#E0E0E0"/>
<path d="M311.013 228.302C311.013 228.57 310.934 228.833 310.784 229.056C310.635 229.279 310.423 229.453 310.175 229.555C309.927 229.658 309.654 229.685 309.39 229.633C309.127 229.58 308.885 229.451 308.695 229.261C308.505 229.072 308.375 228.83 308.323 228.567C308.271 228.304 308.298 228.031 308.4 227.783C308.503 227.535 308.677 227.323 308.901 227.174C309.124 227.025 309.387 226.945 309.655 226.945C310.015 226.945 310.361 227.088 310.616 227.343C310.87 227.597 311.013 227.942 311.013 228.302Z" fill="#E0E0E0"/>
<path d="M259.91 221.28H359.6C359.635 221.28 359.668 221.266 359.693 221.241C359.717 221.217 359.731 221.183 359.731 221.149C359.731 221.114 359.717 221.08 359.693 221.056C359.668 221.031 359.635 221.018 359.6 221.018H259.91C259.875 221.018 259.842 221.031 259.817 221.056C259.793 221.08 259.779 221.114 259.779 221.149C259.779 221.183 259.793 221.217 259.817 221.241C259.842 221.266 259.875 221.28 259.91 221.28Z" fill="#E0E0E0"/>
<path d="M169.094 250.498V268.932H196.081H225.847V250.498H169.094Z" fill="#F5F5F5"/>
<path d="M166.715 245.345V250.498H227.833V245.345H196.081H166.715Z" fill="#E0E0E0"/>
<path d="M197.274 268.932H225.847V250.498H227.833V245.345H196.081V250.025L197.274 268.932Z" fill="#E0E0E0"/>
<path d="M188.543 253.473H177.032V256.249H188.543V253.473Z" fill="#E0E0E0"/>
<path d="M190.334 259.715H175.554V265.574H190.334V259.715Z" fill="white"/>
<path d="M177.825 226.94V245.374H204.812H234.578V226.94H177.825Z" fill="#F5F5F5"/>
<path d="M175.446 221.787V226.94H236.564V221.787H204.812H175.446Z" fill="#E0E0E0"/>
<path d="M206.005 245.374H234.578V226.94H236.564V221.787H204.812V226.461L206.005 245.374Z" fill="#E0E0E0"/>
<path d="M197.274 229.91H185.763V232.685H197.274V229.91Z" fill="#E0E0E0"/>
<path d="M199.066 236.157H184.285V242.016H199.066V236.157Z" fill="white"/>
<path d="M349.282 154.601C350.302 153.986 351.4 153.511 352.546 153.188L353.22 149.961L358.675 149.864L359.463 153.068C360.619 153.351 361.733 153.788 362.773 154.367L365.529 152.56L369.455 156.345L367.743 159.161C368.364 160.188 368.843 161.294 369.164 162.45L372.394 163.123L372.491 168.572L369.284 169.358C369 170.514 368.563 171.625 367.983 172.664L369.792 175.389L365.997 179.311L363.178 177.601C362.16 178.216 361.064 178.691 359.919 179.014L359.246 182.24L353.791 182.337L353.003 179.134C351.846 178.851 350.733 178.414 349.693 177.834L346.965 179.647L343.039 175.862L344.751 173.046C344.136 172.027 343.661 170.931 343.336 169.786L340.106 169.113L340.009 163.664L343.21 162.878C343.499 161.723 343.938 160.611 344.517 159.572L342.708 156.818L346.497 152.897L349.316 154.607L349.282 154.601ZM352.193 161.863C351.388 162.695 350.849 163.746 350.643 164.884C350.436 166.023 350.573 167.196 351.034 168.257C351.496 169.318 352.262 170.218 353.236 170.844C354.21 171.47 355.347 171.793 356.505 171.773C357.663 171.753 358.789 171.391 359.74 170.732C360.692 170.073 361.426 169.147 361.851 168.071C362.276 166.995 362.372 165.817 362.126 164.687C361.881 163.556 361.306 162.524 360.473 161.72C359.919 161.188 359.265 160.769 358.549 160.489C357.833 160.209 357.069 160.072 356.3 160.087C355.531 160.102 354.772 160.268 354.068 160.575C353.363 160.883 352.726 161.326 352.193 161.88V161.863Z" fill="#EBEBEB"/>
<path d="M176.422 156.562C178.204 155.486 180.123 154.656 182.128 154.094L183.304 148.468L192.817 148.303L194.181 153.883C196.199 154.382 198.141 155.149 199.956 156.163L204.761 153.017L211.609 159.617L208.63 164.525C209.706 166.306 210.537 168.223 211.101 170.225L216.733 171.393L216.853 180.861L211.272 182.229C210.769 184.242 210.002 186.18 208.99 187.992L212.14 192.797L205.531 199.637L200.646 196.65C198.863 197.723 196.944 198.553 194.94 199.118L193.77 204.744L184.257 204.909L182.887 199.329C180.871 198.829 178.931 198.062 177.118 197.049L172.341 200.213L165.493 193.618L168.472 188.704C167.397 186.923 166.566 185.006 166.001 183.004L160.357 181.83L160.186 172.334L165.773 170.966C166.273 168.95 167.041 167.01 168.056 165.197L164.923 160.421L171.525 153.581L176.444 156.556L176.422 156.562ZM181.489 169.216C180.088 170.666 179.148 172.499 178.79 174.482C178.431 176.465 178.669 178.51 179.474 180.359C180.279 182.207 181.614 183.775 183.311 184.865C185.008 185.956 186.991 186.519 189.008 186.484C191.026 186.449 192.987 185.817 194.646 184.668C196.304 183.52 197.583 181.906 198.323 180.031C199.063 178.156 199.23 176.104 198.802 174.134C198.375 172.165 197.372 170.366 195.921 168.965C194.957 168.032 193.818 167.298 192.569 166.806C191.321 166.313 189.987 166.072 188.645 166.095C187.302 166.118 185.978 166.406 184.747 166.942C183.516 167.477 182.403 168.25 181.472 169.216H181.489Z" fill="#EBEBEB"/>
<path d="M236.313 100.782C237.176 100.261 238.105 99.8583 239.075 99.5847L239.646 96.8487L244.274 96.7632L244.942 99.4764C245.922 99.7188 246.867 100.091 247.749 100.582L250.089 99.0489L253.422 102.264L251.972 104.652C252.494 105.516 252.897 106.446 253.171 107.416L255.91 107.986L255.995 112.609L253.279 113.276C253.035 114.256 252.663 115.199 252.172 116.08L253.707 118.417L250.488 121.741L248.097 120.27C247.233 120.793 246.302 121.197 245.33 121.473L244.759 124.209L240.131 124.288L239.463 121.575C238.482 121.334 237.537 120.963 236.655 120.469L234.316 122.003L230.989 118.794L232.438 116.405C231.916 115.541 231.511 114.612 231.234 113.641L228.495 113.071L228.415 108.448L231.131 107.781C231.371 106.801 231.744 105.857 232.238 104.977L230.703 102.64L233.916 99.3111L236.313 100.759V100.782ZM238.778 106.943C238.096 107.649 237.639 108.541 237.465 109.506C237.29 110.472 237.407 111.467 237.798 112.366C238.19 113.266 238.84 114.029 239.667 114.559C240.493 115.089 241.458 115.363 242.44 115.345C243.421 115.328 244.376 115.02 245.183 114.46C245.989 113.901 246.612 113.115 246.971 112.202C247.33 111.29 247.411 110.291 247.202 109.332C246.993 108.374 246.504 107.499 245.798 106.818C244.85 105.905 243.578 105.405 242.262 105.429C240.946 105.452 239.693 105.997 238.778 106.943Z" fill="#F5F5F5"/>
<path d="M264.789 113.726C266.306 112.814 267.937 112.107 269.64 111.623L270.639 106.824L278.754 106.681L279.923 111.441C281.642 111.866 283.296 112.517 284.843 113.379L288.946 110.694L294.784 116.32L292.244 120.509C293.157 122.024 293.865 123.654 294.35 125.354L299.155 126.358L299.298 134.457L294.532 135.626C294.106 137.344 293.454 138.998 292.592 140.545L295.28 144.638L289.619 150.48L285.425 147.943C283.909 148.858 282.278 149.565 280.574 150.047L279.575 154.846L271.46 154.989L270.291 150.229C268.571 149.805 266.915 149.156 265.366 148.297L261.268 150.982L255.43 145.35L257.97 141.16C257.054 139.647 256.346 138.017 255.864 136.315L251.059 135.318L250.916 127.213L255.681 126.073C256.105 124.356 256.755 122.704 257.616 121.159L254.928 117.061L260.566 111.23L264.761 113.766L264.789 113.726ZM269.115 124.528C267.92 125.765 267.119 127.328 266.814 129.02C266.508 130.712 266.711 132.456 267.398 134.032C268.085 135.608 269.224 136.946 270.672 137.875C272.119 138.805 273.811 139.285 275.531 139.254C277.252 139.224 278.925 138.685 280.339 137.705C281.753 136.725 282.844 135.348 283.475 133.749C284.106 132.15 284.248 130.399 283.883 128.72C283.518 127.04 282.662 125.506 281.424 124.311C280.601 123.514 279.628 122.888 278.562 122.467C277.496 122.046 276.357 121.84 275.21 121.86C274.064 121.88 272.933 122.126 271.882 122.584C270.831 123.042 269.881 123.702 269.086 124.528H269.115Z" fill="#EBEBEB"/>
<path d="M268.716 72.2475C269.473 71.7896 270.289 71.4349 271.141 71.193L271.637 68.799L275.695 68.7249L276.265 71.1018C277.124 71.3155 277.951 71.6413 278.725 72.0708L280.774 70.7313L283.696 73.5471L282.423 75.639C282.881 76.3959 283.236 77.2106 283.479 78.0615L285.881 78.5631L285.95 82.6158L283.57 83.1858C283.359 84.0445 283.032 84.8709 282.6 85.6425L283.947 87.6945L281.145 90.63L279.056 89.3475C278.3 89.808 277.483 90.1628 276.631 90.402L276.134 92.8017L272.077 92.8701L271.506 90.4932C270.646 90.282 269.819 89.9561 269.046 89.5242L266.998 90.8694L264.076 88.0536L265.349 85.9617C264.891 85.2024 264.536 84.3859 264.293 83.5335L261.89 83.0376L261.822 78.9849L264.202 78.4149C264.415 77.5552 264.742 76.7273 265.172 75.9525L263.831 73.9062L266.644 70.9878L268.744 72.2589L268.716 72.2475ZM270.878 77.6454C270.28 78.264 269.878 79.0461 269.724 79.8928C269.57 80.7395 269.672 81.6126 270.015 82.4018C270.358 83.191 270.928 83.8607 271.653 84.3263C272.377 84.7918 273.224 85.0322 274.085 85.017C274.947 85.0018 275.784 84.7318 276.492 84.2411C277.199 83.7503 277.745 83.061 278.061 82.2602C278.376 81.4594 278.446 80.5832 278.263 79.7425C278.079 78.9017 277.65 78.1342 277.03 77.5371C276.2 76.7375 275.085 76.2998 273.932 76.3201C272.778 76.3404 271.68 76.8171 270.878 77.6454Z" fill="#EBEBEB"/>
<path d="M220.22 131.983C222.181 130.8 224.293 129.885 226.498 129.265L227.787 123.08L238.253 122.892L239.76 129.031C241.978 129.579 244.114 130.418 246.111 131.527L251.402 128.068L258.934 135.329L255.659 140.727C256.844 142.686 257.759 144.795 258.381 146.997L264.572 148.285L264.755 158.739L258.609 160.244C258.065 162.461 257.226 164.594 256.115 166.588L259.579 171.872L252.309 179.396L246.876 176.13C244.914 177.312 242.803 178.226 240.599 178.849L239.309 185.033L228.843 185.216L227.336 179.077C225.117 178.535 222.981 177.697 220.985 176.586L215.712 180.017L208.179 172.756L211.461 167.352C210.275 165.394 209.36 163.285 208.738 161.082L202.547 159.794L202.364 149.34L208.51 147.835C209.057 145.619 209.898 143.485 211.01 141.491L207.546 136.23L214.816 128.706L220.22 131.983Z" fill="#6FC78A"/>
<path d="M226.971 144.113H221.219V162.051H226.971V144.113Z" fill="white"/>
<path d="M235.56 148.211H229.807V162.051H235.56V148.211Z" fill="white"/>
<path d="M243.503 153.832H237.751V162.051H243.503V153.832Z" fill="white"/>
<path d="M134.027 130.712C135.989 129.532 138.1 128.62 140.304 127.999L141.594 121.809L152.06 121.627L153.566 127.765C155.786 128.31 157.922 129.149 159.918 130.262L165.208 126.796L172.741 134.058L169.459 139.462C170.644 141.42 171.56 143.529 172.182 145.732L178.373 147.02L178.556 157.474L172.416 158.979C171.858 161.188 171.01 163.313 169.893 165.3L173.357 170.584L166.064 178.108L160.66 174.836C158.698 176.015 156.586 176.928 154.382 177.549L153.093 183.74L142.627 183.922L141.12 177.783C138.902 177.235 136.766 176.396 134.769 175.286L129.541 178.752L122.009 171.49L125.29 166.087C124.105 164.128 123.189 162.019 122.568 159.817L116.376 158.528L116.193 148.075L122.34 146.57C122.876 144.352 123.707 142.217 124.811 140.22L121.347 134.936L128.617 127.418L134.027 130.69V130.712Z" fill="#6FC78A"/>
<path d="M149.018 170.293C145.192 170.277 141.472 169.036 138.403 166.754C135.335 164.472 133.079 161.267 131.967 157.611C131.947 157.538 131.956 157.461 131.992 157.395C132.029 157.329 132.089 157.28 132.161 157.257C132.233 157.236 132.31 157.244 132.376 157.279C132.442 157.314 132.492 157.374 132.515 157.445C133.707 161.436 136.309 164.858 139.838 167.078C143.366 169.297 147.58 170.162 151.699 169.512C155.817 168.862 159.559 166.741 162.231 163.544C164.902 160.346 166.321 156.289 166.224 152.126C166.127 147.962 164.521 143.975 161.704 140.905C158.886 137.835 155.049 135.891 150.905 135.433C146.761 134.975 142.591 136.034 139.17 138.415C135.749 140.795 133.309 144.335 132.303 148.377C132.285 148.452 132.238 148.518 132.171 148.558C132.105 148.599 132.025 148.611 131.95 148.593C131.874 148.575 131.809 148.528 131.768 148.461C131.727 148.395 131.715 148.315 131.733 148.24C132.537 145.009 134.234 142.068 136.63 139.754C139.027 137.439 142.026 135.844 145.286 135.15C148.546 134.456 151.936 134.69 155.069 135.827C158.202 136.965 160.953 138.958 163.006 141.581C165.06 144.203 166.334 147.35 166.684 150.661C167.034 153.972 166.446 157.315 164.986 160.308C163.526 163.301 161.253 165.824 158.427 167.59C155.601 169.355 152.335 170.292 149.001 170.293H149.018Z" fill="white"/>
<path d="M148.944 164.867C146.248 164.861 143.627 163.978 141.479 162.351C139.331 160.724 137.772 158.441 137.04 155.849C137.029 155.814 137.026 155.777 137.03 155.74C137.035 155.703 137.046 155.667 137.064 155.635C137.082 155.603 137.106 155.574 137.136 155.551C137.165 155.528 137.198 155.512 137.234 155.502C137.307 155.481 137.385 155.489 137.451 155.525C137.517 155.562 137.567 155.623 137.588 155.695C138.356 158.434 140.091 160.803 142.472 162.363C144.853 163.923 147.718 164.569 150.539 164.182C153.36 163.794 155.946 162.4 157.817 160.256C159.688 158.113 160.719 155.365 160.719 152.521C160.719 149.676 159.688 146.928 157.817 144.785C155.946 142.641 153.36 141.247 150.539 140.86C147.718 140.472 144.853 141.119 142.472 142.679C140.091 144.239 138.356 146.607 137.588 149.346C137.578 149.383 137.56 149.418 137.537 149.449C137.513 149.48 137.483 149.505 137.45 149.525C137.416 149.544 137.379 149.557 137.34 149.561C137.302 149.566 137.263 149.564 137.225 149.554C137.188 149.544 137.153 149.526 137.122 149.503C137.091 149.479 137.065 149.449 137.046 149.416C137.027 149.382 137.014 149.345 137.009 149.307C137.004 149.268 137.007 149.229 137.017 149.192C137.637 146.979 138.863 144.984 140.557 143.429C142.251 141.875 144.345 140.823 146.605 140.393C148.864 139.963 151.199 140.17 153.346 140.993C155.494 141.816 157.369 143.221 158.761 145.05C160.153 146.879 161.006 149.06 161.225 151.347C161.443 153.634 161.019 155.937 159.999 157.996C158.978 160.055 157.403 161.789 155.45 163.003C153.497 164.217 151.244 164.862 148.944 164.867Z" fill="white"/>
<path d="M148.944 155.291C148.314 155.293 147.698 155.106 147.175 154.755C147.114 154.71 147.073 154.644 147.059 154.57C147.045 154.496 147.06 154.419 147.101 154.356C147.143 154.294 147.209 154.252 147.282 154.238C147.356 154.224 147.432 154.24 147.494 154.282C147.83 154.507 148.213 154.65 148.613 154.701C149.014 154.751 149.42 154.707 149.801 154.572C150.181 154.437 150.525 154.215 150.804 153.924C151.083 153.633 151.29 153.281 151.408 152.895C151.526 152.51 151.552 152.102 151.485 151.704C151.417 151.307 151.257 150.931 151.017 150.607C150.778 150.282 150.465 150.018 150.105 149.836C149.745 149.653 149.348 149.558 148.944 149.557C148.516 149.558 148.095 149.663 147.717 149.864C147.685 149.882 147.649 149.894 147.612 149.898C147.575 149.902 147.538 149.898 147.502 149.888C147.466 149.877 147.433 149.859 147.404 149.836C147.376 149.812 147.352 149.783 147.335 149.75C147.317 149.717 147.305 149.681 147.301 149.644C147.297 149.607 147.301 149.569 147.311 149.533C147.322 149.497 147.339 149.463 147.363 149.434C147.387 149.405 147.416 149.381 147.449 149.363C147.872 149.136 148.341 149.008 148.82 148.989C149.3 148.97 149.778 149.061 150.217 149.254C150.656 149.448 151.046 149.739 151.355 150.105C151.665 150.472 151.887 150.904 152.004 151.369C152.121 151.834 152.131 152.319 152.032 152.788C151.933 153.258 151.728 153.698 151.433 154.076C151.138 154.454 150.76 154.76 150.329 154.971C149.898 155.181 149.424 155.291 148.944 155.291Z" fill="white"/>
<path d="M149.018 152.03L144.407 149.79L144.493 151.785L132.246 152.076L132.378 152.971L144.647 152.771L144.681 154.801L149.018 152.03Z" fill="white"/>
<path d="M135.613 152.372L135.55 152.247C135.387 151.932 135.142 151.666 134.841 151.477C134.54 151.289 134.194 151.185 133.838 151.175L129.781 151.021L131.539 152.606L129.981 154.527L133.861 154.447C134.288 154.439 134.7 154.293 135.037 154.032C135.374 153.772 135.618 153.409 135.733 152.999L135.613 152.372Z" fill="white"/>
<path d="M149.018 159.976C147.405 159.97 145.837 159.444 144.547 158.477C143.256 157.509 142.313 156.152 141.856 154.607C141.845 154.571 141.841 154.534 141.845 154.497C141.849 154.46 141.86 154.424 141.878 154.391C141.896 154.359 141.921 154.33 141.951 154.307C141.98 154.285 142.014 154.268 142.05 154.259C142.086 154.249 142.124 154.245 142.161 154.249C142.199 154.253 142.235 154.265 142.267 154.283C142.3 154.301 142.329 154.325 142.353 154.354C142.376 154.383 142.394 154.417 142.404 154.453C142.875 156.039 143.903 157.403 145.298 158.295C146.694 159.187 148.364 159.547 150.004 159.309C151.643 159.071 153.142 158.252 154.226 157C155.31 155.749 155.907 154.15 155.907 152.495C155.907 150.84 155.31 149.241 154.226 147.989C153.142 146.738 151.643 145.919 150.004 145.681C148.364 145.443 146.694 145.803 145.298 146.695C143.903 147.587 142.875 148.951 142.404 150.537C142.394 150.573 142.376 150.606 142.353 150.636C142.329 150.665 142.3 150.689 142.267 150.707C142.235 150.725 142.199 150.736 142.161 150.741C142.124 150.745 142.086 150.741 142.05 150.731C142.014 150.72 141.98 150.703 141.95 150.679C141.92 150.655 141.896 150.626 141.878 150.592C141.859 150.559 141.848 150.522 141.845 150.484C141.841 150.446 141.845 150.408 141.856 150.372C142.256 149.05 143.015 147.866 144.05 146.951C145.084 146.035 146.352 145.425 147.714 145.187C149.075 144.95 150.476 145.095 151.759 145.606C153.043 146.118 154.159 146.975 154.983 148.083C155.807 149.191 156.307 150.506 156.427 151.881C156.546 153.256 156.281 154.637 155.661 155.871C155.041 157.104 154.089 158.141 152.913 158.866C151.737 159.591 150.383 159.975 149.001 159.976H149.018Z" fill="white"/>
<path d="M305.489 130.234C307.452 129.054 309.563 128.142 311.767 127.52L313.056 121.33L323.522 121.148L325.029 127.287C327.249 127.829 329.386 128.669 331.38 129.783L336.671 126.318L344.203 133.58L340.922 138.983C342.107 140.942 343.022 143.051 343.644 145.253L349.819 146.524L350.001 156.978L343.855 158.46C343.311 160.675 342.473 162.806 341.361 164.798L344.825 170.082L337.555 177.606L332.128 174.352C330.167 175.534 328.055 176.449 325.851 177.07L324.561 183.261L314.095 183.443L312.588 177.304C310.37 176.758 308.234 175.918 306.237 174.808L300.947 178.273L293.454 171L296.735 165.596C295.55 163.638 294.635 161.529 294.013 159.326L287.821 158.038L287.616 147.63L293.756 146.125C294.305 143.909 295.145 141.776 296.256 139.781L292.792 134.497L300.062 126.979L305.466 130.251L305.489 130.234Z" fill="#6FC78A"/>
<path d="M303.492 153.193L307.504 149.186L315.236 156.055L330.422 141.463L334.148 145.47L314.666 163.784L303.492 153.193Z" fill="white"/>
<path d="M199.83 133.494C199.845 133.43 199.868 133.369 199.899 133.312L200.127 132.799C200.23 132.565 200.355 132.291 200.504 131.966C200.667 131.574 200.858 131.193 201.074 130.826L201.828 129.458C202.124 128.962 202.478 128.455 202.838 127.891C203.197 127.327 203.648 126.751 204.099 126.181C204.581 125.542 205.096 124.927 205.64 124.34C206.176 123.69 206.838 123.097 207.477 122.442C207.797 122.105 208.168 121.82 208.522 121.501C208.875 121.182 209.246 120.863 209.629 120.549L210.833 119.637C211.038 119.483 211.238 119.324 211.449 119.176L212.105 118.742C212.551 118.452 212.99 118.172 213.452 117.865L214.89 117.049C215.364 116.759 215.883 116.536 216.397 116.286C216.91 116.035 217.424 115.767 217.972 115.567L219.61 114.906L221.322 114.336C226.124 112.853 231.214 112.549 236.159 113.453L237.928 113.8L239.64 114.262C240.211 114.399 240.747 114.61 241.289 114.787C241.831 114.963 242.368 115.14 242.876 115.357L244.394 115.995C244.89 116.217 245.364 116.474 245.838 116.702L246.539 117.055C246.768 117.181 246.99 117.317 247.207 117.443L248.514 118.207C248.931 118.469 249.33 118.777 249.724 119.022C250.118 119.267 250.517 119.54 250.865 119.831C251.584 120.401 252.309 120.914 252.914 121.501C253.519 122.088 254.152 122.584 254.666 123.143C255.179 123.701 255.71 124.186 256.121 124.71C256.532 125.235 256.96 125.696 257.308 126.147L258.221 127.418C258.472 127.751 258.703 128.099 258.911 128.461L259.385 129.242C259.499 129.441 259.596 129.607 259.67 129.726C259.708 129.778 259.737 129.836 259.756 129.897C259.715 129.848 259.677 129.797 259.642 129.743L259.334 129.27L258.837 128.506C258.62 128.152 258.384 127.81 258.13 127.48L257.194 126.232C256.84 125.788 256.423 125.332 255.995 124.824C255.567 124.317 255.054 123.821 254.529 123.28C254.004 122.738 253.387 122.214 252.777 121.655C252.166 121.096 251.441 120.583 250.728 120.019C250.374 119.728 249.975 119.489 249.587 119.215C249.199 118.942 248.794 118.674 248.377 118.417C247.96 118.161 247.521 117.916 247.076 117.665C246.859 117.54 246.642 117.403 246.414 117.283L245.712 116.935C245.238 116.707 244.77 116.462 244.28 116.24L242.767 115.607C242.265 115.379 241.723 115.225 241.192 115.037C240.662 114.849 240.119 114.65 239.554 114.519L237.842 114.063L236.085 113.721C233.636 113.303 231.148 113.154 228.666 113.276C226.208 113.463 223.777 113.92 221.419 114.638L219.707 115.208L218.075 115.858C217.532 116.052 217.025 116.326 216.511 116.565C215.997 116.804 215.489 117.032 215.016 117.317L213.589 118.121C213.127 118.4 212.687 118.691 212.248 118.987L211.592 119.415C211.381 119.557 211.181 119.717 210.975 119.871L209.777 120.772C209.395 121.079 209.035 121.399 208.67 121.706C208.305 122.014 207.945 122.305 207.631 122.635C206.987 123.285 206.325 123.867 205.788 124.511C205.252 125.155 204.687 125.713 204.242 126.323C203.796 126.933 203.323 127.463 202.969 128.033C202.615 128.603 202.244 129.088 201.948 129.572L201.166 130.923C200.956 131.28 200.766 131.647 200.595 132.023L200.19 132.844C200.087 133.055 200.002 133.22 199.939 133.346C199.908 133.399 199.872 133.449 199.83 133.494Z" fill="#263238"/>
<path d="M211.643 114.644C211.846 114.475 212.064 114.325 212.294 114.194C212.722 113.92 213.361 113.555 214.165 113.145C218.41 111.003 223.106 109.908 227.861 109.953C228.769 109.953 229.505 110.01 230.007 110.067C230.271 110.08 230.533 110.12 230.789 110.187C230.527 110.209 230.264 110.209 230.001 110.187C229.494 110.158 228.763 110.147 227.861 110.187C223.149 110.251 218.506 111.332 214.251 113.356C213.441 113.738 212.79 114.074 212.345 114.319C212.122 114.449 211.887 114.558 211.643 114.644Z" fill="#263238"/>
<path d="M348.791 172.602C348.777 172.664 348.756 172.726 348.729 172.784C348.672 172.91 348.592 173.081 348.5 173.297L348.124 174.129C347.956 174.52 347.766 174.901 347.553 175.269C347.325 175.68 347.074 176.141 346.794 176.637C346.515 177.133 346.149 177.641 345.784 178.205C345.419 178.769 344.979 179.345 344.523 179.915C344.066 180.485 343.536 181.117 342.982 181.756C342.429 182.394 341.789 182.993 341.145 183.654C340.831 183.985 340.46 184.275 340.106 184.595C339.752 184.914 339.381 185.233 338.999 185.546C338.616 185.86 338.2 186.151 337.795 186.458C337.589 186.612 337.384 186.772 337.173 186.92L336.516 187.353C336.077 187.638 335.632 187.923 335.17 188.231L333.737 189.046C333.258 189.331 332.739 189.559 332.231 189.81C331.723 190.061 331.204 190.329 330.656 190.528L329.012 191.184L327.3 191.754C322.498 193.237 317.408 193.541 312.463 192.637L310.694 192.284L308.982 191.828C308.411 191.691 307.875 191.48 307.333 191.298C306.79 191.115 306.254 190.95 305.746 190.728L304.222 190.089C303.732 189.861 303.258 189.61 302.784 189.377L302.082 189.029C301.848 188.904 301.632 188.767 301.409 188.642L300.108 187.878C299.686 187.61 299.292 187.308 298.892 187.063C298.493 186.817 298.099 186.544 297.751 186.248C297.038 185.678 296.313 185.17 295.702 184.583C295.092 183.996 294.464 183.5 293.956 182.936C293.448 182.372 292.912 181.898 292.501 181.368C292.09 180.838 291.662 180.388 291.308 179.938C290.954 179.487 290.675 179.048 290.395 178.667C290.145 178.333 289.917 177.985 289.71 177.623C289.522 177.321 289.368 177.053 289.237 176.843C289.105 176.632 289.026 176.478 288.951 176.358L288.86 176.187C288.86 176.187 288.906 176.238 288.98 176.341C289.054 176.443 289.157 176.615 289.288 176.808L289.785 177.578C290 177.932 290.236 178.272 290.492 178.598L291.422 179.852C291.776 180.297 292.193 180.753 292.621 181.26C293.049 181.767 293.568 182.263 294.087 182.805C294.607 183.346 295.229 183.871 295.839 184.423C296.45 184.976 297.175 185.495 297.888 186.065C298.242 186.356 298.641 186.595 299.029 186.869C299.417 187.142 299.817 187.405 300.239 187.667L301.535 188.419C301.757 188.545 301.974 188.681 302.202 188.801L302.898 189.149C303.372 189.377 303.846 189.622 304.331 189.844L305.843 190.471C306.351 190.699 306.887 190.859 307.424 191.041C307.96 191.224 308.497 191.429 309.062 191.56L310.774 192.01L312.526 192.352C317.434 193.248 322.486 192.948 327.255 191.48L328.967 190.91L330.593 190.26C331.164 190.061 331.649 189.793 332.157 189.553C332.664 189.314 333.184 189.086 333.657 188.795L335.084 187.992C335.546 187.718 335.98 187.422 336.425 187.131L337.076 186.703C337.287 186.561 337.487 186.401 337.692 186.248L338.896 185.347C339.278 185.039 339.638 184.714 339.997 184.412C340.357 184.11 340.722 183.808 341.042 183.483C341.681 182.833 342.343 182.252 342.879 181.608C343.416 180.964 343.986 180.405 344.426 179.795C344.865 179.185 345.35 178.655 345.698 178.085C346.047 177.515 346.429 177.025 346.726 176.54C347.022 176.056 347.296 175.6 347.502 175.19C347.713 174.834 347.904 174.467 348.072 174.089L348.472 173.274L348.729 172.767L348.791 172.602Z" fill="#263238"/>
<path d="M337.213 193.184C337.011 193.355 336.793 193.506 336.562 193.635C335.956 194.015 335.331 194.365 334.69 194.684C330.446 196.826 325.749 197.92 320.994 197.876C320.277 197.873 319.561 197.833 318.849 197.756C318.586 197.748 318.326 197.709 318.072 197.642C318.335 197.619 318.598 197.619 318.86 197.642C319.362 197.67 320.093 197.676 320.994 197.642C325.707 197.579 330.35 196.498 334.605 194.473C335.421 194.085 336.071 193.754 336.511 193.509C336.734 193.379 336.969 193.27 337.213 193.184Z" fill="#263238"/>
<path d="M178.048 171.336C178.033 171.398 178.01 171.457 177.98 171.513C177.922 171.644 177.848 171.815 177.751 172.026L177.375 172.864C177.208 173.255 177.018 173.636 176.804 174.004L176.051 175.372C175.754 175.862 175.4 176.375 175.041 176.934C174.681 177.492 174.23 178.074 173.779 178.644C173.329 179.214 172.792 179.846 172.239 180.479C171.685 181.112 171.04 181.722 170.401 182.377C170.081 182.714 169.711 183.004 169.357 183.323C169.003 183.643 168.632 183.962 168.25 184.27L167.046 185.187C166.84 185.336 166.64 185.501 166.424 185.649L165.773 186.082C165.328 186.367 164.888 186.652 164.426 186.954L162.988 187.769C162.514 188.06 161.995 188.282 161.482 188.539C160.968 188.795 160.454 189.052 159.906 189.251L158.269 189.913L156.557 190.483C151.756 191.974 146.664 192.277 141.719 191.366L139.95 191.018L138.238 190.557C137.668 190.426 137.131 190.215 136.589 190.032C136.047 189.85 135.51 189.679 135.003 189.462L133.485 188.818C132.988 188.596 132.514 188.345 132.041 188.111L131.339 187.758C131.111 187.638 130.888 187.502 130.671 187.37L129.364 186.607C128.948 186.344 128.548 186.037 128.155 185.797C127.761 185.558 127.361 185.279 127.013 184.982C126.294 184.412 125.569 183.899 124.959 183.318C124.348 182.736 123.726 182.235 123.213 181.67C122.699 181.106 122.168 180.633 121.757 180.103C121.347 179.573 120.919 179.123 120.57 178.667L119.657 177.401C119.407 177.067 119.177 176.719 118.967 176.358L118.493 175.571L118.208 175.087C118.171 175.035 118.142 174.977 118.122 174.916C118.164 174.966 118.202 175.02 118.236 175.076L118.545 175.543L119.041 176.307C119.258 176.661 119.495 177.004 119.749 177.333L120.679 178.581C121.038 179.026 121.455 179.487 121.883 179.995C122.311 180.502 122.825 180.992 123.35 181.539C123.875 182.087 124.491 182.6 125.102 183.158C125.712 183.717 126.437 184.23 127.15 184.8C127.504 185.09 127.904 185.33 128.292 185.598C128.68 185.866 129.085 186.139 129.501 186.401L130.797 187.154C131.019 187.279 131.236 187.41 131.464 187.53L132.166 187.878C132.634 188.106 133.108 188.357 133.599 188.579L135.111 189.206C135.613 189.434 136.155 189.593 136.686 189.776C137.217 189.958 137.759 190.158 138.324 190.289L140.036 190.745L141.794 191.087C146.7 191.982 151.75 191.683 156.517 190.215L158.229 189.645L159.861 188.995C160.432 188.795 160.911 188.522 161.424 188.288C161.938 188.054 162.446 187.815 162.92 187.53L164.346 186.726C164.809 186.447 165.248 186.156 165.687 185.866L166.344 185.438C166.555 185.29 166.754 185.13 166.96 184.982L168.158 184.082C168.541 183.774 168.9 183.449 169.265 183.141C169.631 182.833 169.99 182.543 170.304 182.212C170.949 181.562 171.611 180.986 172.147 180.342C172.684 179.698 173.249 179.134 173.694 178.524C174.139 177.914 174.613 177.384 174.966 176.814C175.32 176.244 175.691 175.754 175.988 175.269C176.285 174.785 176.559 174.323 176.77 173.918C176.98 173.563 177.171 173.195 177.34 172.818L177.746 171.998L177.997 171.496C177.997 171.388 178.048 171.331 178.048 171.336Z" fill="#263238"/>
<path d="M166.452 191.919C166.252 192.087 166.036 192.236 165.807 192.364C165.379 192.643 164.74 193.002 163.935 193.418C159.691 195.56 154.995 196.655 150.239 196.61C149.332 196.61 148.596 196.553 148.094 196.49C147.83 196.474 147.569 196.436 147.312 196.376C147.574 196.347 147.838 196.347 148.099 196.376C148.607 196.376 149.338 196.411 150.239 196.376C154.946 196.312 159.583 195.239 163.838 193.23C164.654 192.842 165.305 192.512 165.75 192.267C165.971 192.126 166.206 192.01 166.452 191.919Z" fill="#263238"/>
<path d="M299.6 101.853H184.508C181.926 101.853 179.45 100.829 177.624 99.0051C175.798 97.1815 174.772 94.7081 174.772 92.1291C174.772 89.5501 175.798 87.0767 177.624 85.2531C179.45 83.4294 181.926 82.4049 184.508 82.4049H299.6C302.182 82.4049 304.658 83.4294 306.484 85.2531C308.31 87.0767 309.336 89.5501 309.336 92.1291C309.336 94.7081 308.31 97.1815 306.484 99.0051C304.658 100.829 302.182 101.853 299.6 101.853Z" fill="#FAFAFA"/>
<path d="M299.6 101.853L300.348 101.802C301.08 101.739 301.803 101.597 302.505 101.38C303.643 101.001 304.704 100.422 305.638 99.6702C306.909 98.6454 307.905 97.3214 308.537 95.817C308.895 94.9203 309.127 93.9785 309.227 93.0183C309.315 91.9559 309.235 90.8862 308.987 89.8491C308.542 88.0209 307.568 86.3637 306.187 85.0838C304.806 83.8038 303.079 82.9575 301.221 82.65C299.791 82.5029 298.354 82.4572 296.918 82.5132H287.519L184.519 82.5531C182.688 82.5551 180.895 83.081 179.352 84.0685C177.81 85.056 176.584 86.4639 175.817 88.1257C175.051 89.7875 174.777 91.6338 175.027 93.4462C175.278 95.2587 176.043 96.9615 177.232 98.3535C178.774 100.168 180.944 101.336 183.31 101.625C184.451 101.756 185.655 101.694 186.825 101.711H210.633L256.943 101.745L288.158 101.791H296.644L288.187 101.916L256.971 101.962L210.662 101.99H186.825C185.655 101.99 184.474 102.036 183.275 101.905C181.429 101.672 179.686 100.922 178.248 99.7431C176.809 98.564 175.733 97.0029 175.144 95.2397C174.555 93.4765 174.476 91.583 174.917 89.7771C175.358 87.9713 176.301 86.3266 177.637 85.0326C179.483 83.2478 181.95 82.2485 184.519 82.2453L287.519 82.2909H296.918C298.363 82.2381 299.811 82.2896 301.249 82.4448C302.603 82.6677 303.892 83.1769 305.033 83.9382C307.099 85.3067 308.567 87.4101 309.136 89.8206C309.38 90.8736 309.455 91.9588 309.358 93.0354C309.256 94.0141 309.016 94.9736 308.645 95.8854C308.094 97.2041 307.261 98.3865 306.204 99.3495C305.148 100.313 303.893 101.033 302.528 101.46C301.822 101.673 301.094 101.805 300.359 101.853C299.863 101.853 299.6 101.853 299.6 101.853Z" fill="#263238"/>
<path d="M248.839 99.5448H184.565C182.597 99.5448 180.71 98.7641 179.319 97.3745C177.928 95.9848 177.146 94.1 177.146 92.1348C177.146 90.1695 177.928 88.2848 179.319 86.8951C180.71 85.5055 182.597 84.7248 184.565 84.7248H248.839C250.807 84.7248 252.694 85.5055 254.085 86.8951C255.476 88.2848 256.258 90.1695 256.258 92.1348C256.258 94.1 255.476 95.9848 254.085 97.3745C252.694 98.7641 250.807 99.5448 248.839 99.5448Z" fill="#6FC78A"/>
<g opacity="0.4">
<path d="M186.711 99.5448L195.933 84.7191H205.817L196.783 99.5448H186.711Z" fill="white"/>
</g>
<g opacity="0.4">
<path d="M206.524 99.5448L215.752 84.7191H225.63L216.597 99.5448H206.524Z" fill="white"/>
</g>
<g opacity="0.4">
<path d="M227.799 99.5448L237.021 84.7191H246.905L237.865 99.5448H227.799Z" fill="white"/>
</g>
<path d="M226.943 76.1976C226.943 77.3376 226.098 78.0216 224.746 78.0216H223.73V79.4181H222.56V74.3679H224.746C226.098 74.3679 226.943 75.069 226.943 76.1976ZM225.756 76.1976C225.756 75.6276 225.396 75.3198 224.683 75.3198H223.73V77.0697H224.683C225.413 77.0697 225.756 76.7505 225.756 76.1976Z" fill="#263238"/>
<path d="M230.989 79.4181L230.019 78.0102H228.94V79.4181H227.77V74.3679H229.979C231.331 74.3679 232.176 75.069 232.176 76.1976C232.19 76.5384 232.098 76.8753 231.912 77.1613C231.726 77.4473 231.455 77.6683 231.137 77.7936L232.278 79.4181H230.989ZM229.893 75.3198H228.94V77.0811H229.893C230.606 77.0811 230.966 76.7505 230.966 76.1976C230.966 75.6447 230.606 75.3198 229.893 75.3198Z" fill="#263238"/>
<path d="M232.758 76.893C232.727 76.3405 232.863 75.7914 233.148 75.3169C233.433 74.8424 233.854 74.4642 234.357 74.2313C234.859 73.9984 235.42 73.9216 235.967 74.0107C236.514 74.0998 237.021 74.3508 237.424 74.7311C237.826 75.1115 238.105 75.6037 238.224 76.1441C238.343 76.6846 238.298 77.2483 238.092 77.7624C237.887 78.2764 237.533 78.7172 237.074 79.0277C236.615 79.3381 236.074 79.5039 235.52 79.5036C235.164 79.5238 234.808 79.4712 234.474 79.3491C234.14 79.227 233.834 79.0379 233.575 78.7934C233.316 78.549 233.111 78.2543 232.97 77.9275C232.829 77.6007 232.757 77.2487 232.758 76.893ZM237.101 76.893C237.094 76.5823 236.995 76.2804 236.818 76.0253C236.64 75.7702 236.391 75.5732 236.101 75.4589C235.812 75.3446 235.495 75.3182 235.191 75.3829C234.887 75.4477 234.608 75.6007 234.391 75.8228C234.173 76.0449 234.026 76.3262 233.967 76.6315C233.909 76.9368 233.942 77.2525 234.063 77.5391C234.184 77.8256 234.386 78.0702 234.645 78.2422C234.904 78.4142 235.209 78.506 235.52 78.5061C235.732 78.5119 235.943 78.4738 236.14 78.3943C236.336 78.3148 236.514 78.1956 236.663 78.0442C236.811 77.8928 236.927 77.7123 237.002 77.5143C237.077 77.3162 237.111 77.1047 237.101 76.893Z" fill="#263238"/>
<path d="M238.847 76.893C238.88 76.349 239.072 75.8266 239.4 75.391C239.728 74.9554 240.177 74.6259 240.691 74.4435C241.205 74.2612 241.762 74.2341 242.291 74.3656C242.821 74.4971 243.3 74.7814 243.669 75.183L242.921 75.8727C242.764 75.69 242.569 75.5442 242.349 75.4456C242.129 75.3471 241.89 75.2983 241.649 75.3027C241.236 75.3272 240.849 75.5081 240.565 75.8084C240.282 76.1088 240.124 76.5059 240.124 76.9187C240.124 77.3314 240.282 77.7285 240.565 78.0288C240.849 78.3292 241.236 78.5101 241.649 78.5346C241.89 78.541 242.13 78.4931 242.35 78.3945C242.57 78.2958 242.766 78.1489 242.921 77.9646L243.675 78.603C243.306 79.0046 242.827 79.2889 242.297 79.4204C241.768 79.5519 241.211 79.5248 240.697 79.3424C240.183 79.1601 239.734 78.8306 239.406 78.395C239.078 77.9594 238.885 77.437 238.853 76.893H238.847Z" fill="#263238"/>
<path d="M248.371 78.4776V79.4181H244.456V74.3679H248.274V75.3084H245.621V76.38H247.966V77.2863H245.621V78.4548L248.371 78.4776Z" fill="#263238"/>
<path d="M248.902 78.9165L249.301 78.0387C249.792 78.3759 250.372 78.5586 250.968 78.5631C251.658 78.5631 251.944 78.3351 251.944 77.9931C251.944 77.0526 249.005 77.7024 249.005 75.8271C249.005 74.9664 249.695 74.2539 251.133 74.2539C251.747 74.2401 252.353 74.3938 252.885 74.6985L252.526 75.5877C252.102 75.3363 251.62 75.1989 251.128 75.1887C250.431 75.1887 250.163 75.4509 250.163 75.7587C250.163 76.6878 253.102 76.0437 253.102 77.8962C253.102 78.7398 252.406 79.4637 250.962 79.4637C250.236 79.4942 249.517 79.3034 248.902 78.9165Z" fill="#263238"/>
<path d="M253.507 78.9165L253.901 78.0387C254.394 78.3761 254.976 78.5587 255.573 78.5631C256.264 78.5631 256.543 78.3351 256.543 77.9931C256.543 77.0526 253.61 77.7024 253.61 75.8271C253.61 74.9664 254.3 74.2539 255.739 74.2539C256.352 74.2401 256.958 74.3938 257.491 74.6985L257.131 75.5877C256.706 75.3354 256.222 75.1979 255.727 75.1887C255.037 75.1887 254.768 75.4509 254.768 75.7587C254.768 76.6878 257.707 76.0437 257.707 77.8962C257.707 78.7398 257.005 79.4637 255.562 79.4637C254.837 79.4934 254.121 79.3026 253.507 78.9165Z" fill="#263238"/>
<path d="M393.583 268.932C393.583 269.012 313.176 269.08 214.011 269.08C114.847 269.08 34.4169 269.04 34.4169 268.932C34.4169 268.823 114.807 268.784 214.011 268.784C313.216 268.784 393.583 268.852 393.583 268.932Z" fill="#263238"/>
<path d="M43.0054 254.95L48.5923 242.98L61.632 250.469L54.8696 261.425C54.8696 261.425 49.5909 262.36 47.2455 260.917C44.9001 259.475 43.0054 254.95 43.0054 254.95Z" fill="#FFBE9D"/>
<path d="M54.2133 262.536L54.881 261.425C50.3145 260.647 46.1388 258.368 43.0168 254.95L38.5485 263.158L63.2299 276.712C64.3712 274.278 54.2133 262.536 54.2133 262.536Z" fill="#6FC78A"/>
<path d="M38.5371 263.158L39.6271 261.151L62.9331 274.928C62.9331 274.928 63.7663 276.005 63.2185 276.712L38.5371 263.158Z" fill="#263238"/>
<path d="M54.6756 262.633C54.6014 262.753 53.9679 262.474 53.1633 262.536C52.3587 262.599 51.7652 262.93 51.6796 262.821C51.594 262.713 52.1589 262.115 53.1348 262.058C54.1106 262.001 54.784 262.536 54.6756 262.633Z" fill="#263238"/>
<path d="M56.6729 265.124C56.6387 265.255 55.9995 265.175 55.3147 265.455C54.6299 265.734 54.2133 266.19 54.0878 266.144C53.9622 266.099 54.2704 265.352 55.1378 265.004C56.0052 264.657 56.7357 265.004 56.6729 265.124Z" fill="#263238"/>
<path d="M56.4389 269.04C56.3134 269.006 56.4789 268.316 57.1523 267.826C57.8256 267.336 58.5333 267.381 58.5276 267.512C58.5219 267.644 57.9569 267.803 57.4376 268.208C56.9183 268.613 56.5645 269.08 56.4389 269.04Z" fill="#263238"/>
<path d="M44.3865 260.94C44.3123 261.066 44.2026 261.167 44.0711 261.231C43.9396 261.295 43.7922 261.319 43.6473 261.299C43.5024 261.279 43.3665 261.217 43.2568 261.121C43.147 261.024 43.0682 260.898 43.0304 260.757C42.9925 260.616 42.9972 260.467 43.0439 260.328C43.0906 260.19 43.1772 260.068 43.2928 259.979C43.4084 259.889 43.5479 259.836 43.6938 259.826C43.8396 259.815 43.9853 259.848 44.1125 259.92C44.1982 259.968 44.2733 260.033 44.3336 260.111C44.3938 260.189 44.438 260.278 44.4635 260.373C44.489 260.468 44.4953 260.567 44.4821 260.664C44.4688 260.762 44.4363 260.856 44.3865 260.94Z" fill="#263238"/>
<path d="M101.847 259.835L108.318 246.194L121.501 246.4L114.744 259.681C114.744 259.681 110.384 263.055 107.559 262.861C104.734 262.667 101.847 259.835 101.847 259.835Z" fill="#FFBE9D"/>
<path d="M114.67 261.009L114.744 259.681C109.99 261.157 106.076 261.077 101.556 259.464C101.074 260.294 100.812 261.234 100.797 262.194L100.706 269.04L129.667 269.582C129.541 266.84 114.67 261.009 114.67 261.009Z" fill="#6FC78A"/>
<path d="M100.706 269.04L100.734 266.692L128.548 268.094C128.548 268.094 129.827 268.664 129.69 269.582L100.706 269.04Z" fill="#263238"/>
<path d="M115.143 260.872C115.143 261.014 114.43 261.066 113.722 261.505C113.015 261.944 112.638 262.531 112.507 262.474C112.376 262.417 112.604 261.602 113.466 261.083C114.327 260.564 115.178 260.741 115.143 260.872Z" fill="#263238"/>
<path d="M118.157 262.2C118.157 262.337 117.586 262.565 117.078 263.158C116.57 263.75 116.433 264.372 116.296 264.366C116.159 264.36 116.079 263.557 116.707 262.833C117.335 262.109 118.157 262.052 118.157 262.2Z" fill="#263238"/>
<path d="M119.84 265.848C119.714 265.876 119.532 265.164 119.908 264.4C120.285 263.636 120.924 263.34 120.981 263.454C121.038 263.568 120.622 263.978 120.319 264.594C120.017 265.21 119.954 265.837 119.84 265.848Z" fill="#263238"/>
<path d="M104.968 264.246C104.964 264.397 104.914 264.544 104.826 264.667C104.738 264.79 104.616 264.884 104.474 264.938C104.332 264.991 104.178 265.001 104.03 264.967C103.883 264.932 103.749 264.855 103.645 264.745C103.542 264.634 103.474 264.495 103.449 264.346C103.425 264.197 103.446 264.044 103.508 263.906C103.571 263.768 103.674 263.652 103.802 263.573C103.931 263.494 104.081 263.454 104.232 263.46C104.434 263.467 104.625 263.554 104.763 263.701C104.901 263.849 104.975 264.045 104.968 264.246Z" fill="#263238"/>
<path d="M177.62 78.66C178.755 78.4543 179.808 77.9301 180.656 77.1489C181.504 76.3677 182.111 75.3616 182.408 74.2482C182.404 74.1268 182.427 74.0061 182.476 73.8951C182.526 73.784 182.599 73.6856 182.692 73.6072C182.785 73.5287 182.895 73.4723 183.012 73.4422C183.13 73.412 183.253 73.4089 183.372 73.4331C183.981 73.4186 184.581 73.2808 185.135 73.028C185.69 72.7752 186.187 72.4128 186.597 71.9625C187 71.502 187.276 70.9439 187.396 70.3438C187.516 69.7437 187.477 69.1226 187.281 68.5425C189.142 68.7648 190.865 66.9579 190.871 65.0826C190.877 63.2073 189.439 61.5201 187.675 60.8931C188.149 60.5697 188.507 60.1026 188.695 59.5606C188.883 59.0187 188.892 58.4307 188.719 57.8835C188.345 56.7939 187.621 55.8582 186.659 55.2216C185.432 54.3039 183.726 53.6541 182.385 54.4122C182.733 53.5344 182.174 52.5426 181.455 51.9384C180.461 51.1538 179.213 50.7635 177.949 50.8424C176.685 50.9213 175.495 51.4639 174.607 52.3659C174.212 51.4779 173.549 50.7348 172.712 50.2398C172.288 50.0044 171.798 49.9153 171.319 49.9864C170.839 50.0575 170.396 50.2849 170.059 50.6331C170.059 49.6755 169.305 48.9231 168.495 48.3987C167.926 48.0069 167.252 47.7963 166.56 47.7945C166.215 47.8047 165.881 47.9191 165.602 48.1226C165.323 48.326 165.112 48.6091 164.997 48.9345C164.535 48.4501 163.91 48.1547 163.242 48.1059C162.575 48.057 161.913 48.2582 161.386 48.6702C160.859 49.0822 160.504 49.6755 160.391 50.3345C160.278 50.9935 160.414 51.6709 160.774 52.2348C160.186 52.2606 159.614 52.4373 159.115 52.748C158.615 53.0587 158.204 53.4928 157.921 54.0085C157.638 54.5241 157.493 55.1039 157.5 55.6918C157.507 56.2797 157.666 56.8559 157.961 57.3648C157.424 57.1539 156.819 57.7239 156.819 58.2996C156.847 58.5882 156.943 58.8661 157.098 59.1107C157.254 59.3554 157.465 59.5598 157.715 59.7075C156.631 61.3909 155.543 63.0705 154.451 64.7463C153.693 65.7879 153.104 66.942 152.705 68.1663C152.511 68.7824 152.464 69.4353 152.568 70.0727C152.672 70.7101 152.924 71.3144 153.304 71.8371" fill="#263238"/>
<path d="M180.73 73.8036C183.15 69.6027 181.489 62.7057 177.209 60.477L162.583 54.3552L161.19 56.5497L143.026 84.816L153.047 99.75L160.62 90.5046C160.62 90.5046 166.326 93.0525 171.833 87.0333C174.578 84.0579 178.048 78.4662 180.73 73.8036Z" fill="#FFBE9D"/>
<path d="M176.21 77.463C176.065 77.6894 175.836 77.8497 175.574 77.9094C175.311 77.9691 175.036 77.9234 174.807 77.7822C174.691 77.7183 174.59 77.632 174.509 77.5284C174.428 77.4248 174.368 77.3061 174.334 77.1791C174.299 77.0522 174.29 76.9196 174.308 76.7892C174.325 76.6588 174.369 76.5333 174.436 76.4199C174.581 76.1937 174.809 76.0332 175.071 75.9725C175.334 75.9119 175.609 75.9558 175.84 76.095C175.955 76.1595 176.056 76.2463 176.137 76.3504C176.219 76.4545 176.278 76.5737 176.313 76.7011C176.347 76.8285 176.356 76.9616 176.339 77.0924C176.321 77.2232 176.277 77.3492 176.21 77.463Z" fill="#263238"/>
<path d="M177.66 75.867C177.477 75.9069 177.146 74.9949 176.222 74.385C175.297 73.7751 174.31 73.815 174.287 73.6098C174.287 73.5243 174.51 73.3932 174.949 73.3761C175.533 73.3639 176.107 73.531 176.593 73.8549C177.075 74.173 177.442 74.6362 177.643 75.1773C177.78 75.582 177.746 75.8499 177.66 75.867Z" fill="#263238"/>
<path d="M167.571 72.4299C167.425 72.6561 167.197 72.8166 166.935 72.8773C166.673 72.9379 166.397 72.894 166.167 72.7548C166.051 72.6903 165.95 72.6035 165.869 72.4994C165.788 72.3953 165.728 72.2761 165.693 72.1487C165.659 72.0213 165.65 71.8883 165.668 71.7574C165.685 71.6266 165.729 71.5006 165.796 71.3868C165.942 71.1616 166.171 71.0022 166.433 70.9426C166.695 70.883 166.97 70.9279 167.2 71.0676C167.315 71.1315 167.416 71.2178 167.497 71.3214C167.578 71.425 167.638 71.5437 167.673 71.6707C167.707 71.7976 167.716 71.9302 167.698 72.0606C167.681 72.191 167.637 72.3165 167.571 72.4299Z" fill="#263238"/>
<path d="M168.347 70.2354C168.164 70.281 167.833 69.3633 166.909 68.7534C165.984 68.1435 165.003 68.1834 164.974 67.9782C164.974 67.8984 165.202 67.7673 165.642 67.7445C166.225 67.7299 166.798 67.8994 167.28 68.229C167.768 68.539 168.143 68.9991 168.347 69.54C168.478 69.9561 168.438 70.2183 168.347 70.2354Z" fill="#263238"/>
<path d="M167.257 79.1217C167.844 79.293 168.407 79.5362 168.934 79.8456C169.186 79.9767 169.442 80.0793 169.591 79.9425C169.771 79.7113 169.879 79.4314 169.899 79.1388C170.053 78.4149 170.218 77.6625 170.395 76.8588C171.126 73.6497 171.828 71.0733 171.953 71.1018C172.079 71.1303 171.594 73.758 170.858 76.9671C170.675 77.7594 170.498 78.5118 170.327 79.2471C170.285 79.6311 170.109 79.9883 169.83 80.256C169.741 80.3172 169.64 80.3572 169.533 80.373C169.426 80.3888 169.317 80.38 169.214 80.3472C169.06 80.2928 168.913 80.2221 168.775 80.1363C168.225 79.8677 167.715 79.5264 167.257 79.1217Z" fill="#263238"/>
<path d="M160.62 90.5217C157.432 88.4788 154.877 85.5892 153.241 82.1769C153.241 82.1769 152.185 88.3215 159.302 92.1291L160.62 90.5217Z" fill="#EB996E"/>
<path d="M165.385 81.0996C165.357 80.7614 165.243 80.436 165.053 80.1546C164.863 79.8732 164.604 79.6451 164.301 79.4922C164.084 79.3757 163.846 79.3041 163.601 79.2816C163.356 79.259 163.108 79.2861 162.874 79.3611C162.649 79.4354 162.452 79.5759 162.308 79.7641C162.165 79.9522 162.081 80.1793 162.069 80.4156C162.107 80.6804 162.224 80.9279 162.404 81.126C162.584 81.3241 162.819 81.4638 163.079 81.5271C163.619 81.6602 164.179 81.6854 164.729 81.6012C164.882 81.5982 165.033 81.5653 165.174 81.5043C165.242 81.4758 165.301 81.4274 165.341 81.3654C165.382 81.3035 165.403 81.2307 165.402 81.1566" fill="#EB996E"/>
<path d="M164.112 77.9646C164.266 78.0558 163.599 79.059 163.987 80.3472C164.375 81.6354 165.51 82.2282 165.425 82.3707C165.339 82.5132 165.06 82.4106 164.597 82.1199C164.003 81.7413 163.564 81.1632 163.359 80.4897C163.16 79.8405 163.221 79.1394 163.53 78.5346C163.781 78.09 164.044 77.9133 164.112 77.9646Z" fill="#263238"/>
<path d="M170.829 67.1061C170.567 67.2999 169.728 66.5703 168.546 65.9661C167.365 65.3619 166.298 65.094 166.304 64.7691C166.304 64.6209 166.623 64.4841 167.137 64.4727C167.805 64.4867 168.461 64.6532 169.054 64.9595C169.648 65.2658 170.163 65.7037 170.561 66.2397C170.875 66.69 170.949 67.0149 170.829 67.1061Z" fill="#263238"/>
<path d="M179.098 72.96C178.796 73.0626 178.305 72.39 177.546 71.8998C176.787 71.4096 176.039 71.1075 176.034 70.7598C176.034 70.6116 176.279 70.4634 176.696 70.452C177.234 70.4679 177.756 70.6425 178.196 70.9538C178.636 71.2652 178.973 71.6994 179.167 72.2019C179.292 72.6237 179.235 72.903 179.098 72.96Z" fill="#263238"/>
<path d="M183.104 64.2276C182.917 64.9874 182.506 65.6733 181.923 66.1964C181.341 66.7195 180.614 67.0554 179.838 67.1605C179.062 67.2656 178.272 67.1351 177.571 66.7859C176.87 66.4367 176.291 65.8849 175.908 65.2023C175.954 65.5697 175.863 65.9409 175.652 66.2457C175.442 66.5504 175.127 66.7673 174.767 66.8553C174.034 67.0004 173.274 66.8531 172.649 66.4449C171.978 66.0508 171.4 65.5169 170.954 64.8795C170.508 64.2421 170.204 63.5163 170.064 62.7513C169.653 63.2199 169.138 63.5867 168.561 63.8231C167.984 64.0595 167.36 64.1589 166.737 64.1136C166.117 64.0574 165.518 63.857 164.989 63.5284C164.46 63.1998 164.015 62.7522 163.69 62.2212C163.843 62.9585 163.77 63.7246 163.481 64.42C163.192 65.1153 162.7 65.7077 162.069 66.12C161.43 66.5237 160.68 66.7166 159.925 66.6717C159.169 66.6267 158.448 66.3461 157.861 65.8694C157.274 65.3927 156.851 64.7441 156.653 64.0149C156.455 63.2857 156.491 62.5127 156.756 61.8051C156.413 61.2832 156.195 60.6894 156.118 60.0696C156.042 59.4499 156.109 58.8208 156.315 58.2312C156.52 57.6415 156.859 57.1071 157.305 56.6692C157.751 56.2314 158.291 55.9018 158.885 55.7061C158.636 55.3609 158.483 54.9561 158.441 54.5327C158.399 54.1094 158.469 53.6824 158.645 53.295C158.997 52.5161 159.548 51.8437 160.243 51.3456C161.041 50.6826 161.963 50.1857 162.956 49.8842C163.949 49.5827 164.992 49.4827 166.024 49.59C168.078 49.8921 169.99 51.4254 170.39 53.466C170.407 53.7002 170.497 53.9231 170.646 54.1044C170.781 54.1928 170.935 54.2473 171.095 54.2632C171.255 54.279 171.416 54.2559 171.565 54.1956C172.946 53.8707 174.419 53.5059 175.765 53.9448C176.577 54.2348 177.266 54.7901 177.722 55.5205C178.178 56.251 178.373 57.1138 178.276 57.969C179.988 57.1197 182.271 57.399 183.509 58.824C184.748 60.249 184.491 62.8482 182.83 63.7944" fill="#263238"/>
<path d="M159.216 65.3049C158.246 66.6236 157.093 67.7981 155.792 68.7933C155.221 69.2151 154.537 69.6198 153.886 69.3633C153.603 69.2227 153.372 68.9953 153.227 68.7143C153.082 68.4333 153.031 68.1135 153.081 67.8015C153.196 67.1766 153.462 66.5894 153.857 66.0915C155.17 64.2646 156.602 62.5261 158.143 60.8874" fill="#263238"/>
<path d="M157.036 65.3961C156.979 65.3049 154.44 61.9761 152.111 65.3961C149.783 68.8161 153.658 70.4178 153.732 70.3266C153.806 70.2354 157.036 65.3961 157.036 65.3961Z" fill="#FFBE9D"/>
<path d="M153.584 68.3031C153.584 68.3031 153.492 68.3031 153.361 68.3031C153.18 68.2677 153.021 68.1634 152.916 68.0124C152.793 67.7223 152.749 67.4048 152.789 67.0924C152.829 66.7799 152.952 66.4837 153.144 66.234C153.333 65.9377 153.586 65.6882 153.886 65.5044C153.991 65.4203 154.115 65.3628 154.247 65.337C154.379 65.3112 154.516 65.3178 154.645 65.3562C154.725 65.3845 154.792 65.4401 154.835 65.5131C154.878 65.5861 154.893 65.6718 154.879 65.7552C154.879 65.8806 154.793 65.9319 154.805 65.949C154.816 65.9661 154.919 65.949 154.987 65.7837C155.02 65.6856 155.02 65.5797 154.987 65.4816C154.966 65.4148 154.931 65.3532 154.885 65.3002C154.839 65.2473 154.782 65.2043 154.719 65.1738C154.562 65.1039 154.389 65.0766 154.217 65.0946C154.046 65.1126 153.883 65.1753 153.743 65.2764C153.398 65.4707 153.106 65.7467 152.893 66.0801C152.442 66.7812 152.351 67.659 152.745 68.1378C152.818 68.225 152.91 68.2951 153.013 68.3433C153.117 68.3915 153.23 68.4167 153.344 68.4171C153.509 68.4 153.589 68.3202 153.584 68.3031Z" fill="#EB996E"/>
<path d="M170.344 61.959C170.344 61.959 170.373 61.9989 170.43 62.0559C170.487 62.1129 170.589 62.2041 170.715 62.3124C171.083 62.6305 171.492 62.8988 171.93 63.1104C172.244 63.2642 172.576 63.3772 172.918 63.4467C173.356 63.5389 173.809 63.5298 174.244 63.4201C174.678 63.3105 175.081 63.1032 175.423 62.814C175.835 62.4638 176.105 61.9753 176.182 61.4403H176.011C176.432 62.5328 177.197 63.4591 178.191 64.0794C178.729 64.4196 179.324 64.6592 179.948 64.7862C180.276 64.8558 180.613 64.877 180.947 64.8489C181.297 64.8111 181.63 64.6791 181.911 64.467C182.225 64.2119 182.478 63.8908 182.653 63.5265C182.822 63.1823 182.965 62.8261 183.081 62.4606C183.209 62.1049 183.284 61.7323 183.304 61.3548C183.317 61.1646 183.289 60.9737 183.221 60.7955C183.153 60.6173 183.047 60.4561 182.91 60.3231L182.762 60.4599C183.227 61.0148 183.863 61.3997 184.571 61.5543C185.21 61.701 185.878 61.6674 186.5 61.4574C187.053 61.2651 187.536 60.9117 187.886 60.4428C188.183 60.0437 188.39 59.5846 188.491 59.0976C188.642 58.4115 188.572 57.6954 188.291 57.0513C188.195 56.8208 188.062 56.6072 187.898 56.4186C187.898 56.4186 188.052 56.6352 188.234 57.0741C188.479 57.7124 188.527 58.4092 188.371 59.0748C188.274 59.5377 188.079 59.9748 187.801 60.3573C187.458 60.7932 186.996 61.1201 186.471 61.2978C185.879 61.4916 185.245 61.5172 184.639 61.3719C183.968 61.2286 183.365 60.8631 182.927 60.3345L182.785 60.4713C182.898 60.5874 182.985 60.7263 183.04 60.8786C183.095 61.031 183.117 61.1933 183.104 61.3548C183.086 61.711 183.014 62.0625 182.893 62.3979C182.715 63.1245 182.333 63.7852 181.792 64.3017C181.531 64.4753 181.236 64.5906 180.927 64.6398C180.618 64.689 180.301 64.6709 180 64.5867C179.393 64.4655 178.813 64.2357 178.288 63.9084C177.329 63.3133 176.586 62.4261 176.171 61.3776L176.039 61.0356L175.999 61.4004C175.93 61.8917 175.685 62.3413 175.309 62.6658C174.967 62.9634 174.558 63.1728 174.116 63.2757C173.726 63.3551 173.325 63.3551 172.935 63.2757C172.602 63.2154 172.278 63.1139 171.97 62.9736C171.535 62.7716 171.123 62.5211 170.743 62.2269C170.487 62.0673 170.35 61.9533 170.344 61.959Z" fill="white"/>
<path d="M181.9 67.4538C181.9 67.4538 181.934 67.5564 182.054 67.7103C182.23 67.9272 182.447 68.1073 182.693 68.2404C183.063 68.4529 183.49 68.5464 183.914 68.5083C184.181 68.4823 184.427 68.3534 184.599 68.1492C184.697 68.035 184.759 67.895 184.778 67.7463C184.797 67.5976 184.773 67.4465 184.708 67.3113L184.536 67.431L184.582 67.488C184.892 67.8447 185.276 68.1291 185.708 68.3212C186.14 68.5132 186.609 68.6082 187.082 68.5995C187.367 68.5997 187.65 68.5535 187.921 68.4627C188.109 68.4 188.206 68.343 188.2 68.3316C187.824 68.4084 187.442 68.4504 187.059 68.457C186.613 68.4442 186.174 68.3394 185.77 68.1491C185.367 67.9588 185.007 67.6871 184.713 67.3512L184.668 67.2999L184.006 66.5361L184.497 67.4139C184.542 67.5131 184.558 67.6233 184.543 67.7314C184.528 67.8395 184.482 67.941 184.411 68.0238C184.267 68.1934 184.062 68.2998 183.84 68.3202C183.448 68.3624 183.052 68.2912 182.699 68.115C182.402 67.9349 182.132 67.7121 181.9 67.4538Z" fill="white"/>
<path d="M173.973 73.2393C173.973 73.2735 174.282 73.2393 174.761 73.2393C175.381 73.2771 175.984 73.4565 176.524 73.7637C177.059 74.0814 177.511 74.5208 177.843 75.0462C178.105 75.4509 178.202 75.7359 178.236 75.7245C178.209 75.4566 178.119 75.1988 177.974 74.9721C177.659 74.3975 177.194 73.9191 176.628 73.5878C176.062 73.2566 175.417 73.0849 174.761 73.0911C174.49 73.0776 174.22 73.1284 173.973 73.2393Z" fill="#EB996E"/>
<path d="M164.923 67.2144C165.134 67.2266 165.345 67.2266 165.556 67.2144C166.055 67.2451 166.539 67.3914 166.971 67.6419C167.403 67.8952 167.77 68.2443 168.044 68.6622C168.261 68.9814 168.347 69.2322 168.375 69.2322C168.365 69.012 168.294 68.799 168.17 68.6166C167.921 68.1418 167.543 67.7467 167.08 67.4766C166.617 67.2107 166.09 67.0748 165.556 67.0833C165.337 67.0693 165.118 67.1146 164.923 67.2144Z" fill="#EB996E"/>
<path d="M163.062 77.7708C163.062 77.7708 163.165 77.7708 163.302 77.7252C163.476 77.6836 163.658 77.6836 163.833 77.7252C164.249 77.8449 164.575 78.0615 164.609 77.9988C164.643 77.9361 164.375 77.6739 163.89 77.5257C163.679 77.464 163.452 77.4781 163.251 77.5656C163.097 77.6568 163.045 77.7537 163.062 77.7708Z" fill="#EB996E"/>
<path d="M162.069 77.8392C162.115 77.8791 162.355 77.6682 162.686 77.463C163.017 77.2578 163.302 77.121 163.256 77.064C163.211 77.007 162.897 77.064 162.543 77.2863C162.189 77.5086 162.069 77.805 162.069 77.8392Z" fill="#EB996E"/>
<path d="M150.736 67.83C150.467 67.7677 150.188 67.7677 149.92 67.83C149.176 67.9656 148.482 68.2939 147.905 68.7819C147.475 69.1555 147.134 69.621 146.908 70.1439C146.682 70.6668 146.576 71.2337 146.599 71.8029C146.628 72.505 146.859 73.1839 147.264 73.7588C147.668 74.3337 148.23 74.7806 148.881 75.0462C149.565 75.3238 150.32 75.3698 151.033 75.1773C151.684 75.0076 152.288 74.6896 152.796 74.2482C153.235 73.8858 153.588 73.4302 153.829 72.9146C154.07 72.3989 154.193 71.8361 154.188 71.2671C154.168 70.5038 153.888 69.77 153.395 69.1866C153.041 68.7819 152.767 68.6565 152.756 68.6736C152.745 68.6907 152.973 68.8731 153.27 69.2835C153.682 69.8625 153.902 70.5565 153.897 71.2671C153.882 71.7863 153.753 72.2959 153.521 72.7605C153.288 73.225 152.957 73.6335 152.551 73.9575C152.084 74.3827 151.511 74.6735 150.892 74.799C150.272 74.9244 149.631 74.8799 149.035 74.67C148.451 74.4336 147.945 74.0368 147.576 73.5254C147.208 73.0141 146.991 72.409 146.952 71.7801C146.926 71.2612 147.015 70.7428 147.212 70.262C147.409 69.7813 147.71 69.3498 148.094 68.9985C148.624 68.5174 149.262 68.1696 149.954 67.9839C150.451 67.8927 150.736 67.8756 150.736 67.83Z" fill="#455A64"/>
<path d="M90.8958 136.401C80.5211 144.438 78.946 157.2 78.2327 164.519C77.5194 171.838 71.8583 201.096 71.8583 201.096C71.8583 201.096 60.0056 219.479 55.7484 227.27C51.4913 235.062 43.0054 251.33 43.0054 251.33L57.2093 260.097C57.2093 260.097 82.7238 225.407 87.215 218.561C91.7061 211.715 114.607 154.082 114.607 154.082L90.8958 136.401Z" fill="#263238"/>
<path d="M124.656 155.365C125.37 156.733 144.207 203.154 143.717 207.805C143.226 212.456 119.749 260.108 119.749 260.108L102.378 252.749L120.234 213.18L120.725 207.742L104.09 176.278L109.471 153.068L124.656 155.365Z" fill="#263238"/>
<path d="M112.284 161.458C112.364 161.492 110.395 166.161 107.896 171.889C105.396 177.618 103.331 182.229 103.234 182.195C103.137 182.161 105.123 177.498 107.622 171.77C110.122 166.041 112.21 161.424 112.284 161.458Z" fill="#455A64"/>
<path d="M127.224 209.332C126.152 209.639 125.015 209.639 123.943 209.332C122.848 209.119 121.833 208.609 121.01 207.856C121.971 208.346 122.976 208.744 124.012 209.047C125.072 209.24 126.147 209.335 127.224 209.332Z" fill="#455A64"/>
<path d="M126.477 213.898C126.477 213.978 125.193 213.516 123.584 213.231C121.974 212.946 120.639 212.935 120.639 212.844C121.634 212.681 122.652 212.714 123.635 212.941C124.636 213.07 125.602 213.395 126.477 213.898Z" fill="#455A64"/>
<path d="M95.4782 145.099C95.4782 145.099 95.3698 145.219 95.1415 145.396C94.9133 145.572 94.5709 145.806 94.1258 146.08C91.7959 147.463 89.1584 148.247 86.4503 148.36C86.0436 148.384 85.6358 148.384 85.2291 148.36C84.938 148.36 84.7782 148.32 84.7839 148.297C84.7897 148.274 85.4174 148.251 86.4389 148.166C87.7632 148.045 89.0725 147.795 90.3479 147.419C91.6206 147.035 92.8518 146.525 94.023 145.897C94.4932 145.605 94.979 145.339 95.4782 145.099Z" fill="#455A64"/>
<path d="M156.443 97.7778L171.639 117.374L203.517 130.416L200.121 137.21L159.376 123.314L146.034 95.9937L156.443 97.7778Z" fill="#455A64"/>
<g opacity="0.2">
<path d="M156.443 97.7778L171.639 117.374L203.517 130.416L200.121 137.21L159.376 123.314L146.034 95.9937L156.443 97.7778Z" fill="black"/>
</g>
<path d="M141.657 86.1726C141.334 85.8612 141.147 85.4361 141.136 84.9884C141.124 84.5408 141.288 84.1064 141.594 83.7786L143.671 81.4587C143.803 81.2812 144 81.1626 144.219 81.1285C144.437 81.0943 144.661 81.1474 144.841 81.2763C147.734 83.3682 158.685 91.6731 158.662 94.0557C158.662 96.7461 153.994 99.4593 153.994 99.4593L141.657 86.1726Z" fill="#455A64"/>
<path d="M134.409 100.673C134.409 100.673 154.765 128.763 160.089 132.023C165.413 135.284 198.723 139.838 198.723 139.838L199.99 129.96L167.85 119.7C167.85 119.7 146.878 88.8288 146.342 87.9396C145.805 87.0504 141.668 83.7159 137.103 84.2973C132.537 84.8787 130.22 92.0778 131.795 95.6403C132.395 96.9741 134.409 100.673 134.409 100.673Z" fill="#455A64"/>
<path d="M141.788 84.3087C141.788 84.3087 135.933 81.795 130.312 87.0276C127.304 89.8377 99.7811 128.358 97.8351 130.918L89.9314 136.372C103.159 148.536 113.409 158.711 127.515 162.245L134.866 138.436L157.447 117.916L141.788 84.3087Z" fill="#455A64"/>
<path d="M132.212 97.7778C132.29 97.8576 132.359 97.9455 132.417 98.04C132.554 98.2452 132.731 98.5074 132.954 98.8209C133.41 99.5106 134.095 100.491 134.934 101.671C136.646 104.082 139.083 107.331 141.931 110.819C144.778 114.308 147.449 117.386 149.349 119.62C150.291 120.72 151.061 121.615 151.632 122.276L152.242 123.006C152.379 123.171 152.448 123.268 152.436 123.274C152.349 123.206 152.269 123.13 152.197 123.046L151.546 122.35L149.201 119.757C147.238 117.557 144.544 114.496 141.691 111.002C138.837 107.508 136.406 104.236 134.752 101.791C133.918 100.565 133.268 99.5619 132.845 98.8551C132.646 98.5245 132.48 98.2851 132.355 98.04C132.298 97.9582 132.25 97.8702 132.212 97.7778Z" fill="#263238"/>
<path d="M199.99 129.96L199.83 129.92L199.362 129.772L197.565 129.202L190.842 126.968L167.805 119.221H167.759L167.73 119.176C165.647 116.109 163.416 112.814 161.116 109.417L151.147 94.677L146.804 88.2417C146.489 87.7422 146.146 87.2607 145.777 86.7996C145.586 86.5927 145.378 86.402 145.155 86.2296C144.932 86.0529 144.738 85.8477 144.504 85.6938C143.608 85.0999 142.599 84.6957 141.54 84.506C140.481 84.3162 139.394 84.3451 138.347 84.5907C137.3 84.8364 136.314 85.2936 135.45 85.9342C134.586 86.5749 133.863 87.3854 133.325 88.3158C133.095 88.766 132.904 89.2351 132.754 89.718C132.632 90.0697 132.544 90.4324 132.492 90.801C132.417 91.3083 132.383 91.5591 132.36 91.7187C132.357 91.4093 132.382 91.1002 132.435 90.7953C132.472 90.4188 132.553 90.0478 132.674 89.6895C132.815 89.1945 133.007 88.7152 133.245 88.2588C133.948 87.0194 134.965 85.9871 136.195 85.2663C137.839 84.3118 139.762 83.9534 141.639 84.2517C142.721 84.4606 143.748 84.8873 144.658 85.5057C144.892 85.6841 145.117 85.8744 145.332 86.0757C145.564 86.2575 145.78 86.4597 145.977 86.6799C146.356 87.1479 146.708 87.637 147.032 88.1448L151.398 94.5687L161.385 109.292L167.993 119.056L167.919 119.005L190.928 126.848L197.616 129.156L199.402 129.789L199.865 129.96C199.944 129.96 199.996 129.96 199.99 129.96Z" fill="#263238"/>
<path d="M146.034 117.374C145.952 117.516 145.853 117.647 145.737 117.762C145.531 118.001 145.218 118.332 144.812 118.708C142.663 120.705 140.069 122.162 137.245 122.96C136.819 123.085 136.387 123.186 135.95 123.262C135.791 123.303 135.628 123.32 135.465 123.314C135.465 123.262 136.127 123.109 137.177 122.744C139.923 121.849 142.468 120.428 144.67 118.56C145.52 117.83 145.994 117.34 146.034 117.374Z" fill="#263238"/>
<path d="M132.92 134.355C132.593 134.427 132.261 134.473 131.927 134.491C131.288 134.566 130.357 134.623 129.205 134.662C123.184 134.832 117.185 133.879 111.514 131.852C110.43 131.459 109.562 131.117 108.974 130.849C108.664 130.726 108.363 130.581 108.073 130.416C108.398 130.496 108.715 130.604 109.02 130.741C109.591 130.975 110.492 131.311 111.582 131.653C117.258 133.556 123.212 134.502 129.199 134.452C130.34 134.452 131.27 134.412 131.915 134.377C132.249 134.346 132.585 134.338 132.92 134.355Z" fill="#263238"/>
<path d="M133.701 130.906C133.189 131.103 132.654 131.235 132.109 131.3C129.49 131.732 126.81 131.625 124.234 130.986C123.697 130.88 123.175 130.705 122.682 130.467C123.222 130.542 123.757 130.647 124.285 130.781C125.565 131.037 126.862 131.193 128.166 131.248C129.473 131.295 130.782 131.242 132.081 131.089C132.617 130.997 133.158 130.936 133.701 130.906Z" fill="#263238"/>
<g opacity="0.2">
<path d="M135.756 103.045L144.887 118.509C144.887 118.509 139.751 122.168 137.622 122.738C140.511 121.917 143.327 120.863 146.045 119.586L150.856 121.763L135.756 103.045Z" fill="black"/>
</g>
<g opacity="0.2">
<path d="M130.232 134.457C127.037 136.114 123.404 136.734 119.84 136.23C116.396 135.799 113.203 134.206 110.789 131.716C110.789 131.716 118.242 133.739 121.101 134.058C123.96 134.378 130.232 134.457 130.232 134.457Z" fill="black"/>
</g>
<path d="M99.9009 137.94C98.9031 138.248 97.9453 138.673 97.0476 139.205C96.2806 139.717 95.5956 140.341 95.016 141.058L94.9019 140.972C95.0731 140.784 95.1701 140.687 95.1929 140.705C95.2157 140.722 95.1529 140.841 95.016 141.058L94.9019 140.978C95.4011 140.163 96.078 139.472 96.8821 138.955C97.7633 138.321 98.8154 137.967 99.9009 137.94Z" fill="#263238"/>
<path d="M107.422 144.033C106.389 145.753 104.889 147.147 103.097 148.052C103.045 147.978 104.152 147.237 105.339 146.125C106.526 145.014 107.348 143.976 107.422 144.033Z" fill="#263238"/>
<path d="M115.366 150.708C114.966 151.674 114.385 152.554 113.654 153.302C113.005 154.113 112.209 154.795 111.309 155.314C111.251 155.24 112.324 154.373 113.431 153.102C114.539 151.831 115.275 150.662 115.366 150.708Z" fill="#263238"/>
<path d="M123.715 154.043C123.565 156.097 122.684 158.029 121.232 159.492C121.164 159.435 122.014 158.352 122.693 156.864C123.372 155.376 123.624 154.025 123.715 154.043Z" fill="#263238"/>
<path d="M143.808 85.0725C143.808 85.0725 143.837 84.8331 144.025 84.5025C144.275 84.0761 144.621 83.7133 145.035 83.4423C145.45 83.1801 145.905 82.9875 146.382 82.8723C146.747 82.7868 146.952 82.7697 146.981 82.8096C147.009 82.8495 146.113 83.1174 145.2 83.6817C144.287 84.246 143.871 85.1238 143.808 85.0725Z" fill="#263238"/>
<path d="M147.768 88.9884C147.984 88.3053 148.409 87.7072 148.984 87.2784C149.489 86.7768 150.14 86.4476 150.844 86.3379C150.879 86.4177 150.017 86.7711 149.178 87.4779C148.339 88.1847 147.848 89.0283 147.768 88.9884Z" fill="#263238"/>
<path d="M155.615 90.63C155.248 91.5401 154.678 92.3549 153.949 93.0126C153.289 93.7382 152.471 94.3019 151.558 94.6599C151.512 94.5801 152.625 93.9189 153.743 92.8017C154.862 91.6845 155.535 90.5901 155.615 90.63Z" fill="#263238"/>
<path d="M199.556 130.405L204.167 124.089L207.591 123.342L214.97 121.843C214.97 121.843 215.826 122.351 214.788 123.644L214.188 124.129L217.042 124.055C217.063 124.497 216.949 124.935 216.716 125.312C216.483 125.689 216.141 125.986 215.735 126.164L210.918 127.56L209.104 128.13C209.104 128.13 212.899 128.393 214.24 127.919C215.042 127.634 215.888 127.495 216.739 127.509C216.739 127.509 217.532 128.313 216.551 129.367C215.569 130.422 212.682 130.735 211.986 130.906C210.95 131.035 209.908 131.1 208.864 131.1C209.658 131.546 210.561 131.763 211.472 131.727C213.115 131.727 214.81 131.761 214.81 131.761C214.81 131.761 214.89 133.323 213.892 133.625C212.893 133.927 208.465 133.847 208.465 133.847L207.238 134.52C207.238 134.52 203.979 137.94 202.832 138.442C201.685 138.943 198.7 139.815 198.7 139.815L199.556 130.405Z" fill="#FFBE9D"/>
<path d="M214.571 124.214C214.227 124.438 213.852 124.609 213.458 124.722C212.533 125.055 211.577 125.297 210.605 125.446C209.635 125.597 208.653 125.658 207.671 125.628C207.263 125.644 206.855 125.596 206.461 125.486C206.461 125.394 208.316 125.486 210.559 125.155C212.802 124.824 214.531 124.129 214.571 124.214Z" fill="#EB996E"/>
<path d="M273.812 245.898C273.812 245.898 261.668 231.939 257.08 217.968C252.491 203.997 254.677 205.61 254.677 205.61C254.677 205.61 260.863 219.171 265.56 225.726C270.256 232.281 278.622 241.885 278.622 241.885L273.812 245.898Z" fill="#455A64"/>
<path d="M276.231 207.793C276.151 207.648 276.022 207.536 275.867 207.477C275.712 207.417 275.541 207.414 275.383 207.467C275.226 207.521 275.093 207.628 275.007 207.77C274.921 207.912 274.888 208.08 274.913 208.244C275.655 213.146 277.253 224.654 277.196 232.115C277.116 241.805 277.196 245.562 277.196 245.562H282.246C282.246 245.562 281.339 225.515 280.197 219.404C279.41 215.118 277.709 210.364 276.231 207.793Z" fill="#455A64"/>
<path d="M278.988 243.96C281.105 239.165 282.507 234.085 283.148 228.883C283.564 225.315 282.817 220.493 281.715 214.063C281.287 211.703 281.073 209.309 281.076 206.91C281.068 206.636 281.154 206.367 281.32 206.148C281.485 205.929 281.721 205.773 281.988 205.707C282.254 205.64 282.536 205.667 282.785 205.782C283.034 205.897 283.237 206.094 283.359 206.34C283.969 207.429 285.733 211.139 286.178 213.471C287.405 219.826 288.792 223.001 287.73 229.032C286.669 235.062 282.754 244.348 282.754 244.348L278.988 243.96Z" fill="#455A64"/>
<path d="M283.536 244.336C283.536 244.336 296.872 215.717 297.802 211.47C298.733 207.224 301.866 197.442 302.236 197.995C302.607 198.548 303.161 203.695 300.758 209.623C298.356 215.551 288.095 245.208 288.095 245.208H283.53" fill="#455A64"/>
<path d="M277.527 243.059C277.394 242.984 277.268 242.899 277.15 242.803C276.916 242.62 276.579 242.37 276.117 242.016C275.233 241.315 273.983 240.261 272.533 238.853C268.78 235.161 265.528 230.993 262.86 226.455C260.204 221.915 257.993 217.13 256.258 212.165C255.59 210.267 255.117 208.711 254.78 207.605C254.62 207.064 254.506 206.642 254.426 206.357C254.38 206.214 254.346 206.067 254.323 205.918C254.389 206.054 254.443 206.195 254.483 206.34C254.58 206.648 254.717 207.058 254.888 207.571C255.236 208.643 255.756 210.187 256.446 212.074C258.23 217.005 260.459 221.763 263.106 226.29C265.763 230.809 268.978 234.976 272.676 238.693C274.103 240.112 275.324 241.19 276.191 241.914C276.614 242.278 276.962 242.546 277.184 242.74C277.308 242.835 277.423 242.942 277.527 243.059Z" fill="#263238"/>
<path d="M278.982 229.328C278.922 229.052 278.882 228.772 278.862 228.49C278.799 227.92 278.719 227.122 278.617 226.21C278.405 224.272 278.08 221.605 277.606 218.669C277.133 215.734 276.608 213.095 276.203 211.191C276.003 210.279 275.843 209.521 275.718 208.911C275.641 208.637 275.59 208.356 275.564 208.073C275.674 208.334 275.76 208.605 275.82 208.882C275.974 209.407 276.168 210.17 276.391 211.122C276.847 213.015 277.407 215.654 277.88 218.595C278.354 221.536 278.651 224.221 278.811 226.165C278.896 227.134 278.948 227.92 278.97 228.445C279.004 228.738 279.008 229.034 278.982 229.328Z" fill="#263238"/>
<path d="M282.109 206.106C282.171 206.221 282.223 206.341 282.263 206.465L282.663 207.531C282.84 207.993 283.045 208.563 283.233 209.241C283.422 209.92 283.684 210.672 283.878 211.521C283.987 211.949 284.095 212.399 284.209 212.867C284.323 213.334 284.403 213.83 284.5 214.337C284.723 215.357 284.854 216.458 285.019 217.615C285.303 220.135 285.408 222.672 285.333 225.207C285.227 227.738 284.939 230.258 284.472 232.748C284.232 233.888 284.015 234.983 283.724 235.98C283.587 236.482 283.473 236.966 283.33 237.428L282.902 238.745C282.645 239.594 282.332 240.329 282.092 240.985C281.852 241.64 281.607 242.199 281.396 242.643L280.922 243.675C280.875 243.799 280.814 243.918 280.739 244.028C280.774 243.9 280.818 243.774 280.871 243.652L281.299 242.603C281.487 242.147 281.715 241.589 281.944 240.928C282.172 240.266 282.469 239.531 282.708 238.682L283.119 237.365C283.256 236.909 283.365 236.419 283.496 235.917C283.775 234.926 283.981 233.837 284.215 232.703C285.144 227.739 285.327 222.666 284.757 217.649C284.603 216.509 284.477 215.403 284.272 214.388C284.175 213.881 284.101 213.385 283.992 212.918C283.884 212.45 283.781 212.006 283.684 211.573C283.501 210.712 283.262 209.954 283.079 209.293C282.897 208.631 282.714 208.044 282.554 207.583C282.394 207.121 282.292 206.779 282.206 206.505C282.158 206.377 282.125 206.243 282.109 206.106Z" fill="#263238"/>
<path d="M302.077 198.571C302.085 198.612 302.085 198.655 302.077 198.696L302.014 199.073C301.957 199.397 301.883 199.882 301.751 200.492C301.495 201.723 301.067 203.496 300.399 205.622C299.731 207.748 298.824 210.296 297.745 213.066C296.667 215.836 295.417 218.857 294.236 222.066C293.054 225.275 292.107 228.41 291.234 231.249C290.361 234.088 289.556 236.647 288.763 238.756C288.154 240.424 287.45 242.057 286.657 243.647C286.389 244.217 286.138 244.638 285.984 244.929L285.796 245.254C285.776 245.293 285.751 245.33 285.721 245.362C285.734 245.32 285.751 245.28 285.773 245.243C285.813 245.151 285.87 245.037 285.933 244.901C286.075 244.604 286.303 244.171 286.56 243.601C287.097 242.461 287.821 240.797 288.575 238.682C289.328 236.567 290.138 234.019 290.983 231.175C291.828 228.331 292.763 225.19 293.968 221.969C295.172 218.749 296.41 215.734 297.5 212.969C298.59 210.205 299.52 207.702 300.205 205.559C300.89 203.416 301.346 201.666 301.643 200.429C301.791 199.819 301.883 199.34 301.957 199.021C301.991 198.873 302.02 198.753 302.048 198.651C302.056 198.624 302.066 198.597 302.077 198.571Z" fill="#263238"/>
<path d="M260.966 192.25C260.785 192.065 260.546 191.947 260.289 191.916C260.031 191.884 259.771 191.941 259.551 192.077C259.33 192.213 259.163 192.42 259.076 192.664C258.989 192.907 258.987 193.173 259.071 193.418C259.53 194.89 260.091 196.328 260.749 197.722C262.581 201.609 267.968 215.574 270.485 223.241C273.001 230.907 276.556 245.208 276.556 245.208L281.944 244.336C281.944 244.336 277.019 220.835 272.208 212.371C268.339 205.565 264.475 195.732 260.966 192.25Z" fill="#455A64"/>
<path d="M271.963 228.034C272.075 228.239 272.167 228.455 272.237 228.678C272.396 229.1 272.613 229.716 272.859 230.485C273.355 232.018 273.96 234.162 274.571 236.539C275.181 238.916 275.712 241.099 276.043 242.655C276.203 243.396 276.34 244.023 276.448 244.519C276.513 244.743 276.549 244.975 276.557 245.208C276.463 244.995 276.391 244.774 276.34 244.547L275.849 242.7L274.297 236.607C273.686 234.23 273.11 232.087 272.665 230.542L272.134 228.712C272.048 228.495 271.99 228.267 271.963 228.034Z" fill="#263238"/>
<path d="M279.261 244.775C279.248 244.729 279.238 244.681 279.233 244.633C279.233 244.519 279.199 244.382 279.17 244.205C279.113 243.835 279.062 243.282 278.953 242.581C278.754 241.167 278.383 239.132 277.812 236.647C277.122 233.743 276.28 230.878 275.29 228.063C274.188 224.876 272.801 221.434 271.232 217.871C268.065 210.758 264.903 204.448 262.826 199.779C261.776 197.454 260.96 195.55 260.424 194.228C260.15 193.566 259.956 193.048 259.819 192.7C259.762 192.535 259.71 192.404 259.67 192.301C259.648 192.256 259.635 192.208 259.63 192.158C259.66 192.198 259.683 192.242 259.699 192.29L259.876 192.677C260.03 193.042 260.253 193.544 260.526 194.188C261.097 195.493 261.936 197.38 263.009 199.7C265.132 204.339 268.322 210.632 271.495 217.757C273.064 221.325 274.445 224.779 275.541 227.977C276.523 230.806 277.346 233.687 278.006 236.607C278.577 239.098 278.885 241.167 279.05 242.563C279.147 243.27 279.182 243.829 279.216 244.199L279.25 244.627C279.261 244.675 279.265 244.725 279.261 244.775Z" fill="#263238"/>
<path d="M281.944 244.336C281.855 244.042 281.794 243.741 281.761 243.436C281.653 242.803 281.51 241.971 281.339 240.962C280.968 238.881 280.403 236.014 279.587 232.891C278.771 229.767 277.875 226.985 277.178 224.985C276.836 224.021 276.551 223.229 276.334 222.625C276.216 222.34 276.121 222.047 276.049 221.747C276.199 222.016 276.328 222.296 276.437 222.585C276.671 223.155 277.007 223.924 277.367 224.916C278.338 227.504 279.172 230.141 279.866 232.817C280.56 235.492 281.118 238.201 281.538 240.933C281.692 241.982 281.812 242.831 281.869 243.418C281.915 243.722 281.94 244.029 281.944 244.336Z" fill="#263238"/>
<path d="M292.986 243.567H271.98V269.131H292.986V243.567Z" fill="#FF725E"/>
<path d="M292.986 243.567H271.98V269.131H292.986V243.567Z" fill="#6F918A"/>
<path d="M286.286 243.567H267.648V269.131H286.286V243.567Z" fill="#6FC78A"/>
</svg>
