<svg width="426" height="257" viewBox="0 0 426 257" fill="none" xmlns="http://www.w3.org/2000/svg">
<path d="M55.9577 179.919C60.8264 176.845 62.6011 172.867 63.4059 167.16C63.7896 164.299 63.5547 161.388 62.7171 158.624C61.8794 155.861 60.4585 153.31 58.5504 151.142C55.3573 147.554 50.8448 145.093 48.5358 140.884C46.0816 136.391 46.4445 130.447 42.9149 126.746C40.4872 124.206 36.8059 123.381 33.7976 121.56C31.3434 120.076 29.3643 117.939 27.141 116.124C24.9177 114.31 22.2458 112.773 19.3761 112.826C15.0549 112.951 11.499 117.028 11.0965 121.336C10.6941 125.644 12.9108 129.913 16.0774 132.842C18.3733 134.979 21.2431 136.668 22.6747 139.439C25.3795 144.677 21.9754 151.624 24.9045 156.737C27.042 160.477 32.1615 162.457 32.7156 166.732C32.9136 168.302 32.399 169.872 32.3396 171.455C32.1417 176.403 36.5816 180.599 41.4108 181.701C46.2399 182.802 51.2736 181.509 55.9247 179.873" fill="#F5F5F5"/>
<path d="M27.9128 130.671C28.0536 130.888 28.2173 131.09 28.401 131.272L29.892 132.921C30.5517 133.62 31.35 134.491 32.2076 135.56C33.0653 136.628 34.1208 137.776 35.1302 139.175L36.7597 141.326C37.3271 142.078 37.8483 142.902 38.4288 143.734C39.6031 145.376 40.6983 147.243 41.8924 149.183C44.3568 153.453 46.5194 157.891 48.3642 162.463C50.144 167.066 51.5968 171.788 52.7118 176.594C53.167 178.824 53.642 180.935 53.9059 182.941C54.051 183.937 54.2292 184.92 54.3347 185.837C54.4403 186.754 54.5194 187.665 54.6118 188.522C54.8295 190.231 54.8559 191.821 54.9417 193.14C55.0274 194.46 55.0538 195.687 55.0538 196.65C55.0538 197.613 55.0538 198.299 55.0868 198.867C55.0776 199.127 55.0953 199.388 55.1396 199.645C55.1856 199.391 55.2077 199.132 55.2056 198.873C55.2056 198.306 55.2517 197.554 55.2847 196.65C55.3177 195.746 55.3441 194.499 55.2847 193.127C55.2253 191.755 55.2319 190.191 55.0406 188.469C54.9615 187.612 54.8823 186.708 54.7965 185.771C54.7108 184.834 54.5392 183.858 54.4007 182.855C54.1566 180.83 53.7014 178.706 53.2528 176.463C52.1641 171.619 50.7175 166.862 48.925 162.232C47.0735 157.628 44.8838 153.167 42.374 148.886C41.1601 146.947 40.0451 145.08 38.8444 143.437C38.2573 142.606 37.7163 141.781 37.1424 141.035L35.4733 138.898C34.4375 137.513 33.3687 136.365 32.4715 135.322C31.5743 134.28 30.7628 133.429 30.0767 132.749L28.5 131.179C28.3214 130.991 28.1247 130.821 27.9128 130.671Z" fill="#E0E0E0"/>
<path d="M422.387 68.9344C422.387 68.9344 416.186 64.8309 408.632 79.6681C401.078 94.5052 398.208 103.029 398.208 103.029C398.208 103.029 396.229 106.136 394.072 104.104C391.915 102.072 389.012 96.3063 385.383 97.3486C381.623 98.424 380.383 102.626 381.102 108.795C381.821 114.963 382.896 128.547 382.989 129.774C383.081 131.001 382.388 132.756 380.713 131.601C379.037 130.447 369.392 119.726 364.576 124.595C359.76 129.464 364.576 146.366 365.071 148.193C365.565 150.021 365.196 150.832 364.318 151.294C363.441 151.756 360.538 147.844 357.668 144.901C354.799 141.959 350.959 139.05 348.432 142.098C345.906 145.146 345.074 157.799 357.114 178.382L363.322 187.539L374.412 186.926C398.076 184.161 407.682 175.889 408.586 172.023C409.49 168.157 404.852 166.837 400.775 166.323C396.698 165.808 391.829 165.848 391.664 164.865C391.499 163.882 391.915 163.123 393.689 162.397C395.464 161.672 411.838 155.365 412.821 148.583C413.804 141.801 399.435 140.56 397.509 139.914C395.583 139.267 396.579 137.651 397.601 136.998C398.624 136.345 410.136 129.015 415.48 125.868C420.824 122.722 423.449 119.205 422.044 115.557C420.685 112.034 414.325 113.169 411.416 112.687C408.507 112.206 409.787 108.729 409.787 108.729C409.787 108.729 414.893 101.287 422.176 86.2983C429.459 71.3094 422.268 68.8222 422.268 68.8222" fill="#EBEBEB"/>
<path d="M415.599 82.208L415.46 82.5247L415.025 83.4549L413.329 87.0042C411.851 90.0917 409.688 94.5382 406.983 100.021C401.586 110.992 394.006 126.086 385.581 142.731C377.157 159.376 369.537 174.45 364.088 185.395L357.642 198.359L355.887 201.882L355.425 202.792C355.374 202.898 355.317 203.002 355.254 203.102L355.392 202.779L355.828 201.855L357.523 198.299C359.001 195.218 361.165 190.772 363.87 185.283C369.266 174.312 376.847 159.217 385.278 142.573C393.709 125.928 401.316 110.86 406.765 99.915L413.191 86.9514L414.946 83.4219L415.407 82.5115C415.533 82.307 415.599 82.208 415.599 82.208Z" fill="#E0E0E0"/>
<path d="M389.15 105.602C389.275 105.831 389.373 106.075 389.441 106.327C389.606 106.816 389.817 107.528 390.067 108.412C390.569 110.18 391.196 112.641 391.842 115.372L393.472 122.359C393.669 123.197 393.841 123.902 393.98 124.47C394.061 124.725 394.112 124.988 394.131 125.255C394.012 125.016 393.917 124.767 393.848 124.509C393.689 124.021 393.478 123.302 393.234 122.418C392.752 120.643 392.152 118.176 391.506 115.451C390.859 112.727 390.279 110.339 389.83 108.478L389.315 106.367C389.235 106.118 389.18 105.862 389.15 105.602Z" fill="#E0E0E0"/>
<path d="M395.134 125.459C395.134 125.367 400.122 123.85 406.349 122.062C412.577 120.274 417.617 118.902 417.644 118.994C417.67 119.086 412.656 120.604 406.429 122.392C400.201 124.18 395.161 125.565 395.134 125.459Z" fill="#E0E0E0"/>
<path d="M381.042 150.45C381.311 150.407 381.583 150.394 381.854 150.41H384.077C385.951 150.41 388.537 150.41 391.394 150.291C394.25 150.173 396.83 150.008 398.697 149.856L400.913 149.684C401.185 149.653 401.46 149.653 401.731 149.684C401.47 149.768 401.2 149.821 400.926 149.843C400.405 149.922 399.653 150.021 398.723 150.126C396.856 150.338 394.27 150.562 391.407 150.661C388.543 150.76 385.951 150.74 384.071 150.661C383.134 150.628 382.375 150.588 381.854 150.549C381.58 150.549 381.308 150.515 381.042 150.45Z" fill="#E0E0E0"/>
<path d="M371.668 133.666C371.843 133.851 371.989 134.06 372.103 134.286L373.172 136.035C374.063 137.519 375.276 139.584 376.596 141.88C377.915 144.176 379.09 146.254 379.927 147.771L380.897 149.579C381.028 149.787 381.137 150.008 381.22 150.239C381.048 150.053 380.901 149.844 380.785 149.618L379.716 147.89C378.826 146.406 377.612 144.341 376.292 142.051C374.973 139.762 373.799 137.671 372.961 136.153L371.991 134.352C371.86 134.136 371.751 133.906 371.668 133.666Z" fill="#E0E0E0"/>
<path d="M356.455 154.131C356.657 154.383 356.84 154.65 357.002 154.929C357.358 155.516 357.82 156.249 358.381 157.172C359.529 159.066 361.106 161.705 362.821 164.627C364.536 167.55 366.073 170.202 367.175 172.128C367.696 173.058 368.125 173.83 368.462 174.424C368.631 174.698 368.775 174.987 368.89 175.288C368.684 175.039 368.501 174.772 368.343 174.49L366.964 172.253C365.816 170.353 364.239 167.721 362.524 164.799C360.809 161.876 359.272 159.224 358.17 157.291L356.883 155.002C356.713 154.726 356.569 154.434 356.455 154.131Z" fill="#E0E0E0"/>
<path d="M368.712 174.701C369.052 174.646 369.397 174.622 369.741 174.629L372.558 174.536C374.933 174.457 378.212 174.332 381.834 174.094C385.456 173.857 388.728 173.566 391.07 173.335L393.874 173.058C394.217 173.008 394.563 172.988 394.91 172.999C394.578 173.094 394.238 173.158 393.894 173.19C393.234 173.296 392.277 173.428 391.097 173.573C388.735 173.87 385.463 174.233 381.86 174.437C378.258 174.642 374.947 174.76 372.572 174.78C371.377 174.78 370.414 174.78 369.748 174.78C369.401 174.788 369.054 174.761 368.712 174.701Z" fill="#E0E0E0"/>
<path d="M422.031 256.197C422.031 256.296 327.546 256.375 211.025 256.375C94.5052 256.375 0 256.296 0 256.197C0 256.098 94.4656 256.025 211.025 256.025C327.585 256.025 422.031 256.084 422.031 256.197Z" fill="#263238"/>
<path d="M19.4222 210.188C20.6458 210.282 21.8377 210.623 22.9261 211.189C24.0145 211.756 24.977 212.538 25.7556 213.486C27.305 215.397 28.3951 217.638 28.942 220.037C30.1229 224.655 29.3247 230.032 27.9788 234.551C23.0375 232.737 20.0226 227.419 18.6636 224.655C16.5195 220.242 15.3188 210.959 19.4222 210.174" fill="#6FC78A"/>
<path d="M35.0708 240.205C34.3351 239.044 33.9201 237.709 33.868 236.336C33.8158 234.963 34.1284 233.6 34.7739 232.387C35.4368 231.186 36.3325 230.129 37.4086 229.279C38.4848 228.428 39.7197 227.8 41.0413 227.433C42.2552 227.07 43.6802 226.925 44.7094 227.637C45.1811 227.998 45.5466 228.48 45.7672 229.032C45.9879 229.583 46.0554 230.184 45.9628 230.771C45.7701 231.945 45.2693 233.047 44.5115 233.964C42.0705 237.21 39.1149 239.901 35.0708 240.205Z" fill="#6FC78A"/>
<path d="M35.4799 255.51C35.3855 255.2 35.3149 254.882 35.2688 254.56C35.1434 253.901 34.9785 253.004 34.7806 251.922C34.4111 249.725 33.8174 246.598 34.3122 243.154C34.6741 240.209 35.8125 237.413 37.6108 235.052C38.1655 234.351 38.8036 233.72 39.5108 233.172C39.6983 233.018 39.8968 232.876 40.1045 232.75C40.2453 232.658 40.3178 232.618 40.3222 232.631C39.3974 233.402 38.5531 234.264 37.8021 235.204C36.0884 237.56 34.997 240.31 34.6288 243.2C34.134 246.578 34.6816 249.679 34.9917 251.889C35.1632 252.997 35.2951 253.868 35.3743 254.527C35.446 254.85 35.4814 255.18 35.4799 255.51Z" fill="#263238"/>
<path d="M20.9594 217.161C21.0391 217.281 21.1055 217.409 21.1573 217.543C21.2893 217.827 21.4542 218.203 21.6587 218.652C22.0875 219.615 22.6945 221.02 23.4268 222.762C24.8914 226.239 26.8441 231.081 28.8827 236.471C30.9212 241.861 32.6563 246.789 33.857 250.365C34.4639 252.159 34.9389 253.61 35.2556 254.62L35.6118 255.781C35.6625 255.912 35.6958 256.05 35.7108 256.19C35.6433 256.066 35.5881 255.936 35.5459 255.801C35.4337 255.51 35.2952 255.141 35.1237 254.659C34.7608 253.624 34.2528 252.199 33.6327 250.444C32.366 246.888 30.598 241.98 28.5594 236.59C26.5209 231.2 24.6143 226.397 23.2025 222.861L21.5334 218.705C21.3552 218.243 21.2101 217.867 21.0914 217.576C21.0337 217.443 20.9895 217.303 20.9594 217.161Z" fill="#263238"/>
<path d="M29.6809 245.338C28.2138 242.841 26.1724 240.731 23.7262 239.182C21.2799 237.633 18.4994 236.69 15.6156 236.431C14.151 236.313 12.3896 236.543 11.7233 237.85C11.0569 239.156 11.9212 240.733 12.9108 241.808C15.0151 244.049 17.7358 245.616 20.7297 246.312C23.7236 247.008 26.8567 246.802 29.7337 245.72" fill="#6FC78A"/>
<path d="M17.8191 240.37C18.1256 240.357 18.4325 240.373 18.7361 240.416C19.0948 240.438 19.4517 240.482 19.8049 240.548C20.2758 240.615 20.7427 240.707 21.2035 240.825C21.768 240.953 22.3252 241.112 22.8726 241.3C23.5031 241.508 24.122 241.751 24.7264 242.026C26.1138 242.662 27.4241 243.454 28.632 244.388C29.8258 245.338 30.9061 246.422 31.8514 247.62C32.2585 248.148 32.6352 248.699 32.9796 249.269C33.2987 249.765 33.5894 250.278 33.8504 250.807C34.0654 251.235 34.2548 251.675 34.4177 252.126C34.5622 252.455 34.6813 252.795 34.774 253.142C34.8828 253.43 34.9602 253.728 35.0049 254.033C34.9323 254.033 34.5893 252.786 33.6327 250.925C33.3718 250.415 33.0833 249.92 32.7684 249.441C32.4171 248.89 32.0384 248.357 31.6337 247.844C30.6936 246.677 29.6272 245.617 28.4539 244.684C27.2671 243.767 25.9841 242.982 24.6275 242.342C24.0263 242.051 23.4097 241.794 22.7802 241.571C22.2063 241.346 21.6521 241.201 21.1441 241.056C19.1188 240.528 17.8059 240.449 17.8191 240.37Z" fill="#263238"/>
<path d="M351.909 0H61.8622C59.4616 0 57.1593 0.953625 55.4619 2.65109C53.7644 4.34856 52.8108 6.65081 52.8108 9.05139V213.922C52.8108 216.322 53.7644 218.624 55.4619 220.322C57.1593 222.019 59.4616 222.973 61.8622 222.973H173.184C173.184 222.973 180.263 244.869 158.314 256.197H262.398C262.398 256.197 237.619 247.706 243.985 222.973H351.909C354.31 222.973 356.612 222.019 358.309 220.322C360.007 218.624 360.961 216.322 360.961 213.922V9.05139C360.961 6.65081 360.007 4.34856 358.309 2.65109C356.612 0.953625 354.31 0 351.909 0Z" fill="#263238"/>
<path d="M210.755 201.426C214.713 207.067 208.525 213.242 202.884 209.297C202.697 209.163 202.534 208.998 202.403 208.809C198.444 203.175 204.633 197.006 210.273 200.945C210.462 201.074 210.625 201.238 210.755 201.426Z" fill="#455A64"/>
<path d="M351.658 12.284H61.5125C60.3211 12.284 59.3552 13.2499 59.3552 14.4413V184.788C59.3552 185.98 60.3211 186.945 61.5125 186.945H351.658C352.85 186.945 353.816 185.98 353.816 184.788V14.4413C353.816 13.2499 352.85 12.284 351.658 12.284Z" fill="#E0E0E0"/>
<path d="M353.816 25.076H59.3552V186.939H353.816V25.076Z" fill="white"/>
<path d="M83.5011 19.0264C83.5024 19.4927 83.3652 19.949 83.1069 20.3373C82.8486 20.7257 82.4808 21.0285 82.0502 21.2076C81.6196 21.3867 81.1455 21.4339 80.688 21.3432C80.2305 21.2526 79.8103 21.0281 79.4805 20.6983C79.1507 20.3686 78.9263 19.9483 78.8356 19.4908C78.7449 19.0333 78.7921 18.5592 78.9712 18.1286C79.1503 17.698 79.4532 17.3302 79.8415 17.0719C80.2298 16.8136 80.6861 16.6765 81.1524 16.6778C81.7753 16.6778 82.3727 16.9252 82.8132 17.3657C83.2536 17.8061 83.5011 18.4035 83.5011 19.0264Z" fill="#455A64"/>
<path d="M69.2511 19.0264C69.2524 19.4925 69.1153 19.9485 68.8574 20.3366C68.5994 20.7248 68.232 21.0277 67.8017 21.207C67.3715 21.3863 66.8977 21.4339 66.4404 21.3437C65.9831 21.2536 65.5629 21.0298 65.2328 20.7007C64.9028 20.3716 64.6778 19.9519 64.5864 19.4949C64.495 19.0378 64.5412 18.5639 64.7193 18.1332C64.8974 17.7025 65.1992 17.3342 65.5867 17.0751C65.9741 16.8161 66.4298 16.6778 66.8959 16.6778C67.2048 16.6769 67.5109 16.737 67.7967 16.8546C68.0824 16.9723 68.3421 17.1451 68.5608 17.3633C68.7796 17.5815 68.9532 17.8407 69.0717 18.1261C69.1901 18.4114 69.2511 18.7174 69.2511 19.0264Z" fill="#455A64"/>
<path d="M76.0726 19.0264C76.0739 19.4925 75.9369 19.9485 75.6789 20.3366C75.4209 20.7248 75.0535 21.0277 74.6233 21.207C74.193 21.3863 73.7193 21.4339 73.262 21.3437C72.8047 21.2536 72.3844 21.0298 72.0543 20.7007C71.7243 20.3716 71.4993 19.9519 71.4079 19.4949C71.3165 19.0378 71.3628 18.5639 71.5408 18.1332C71.7189 17.7025 72.0208 17.3342 72.4082 17.0751C72.7957 16.8161 73.2513 16.6778 73.7174 16.6778C74.0264 16.6769 74.3325 16.737 74.6182 16.8546C74.9039 16.9723 75.1636 17.1451 75.3824 17.3633C75.6012 17.5815 75.7747 17.8407 75.8932 18.1261C76.0116 18.4114 76.0726 18.7174 76.0726 19.0264Z" fill="#455A64"/>
<path d="M344.659 34.8333H267.115V164.39H344.659V34.8333Z" fill="#F5F5F5"/>
<path d="M287.685 111.124L288.516 112.806L290.377 113.083L289.031 114.389L289.348 116.243L287.685 115.366L286.023 116.243L286.346 114.389L285 113.083L286.854 112.806L287.685 111.124Z" fill="#6FC78A"/>
<path d="M296.921 111.124L297.752 112.806L299.613 113.083L298.267 114.389L298.584 116.243L296.921 115.366L295.259 116.243L295.575 114.389L294.23 113.083L296.09 112.806L296.921 111.124Z" fill="#6FC78A"/>
<path d="M306.151 111.124L306.982 112.806L308.842 113.083L307.497 114.389L307.813 116.243L306.151 115.366L304.495 116.243L304.812 114.389L303.466 113.083L305.32 112.806L306.151 111.124Z" fill="#6FC78A"/>
<path d="M315.387 111.124L316.218 112.806L318.079 113.083L316.733 114.389L317.049 116.243L315.387 115.366L313.724 116.243L314.041 114.389L312.695 113.083L314.556 112.806L315.387 111.124Z" fill="#6FC78A"/>
<path d="M324.616 111.124L325.448 112.806L327.308 113.083L325.962 114.389L326.279 116.243L324.616 115.366L322.96 116.243L323.277 114.389L321.931 113.083L323.792 112.806L324.616 111.124Z" fill="#6FC78A"/>
<path d="M302.72 126.31C302.72 126.409 296.835 126.482 289.572 126.482C282.308 126.482 276.424 126.409 276.424 126.31C276.424 126.211 282.308 126.139 289.572 126.139C296.835 126.139 302.72 126.218 302.72 126.31Z" fill="#6FC78A"/>
<path d="M335.766 132.057C335.766 132.149 322.637 132.228 306.441 132.228C290.245 132.228 277.116 132.149 277.116 132.057C277.116 131.964 290.245 131.885 306.441 131.885C322.637 131.885 335.766 131.925 335.766 132.057Z" fill="#263238"/>
<path d="M335.766 136.925C335.766 137.018 322.637 137.097 306.441 137.097C290.245 137.097 277.116 137.018 277.116 136.925C277.116 136.833 290.245 136.754 306.441 136.754C322.637 136.754 335.766 136.833 335.766 136.925Z" fill="#263238"/>
<path d="M335.766 141.834C335.766 141.926 322.637 142.005 306.441 142.005C290.245 142.005 277.116 141.926 277.116 141.834C277.116 141.741 290.245 141.662 306.441 141.662C322.637 141.662 335.766 141.735 335.766 141.834Z" fill="#263238"/>
<path d="M335.766 146.735C335.766 146.834 322.637 146.907 306.441 146.907C290.245 146.907 277.116 146.834 277.116 146.735C277.116 146.636 290.245 146.564 306.441 146.564C322.637 146.564 335.766 146.643 335.766 146.735Z" fill="#263238"/>
<path d="M335.766 151.644C335.766 151.736 322.637 151.815 306.441 151.815C290.245 151.815 277.116 151.736 277.116 151.644C277.116 151.551 290.245 151.472 306.441 151.472C322.637 151.472 335.766 151.545 335.766 151.644Z" fill="#263238"/>
<path d="M339.011 41.4108H272.215V105.536H339.011V41.4108Z" fill="#E0E0E0"/>
<path d="M329.089 94.3601L333.43 105.542H322.914L320.546 99.4531L329.089 94.3601Z" fill="#FFBE9D"/>
<path d="M289.051 105.542H317.531C317.973 101.333 318.25 97.3552 318.25 97.3552L319.715 101.314L331.675 95.3299C331.675 95.3299 327.328 83.7385 323.686 79.8132C319.068 74.8455 310.815 75.3403 310.815 75.3403L300.075 75.5184C297.326 75.8436 294.651 76.624 292.158 77.8274L291.894 77.9066V77.9594C289.572 79.9385 282.592 89.2934 282.592 89.2934L285.165 91.7938L290.443 96.7087C290.436 96.7243 290.433 96.7412 290.433 96.7582C290.433 96.7752 290.436 96.792 290.443 96.8077C290.482 97.342 289.051 105.542 289.051 105.542Z" fill="#6FC78A"/>
<path d="M311.118 74.9577C311.118 74.9577 311.151 75.0236 311.178 75.149C311.217 75.3359 311.241 75.5256 311.25 75.7163C311.284 76.4233 311.186 77.1303 310.96 77.8011C310.619 78.806 310.016 79.7013 309.212 80.3938C308.201 81.2253 306.943 81.6968 305.635 81.7338C304.327 81.7708 303.044 81.3713 301.988 80.5983C301.149 79.9485 300.498 79.088 300.101 78.1045C299.839 77.4475 299.702 76.747 299.699 76.0396C299.694 75.8475 299.708 75.6553 299.738 75.4656C299.738 75.3403 299.771 75.2743 299.784 75.2743C299.793 76.2126 299.976 77.1411 300.325 78.0122C300.736 78.9333 301.374 79.7347 302.179 80.341C303.184 81.0566 304.395 81.4251 305.629 81.3905C306.862 81.356 308.05 80.9204 309.014 80.1497C309.785 79.5013 310.376 78.6652 310.729 77.7219C311.033 76.8334 311.165 75.8954 311.118 74.9577Z" fill="#263238"/>
<path d="M321.291 77.5042C321.291 77.5372 321.001 77.5042 320.533 77.7021C319.87 77.9529 319.294 78.3878 318.87 78.9556C318.264 79.8149 317.893 80.8179 317.795 81.8649C317.637 83.0458 317.604 84.3785 317.551 85.7639C317.478 88.5479 317.584 91.0417 317.716 92.8889C317.775 93.74 317.834 94.459 317.874 95.0396C317.918 95.3033 317.929 95.5714 317.907 95.8379C317.827 95.5842 317.772 95.3236 317.742 95.0594C317.67 94.5514 317.564 93.8191 317.472 92.9087C317.232 90.5329 317.144 88.1443 317.208 85.7573C317.23 84.4339 317.323 83.1126 317.485 81.799C317.602 80.7031 318.017 79.6602 318.685 78.784C319.146 78.1971 319.778 77.7682 320.493 77.557C320.684 77.4993 320.881 77.4682 321.08 77.4646C321.219 77.4844 321.291 77.491 321.291 77.5042Z" fill="#263238"/>
<path d="M295.76 76.3035C295.719 76.5773 295.653 76.8467 295.562 77.1083C295.384 77.6889 295.166 78.4278 294.902 79.2788C294.355 81.1063 293.623 83.6396 292.884 86.4632C292.145 89.2868 291.564 91.8531 291.155 93.7201C290.957 94.5976 290.792 95.3365 290.66 95.9302C290.617 96.2056 290.544 96.4755 290.443 96.7351C290.447 96.456 290.475 96.1778 290.529 95.9038C290.608 95.3761 290.74 94.5844 290.911 93.674C291.267 91.7872 291.822 89.201 292.554 86.3774C293.286 83.5538 294.065 81.0205 294.672 79.2063C294.975 78.2958 295.232 77.5701 295.424 77.0688C295.509 76.8029 295.622 76.5464 295.76 76.3035Z" fill="#263238"/>
<path opacity="0.2" d="M317.359 86.5358L321.318 100.561L319.741 101.353L318.276 97.3948C318.276 97.3948 316.825 89.0427 317.359 86.5358Z" fill="black"/>
<g opacity="0.2">
<path d="M296.222 76.3167C293.933 77.4778 299.554 80.4861 302.12 80.4597L300.378 75.4722C300.378 75.4722 296.987 75.9274 296.222 76.3167Z" fill="black"/>
</g>
<path d="M305.887 81.4163C305.092 81.4706 304.294 81.357 303.546 81.0829C302.798 80.8087 302.116 80.3803 301.544 79.8253C300.972 79.2703 300.523 78.6011 300.227 77.8614C299.931 77.1217 299.793 76.3279 299.824 75.5316C299.89 73.7042 299.949 72.233 299.949 72.233C299.949 72.233 295.417 71.8372 295.061 67.3576C294.705 62.8781 294.784 52.5271 294.784 52.5271C297.26 51.2603 300.029 50.6773 302.805 50.8386C305.582 50.9998 308.265 51.8992 310.578 53.4441L311.277 53.9059L311.191 75.7955C311.178 77.2283 310.624 78.6033 309.64 79.6454C308.657 80.6875 307.316 81.32 305.887 81.4163Z" fill="#FFBE9D"/>
<path d="M297.218 60.4174C297.313 60.326 297.378 60.2085 297.405 60.08C297.432 59.9514 297.42 59.8176 297.371 59.6957C297.322 59.5739 297.237 59.4695 297.128 59.3961C297.019 59.3226 296.891 59.2833 296.76 59.2833C296.628 59.2833 296.5 59.3226 296.391 59.3961C296.282 59.4695 296.197 59.5739 296.148 59.6957C296.099 59.8176 296.087 59.9514 296.114 60.08C296.142 60.2085 296.207 60.326 296.301 60.4174C296.424 60.5363 296.588 60.6028 296.76 60.6028C296.931 60.6028 297.095 60.5363 297.218 60.4174Z" fill="#263238"/>
<path d="M295.232 59.0847C295.305 59.1573 295.72 58.7945 296.341 58.7483C296.961 58.7021 297.429 58.9924 297.489 58.9066C297.548 58.8208 297.442 58.7351 297.238 58.5965C296.959 58.4264 296.634 58.3479 296.308 58.3722C295.983 58.3985 295.676 58.528 295.43 58.7417C295.252 58.9066 295.193 59.0517 295.232 59.0847Z" fill="#263238"/>
<path d="M302.852 59.4344C302.745 59.5094 302.662 59.6148 302.615 59.737C302.567 59.8593 302.557 59.9928 302.586 60.1207C302.615 60.2485 302.681 60.3649 302.777 60.4549C302.872 60.5449 302.992 60.6045 303.121 60.626C303.251 60.6476 303.383 60.6301 303.503 60.5759C303.622 60.5217 303.723 60.4331 303.791 60.3215C303.86 60.2099 303.894 60.0804 303.889 59.9494C303.884 59.8184 303.84 59.692 303.763 59.5861C303.661 59.4468 303.508 59.3529 303.338 59.3245C303.168 59.2962 302.994 59.3356 302.852 59.4344Z" fill="#263238"/>
<path d="M301.764 59.1045C301.843 59.1771 302.258 58.8077 302.879 58.7615C303.499 58.7153 303.961 59.0056 304.026 58.9198C304.092 58.834 303.98 58.7483 303.769 58.6163C303.495 58.4405 303.17 58.3615 302.846 58.392C302.521 58.4132 302.213 58.5407 301.968 58.7549C301.783 58.9264 301.731 59.0715 301.764 59.1045Z" fill="#263238"/>
<path d="M299.798 64.5406C299.469 64.4379 299.126 64.3911 298.782 64.4021C298.617 64.4021 298.491 64.3625 298.472 64.2767C298.456 64.1157 298.486 63.9536 298.557 63.8083L298.96 62.4889C299.35 61.3958 299.631 60.2665 299.798 59.1177C299.293 60.1623 298.9 61.2568 298.623 62.3833C298.491 62.832 298.366 63.2608 298.247 63.7028C298.161 63.9119 298.144 64.1434 298.201 64.3625C298.228 64.4235 298.269 64.4773 298.321 64.5197C298.372 64.5621 298.433 64.5918 298.498 64.6066C298.59 64.6222 298.683 64.6222 298.775 64.6066C299.117 64.6445 299.463 64.6221 299.798 64.5406Z" fill="#263238"/>
<path d="M299.943 72.1472C302.016 72.0465 304.012 71.3298 305.676 70.0889C305.676 70.0889 304.508 73.3875 300.009 73.3083L299.943 72.1472Z" fill="#EB996E"/>
<path d="M311.079 58.6559C311.165 58.6229 314.747 58.2337 314.18 61.6973C313.691 64.6858 310.472 63.7754 310.479 63.6764C310.485 63.5775 311.079 58.6559 311.079 58.6559Z" fill="#FFBE9D"/>
<path d="M311.732 62.357C311.732 62.357 311.778 62.3965 311.864 62.4427C311.984 62.5053 312.123 62.5195 312.253 62.4823C312.449 62.3695 312.612 62.2083 312.728 62.0142C312.843 61.8202 312.907 61.5997 312.913 61.374C312.943 61.12 312.914 60.8625 312.827 60.6219C312.805 60.5267 312.761 60.4381 312.698 60.3635C312.635 60.2889 312.555 60.2305 312.464 60.1931C312.405 60.1745 312.341 60.1768 312.284 60.1996C312.226 60.2225 312.178 60.2644 312.148 60.3184C312.102 60.3976 312.148 60.457 312.102 60.457C312.055 60.457 312.042 60.4042 312.102 60.2854C312.125 60.2135 312.172 60.1511 312.233 60.1073C312.32 60.0523 312.424 60.0333 312.524 60.0545C312.645 60.0867 312.755 60.1498 312.844 60.2377C312.933 60.3257 312.998 60.4354 313.032 60.5559C313.136 60.8221 313.177 61.109 313.15 61.3938C313.145 61.6593 313.061 61.9172 312.91 62.1354C312.758 62.3536 312.546 62.5225 312.299 62.6208C312.218 62.6386 312.133 62.6377 312.052 62.6183C311.971 62.5989 311.896 62.5614 311.831 62.5087C311.732 62.4295 311.719 62.3636 311.732 62.357Z" fill="#EB996E"/>
<path d="M310.327 61.7698C309.634 62.1854 308.691 61.6642 308.348 60.9386C308.068 60.1774 307.949 59.3664 307.998 58.557C307.958 57.4541 307.767 56.362 307.431 55.3111C307.387 54.9266 307.247 54.5595 307.022 54.2443C306.798 53.9292 306.497 53.6765 306.148 53.5101C305.798 53.3437 305.412 53.2691 305.026 53.2933C304.64 53.3176 304.266 53.4399 303.941 53.6486C303.216 54.0105 302.421 54.2087 301.612 54.2292C300.55 54.1368 299.672 53.299 298.61 53.1538C297.548 53.0087 296.69 53.4903 295.734 53.7608C294.783 54.0763 293.753 54.053 292.818 53.6948C292.357 53.5085 291.963 53.1881 291.687 52.7753C291.41 52.3624 291.264 51.876 291.267 51.3792C291.286 51.1348 291.355 50.897 291.471 50.681C291.587 50.465 291.746 50.2754 291.939 50.1246C292.132 49.9737 292.355 49.8648 292.592 49.8048C292.83 49.7447 293.078 49.735 293.319 49.7761C293.149 49.6601 293.005 49.5087 292.899 49.3322C292.792 49.1557 292.725 48.9583 292.702 48.7534C292.679 48.5486 292.7 48.3412 292.765 48.1453C292.829 47.9495 292.935 47.7699 293.075 47.6188C293.383 47.3307 293.766 47.1343 294.179 47.0515C294.593 46.9688 295.022 47.003 295.417 47.1504C296.201 47.453 296.911 47.9184 297.502 48.516C297.583 48.1495 297.784 47.8205 298.073 47.5814C298.362 47.3424 298.723 47.2069 299.098 47.1965C299.862 47.1999 300.603 47.4524 301.209 47.9156C301.869 48.3379 302.404 48.8524 303.07 49.2351C304.389 49.9674 305.959 50.0465 307.444 50.317C308.928 50.5875 310.518 51.1879 311.237 52.5205C311.897 53.6882 311.448 55.0934 311.396 56.4261C311.343 57.7587 311.336 58.1215 311.27 59.4212C311.257 59.375 311.343 61.1827 310.327 61.7698Z" fill="#263238"/>
<path d="M299.237 66.3549C299.237 66.3945 299.402 66.467 299.705 66.4604C300.101 66.4479 300.484 66.3149 300.802 66.0791C301.12 65.8433 301.359 65.516 301.487 65.141C301.579 64.8507 301.552 64.666 301.487 64.6594C301.421 64.6528 301.242 65.3191 300.589 65.8337C300.169 66.0775 299.712 66.2534 299.237 66.3549Z" fill="white"/>
<path d="M294.084 50.6931C293.981 50.7656 293.9 50.8663 293.852 50.9832C293.804 51.1002 293.791 51.2285 293.814 51.3528C293.843 51.634 293.974 51.8948 294.183 52.0851C294.329 52.2011 294.499 52.2837 294.68 52.327C294.861 52.3703 295.05 52.3733 295.232 52.3358C295.67 52.252 296.086 52.084 296.459 51.841C296.866 51.5604 297.31 51.3383 297.779 51.1813C298.314 51.0681 298.871 51.1525 299.349 51.4188C299.857 51.6694 300.332 52.0323 300.86 52.3556C301.356 52.7106 301.951 52.902 302.562 52.9031C303.128 52.8297 303.656 52.5804 304.073 52.1906C304.445 51.8624 304.877 51.6093 305.346 51.4451C305.762 51.3445 306.198 51.3698 306.599 51.5177C307.194 51.7315 307.683 52.1663 307.965 52.7316C308.052 52.9442 308.116 53.1653 308.156 53.3913C308.156 53.1635 308.107 52.9384 308.011 52.7316C307.877 52.4379 307.686 52.1736 307.45 51.9539C307.213 51.7342 306.935 51.5636 306.632 51.4517C306.212 51.2886 305.752 51.2564 305.313 51.3594C304.825 51.5178 304.376 51.7762 303.993 52.1181C303.585 52.4764 303.08 52.706 302.542 52.7778C301.957 52.7729 301.387 52.5862 300.913 52.2434C300.398 51.9267 299.916 51.5837 299.389 51.3066C298.886 51.0297 298.301 50.9431 297.739 51.0625C297.271 51.221 296.827 51.443 296.42 51.7222C296.06 51.9621 295.656 52.1302 295.232 52.217C295.062 52.2564 294.884 52.2573 294.713 52.2197C294.542 52.182 294.381 52.1067 294.243 51.9993C294.047 51.8291 293.916 51.5958 293.873 51.3396C293.853 51.2228 293.862 51.1028 293.898 50.9901C293.935 50.8774 293.999 50.7754 294.084 50.6931Z" fill="#455A64"/>
<path d="M296.07 48.3312C296.037 48.2826 295.992 48.2438 295.938 48.2191C295.861 48.1817 295.777 48.1623 295.691 48.1623C295.605 48.1623 295.521 48.1817 295.443 48.2191C295.317 48.2718 295.211 48.3653 295.143 48.4847C295.075 48.6041 295.048 48.7427 295.067 48.8788C295.093 49.0592 295.168 49.2289 295.284 49.3688C295.401 49.5087 295.554 49.6132 295.727 49.6705C296.142 49.7916 296.586 49.7708 296.987 49.6111C297.429 49.4336 297.886 49.2967 298.353 49.2021C298.609 49.1835 298.867 49.2224 299.107 49.3159C299.346 49.4095 299.562 49.5555 299.738 49.7431C300.119 50.1716 300.565 50.5388 301.058 50.8316C301.335 50.9292 301.629 50.9707 301.922 50.9537C302.215 50.9367 302.502 50.8616 302.766 50.7326C303.243 50.5108 303.746 50.3512 304.264 50.2576C305.004 50.1571 305.756 50.2822 306.424 50.6165C307.091 50.9507 307.642 51.4787 308.005 52.1313C308.216 52.5073 308.282 52.7382 308.295 52.7316C308.24 52.5152 308.158 52.3068 308.051 52.1115C307.767 51.5653 307.352 51.0982 306.843 50.7524C306.081 50.2373 305.156 50.0191 304.244 50.1389C303.718 50.2325 303.206 50.3921 302.72 50.6139C302.472 50.7372 302.202 50.8095 301.925 50.8265C301.649 50.8435 301.372 50.8048 301.11 50.7128C300.621 50.4258 300.176 50.0678 299.791 49.6507C299.604 49.4506 299.373 49.2956 299.117 49.1973C298.861 49.0991 298.586 49.0601 298.313 49.0833C297.838 49.1787 297.374 49.3224 296.928 49.5122C296.557 49.6621 296.148 49.6898 295.76 49.5913C295.601 49.5423 295.459 49.4494 295.351 49.3234C295.242 49.1974 295.171 49.0433 295.147 48.8788C295.125 48.7553 295.145 48.6279 295.205 48.5177C295.265 48.4074 295.361 48.3208 295.476 48.2719C295.549 48.2378 295.628 48.2201 295.707 48.2201C295.787 48.2201 295.866 48.2378 295.938 48.2719C296.031 48.2719 296.064 48.3378 296.07 48.3312Z" fill="#455A64"/>
<path d="M309.317 51.841C309.403 51.874 309.647 51.333 310.228 50.9768C310.808 50.6205 311.389 50.6271 311.396 50.5347C311.402 50.4424 311.257 50.4292 311 50.4226C310.665 50.4306 310.34 50.5287 310.056 50.7063C309.773 50.8839 309.543 51.1346 309.39 51.432C309.284 51.6695 309.278 51.8278 309.317 51.841Z" fill="#263238"/>
<path d="M309.845 48.5226C309.753 48.5226 309.885 49.2219 309.773 50.0465C309.66 50.8712 309.383 51.4913 309.463 51.5375C309.808 51.1241 310.027 50.6204 310.095 50.0861C310.163 49.5517 310.076 49.0091 309.845 48.5226Z" fill="#263238"/>
<path d="M310.894 60.5493C311.016 60.3624 311.097 60.1512 311.13 59.9303C311.163 59.7094 311.148 59.484 311.085 59.2695C310.951 58.8072 310.704 58.3856 310.366 58.0424C310.193 57.8382 310.075 57.5929 310.023 57.3299C310 57.0398 310.036 56.7481 310.129 56.4722C310.311 55.9098 310.345 55.31 310.228 54.7306C310.123 54.251 309.837 53.8303 309.43 53.5563C309.156 53.3767 308.833 53.2868 308.506 53.299C308.387 53.304 308.27 53.3332 308.163 53.3847C308.163 53.3847 308.288 53.3847 308.506 53.3518C308.818 53.3565 309.122 53.4553 309.377 53.6354C309.758 53.8998 310.02 54.3021 310.109 54.757C310.217 55.3176 310.181 55.8965 310.004 56.4393C309.906 56.7322 309.87 57.0422 309.898 57.3497C309.955 57.633 310.085 57.8967 310.274 58.115C310.605 58.4427 310.852 58.8456 310.993 59.2893C311.063 59.5954 311.063 59.9133 310.993 60.2195C310.971 60.3324 310.938 60.4429 310.894 60.5493Z" fill="#455A64"/>
<path d="M307.635 92.4733C307.643 92.6161 307.643 92.7593 307.635 92.9021C307.635 93.2122 307.635 93.5618 307.668 94.0368C307.668 95.0132 307.727 96.3854 307.741 98.0413L307.701 97.9358L309.733 99.8292H309.561L313.058 98.4108L312.959 98.5427C312.973 98.4318 312.993 98.3217 313.018 98.2129C313.401 96.1347 313.757 94.1754 314.074 92.4733L314.226 92.6514C312.28 92.6514 310.643 92.6052 309.476 92.5788L308.11 92.5393C307.95 92.5302 307.791 92.5081 307.635 92.4733C307.784 92.4508 307.934 92.4398 308.084 92.4403L309.403 92.4007C310.558 92.4007 312.233 92.3347 314.246 92.3215H314.424V92.4997C314.12 94.2083 313.764 96.1677 313.408 98.2459L313.348 98.5757V98.6681L313.263 98.7077L309.759 100.1L309.66 100.139L309.588 100.067L307.609 98.1469L307.563 98.1007V98.0413C307.563 96.3261 307.609 94.9143 307.635 93.9511C307.635 93.509 307.635 93.1462 307.675 92.8427C307.646 92.7217 307.633 92.5976 307.635 92.4733Z" fill="#263238"/>
<path d="M313.843 94.1952C312.822 94.4215 311.774 94.5081 310.729 94.4524C309.683 94.5113 308.634 94.4314 307.609 94.2149C308.644 94.0898 309.688 94.0544 310.729 94.1094C311.768 94.0503 312.809 94.0789 313.843 94.1952Z" fill="#263238"/>
<path d="M284.063 90.7514C284.202 90.8899 273.508 105.542 273.508 105.542H283.991L290.423 96.7285L284.063 90.7514Z" fill="#FFBE9D"/>
<path d="M262.827 10.7403H152.297V195.403H262.827V10.7403Z" fill="#F5F5F5"/>
<path d="M181.622 119.482L182.802 121.877L185.455 122.266L183.535 124.133L183.99 126.772L181.622 125.525L179.247 126.772L179.702 124.133L177.789 122.266L180.434 121.877L181.622 119.482Z" fill="#6FC78A"/>
<path d="M194.776 119.482L195.964 121.877L198.609 122.266L196.696 124.133L197.145 126.772L194.776 125.525L192.408 126.772L192.863 124.133L190.943 122.266L193.596 121.877L194.776 119.482Z" fill="#6FC78A"/>
<path d="M207.938 119.482L209.125 121.877L211.771 122.266L209.858 124.133L210.306 126.772L207.938 125.525L205.569 126.772L206.025 124.133L204.105 122.266L206.757 121.877L207.938 119.482Z" fill="#6FC78A"/>
<path d="M221.099 119.482L222.287 121.877L224.932 122.266L223.019 124.133L223.468 126.772L221.099 125.525L218.731 126.772L219.186 124.133L217.266 122.266L219.912 121.877L221.099 119.482Z" fill="#6FC78A"/>
<path d="M234.261 119.482L235.442 121.877L238.094 122.266L236.174 124.133L236.629 126.772L234.261 125.525L231.892 126.772L232.341 124.133L230.428 122.266L233.073 121.877L234.261 119.482Z" fill="#6FC78A"/>
<path d="M203.049 141.128C203.049 141.22 194.658 141.299 184.307 141.299C173.956 141.299 165.564 141.22 165.564 141.128C165.564 141.035 173.956 140.956 184.307 140.956C194.658 140.956 203.049 141.029 203.049 141.128Z" fill="#E8505B"/>
<path d="M250.147 149.262C250.147 149.361 231.431 149.434 208.353 149.434C185.276 149.434 166.553 149.361 166.553 149.262C166.553 149.163 185.263 149.091 208.353 149.091C231.444 149.091 250.147 149.17 250.147 149.262Z" fill="#263238"/>
<path d="M250.147 156.255C250.147 156.348 231.431 156.427 208.353 156.427C185.276 156.427 166.553 156.348 166.553 156.255C166.553 156.163 185.263 156.084 208.353 156.084C231.444 156.084 250.147 156.163 250.147 156.255Z" fill="#263238"/>
<path d="M250.147 163.248C250.147 163.341 231.431 163.42 208.353 163.42C185.276 163.42 166.553 163.341 166.553 163.248C166.553 163.156 185.263 163.077 208.353 163.077C231.444 163.077 250.147 163.149 250.147 163.248Z" fill="#263238"/>
<path d="M250.147 170.241C250.147 170.334 231.431 170.413 208.353 170.413C185.276 170.413 166.553 170.334 166.553 170.241C166.553 170.149 185.263 170.07 208.353 170.07C231.444 170.07 250.147 170.142 250.147 170.241Z" fill="#263238"/>
<path d="M250.147 177.228C250.147 177.327 231.431 177.399 208.353 177.399C185.276 177.399 166.553 177.327 166.553 177.228C166.553 177.129 185.263 177.056 208.353 177.056C231.444 177.056 250.147 177.135 250.147 177.228Z" fill="#263238"/>
<path d="M254.778 20.1149H159.567V111.519H254.778V20.1149Z" fill="#E0E0E0"/>
<path d="M201.717 35.2621C202.713 31.9174 205.774 29.417 209.165 28.6056C212.556 27.7941 216.765 26.6858 219.872 28.2691C221.812 29.2587 223.672 30.6969 224.438 32.7354C225.341 35.1566 223.949 39.6691 223.257 42.1562C222.564 44.6434 222.043 47.4868 223.408 49.6771C224.774 51.8674 227.459 52.6326 229.148 54.493C230.27 55.8312 230.826 57.5536 230.699 59.295C230.572 61.0364 229.772 62.66 228.468 63.8215C231.47 63.6434 234.004 66.7045 233.898 69.7063C233.792 72.708 231.596 75.3469 228.917 76.7059C226.239 78.0649 223.145 78.3486 220.143 78.3552C216.416 78.3606 212.699 77.9736 209.053 77.2007C206.051 76.541 202.917 75.558 200.965 73.1896C199.164 71.0125 198.669 68.0438 198.662 65.2201C198.662 55.2385 203.887 45.3427 201.611 35.6184" fill="#263238"/>
<path d="M204.151 32.9663C202.58 31.8913 200.732 31.2922 198.829 31.2409C196.926 31.1896 195.049 31.6882 193.422 32.677C191.796 33.6659 190.489 35.1029 189.658 36.8158C188.828 38.5287 188.509 40.4448 188.74 42.3344C188.984 44.3135 189.809 46.2927 189.307 48.1729C188.364 51.7552 183.317 53.1472 182.657 56.7889C182.393 58.2271 182.901 59.6719 183.284 61.0771C183.667 62.4823 183.944 64.0722 183.192 65.3389C182.651 66.2757 181.674 66.8629 180.909 67.6215C178.455 70.0757 178.501 74.3837 180.559 77.1875C182.618 79.9913 186.259 81.3306 189.73 81.2184C193.2 81.1063 196.525 79.7011 199.487 77.8868" fill="#263238"/>
<path d="M196.861 36.9774L196.907 39.3458L197.382 74.8851C197.435 79.0149 201.031 82.2542 205.444 82.142C209.911 82.0431 213.532 78.5927 213.546 74.4233C213.546 70.0493 213.651 65.4445 213.651 65.4445C213.651 65.4445 219.292 64.5077 220.459 57.1518C221.04 53.4969 220.855 47.5 220.545 42.5983C220.482 41.5499 220.208 40.5252 219.738 39.5861C219.267 38.647 218.612 37.813 217.81 37.1346C217.008 36.4563 216.077 35.9476 215.073 35.6393C214.069 35.3311 213.013 35.2297 211.969 35.3413L196.861 36.9774Z" fill="#B78876"/>
<path d="M217.715 46.7941C217.717 47.0398 217.623 47.2766 217.453 47.454C217.283 47.6314 217.05 47.7355 216.805 47.7441C216.685 47.754 216.564 47.7396 216.45 47.7018C216.335 47.6641 216.23 47.6037 216.139 47.5243C216.049 47.4449 215.975 47.3481 215.923 47.2396C215.87 47.1312 215.841 47.0133 215.835 46.8931C215.831 46.6479 215.924 46.4112 216.093 46.2336C216.262 46.056 216.494 45.9517 216.739 45.9431C216.859 45.9332 216.98 45.9475 217.095 45.9852C217.209 46.0229 217.315 46.0832 217.406 46.1625C217.497 46.2419 217.572 46.3386 217.625 46.4471C217.678 46.5556 217.708 46.6736 217.715 46.7941Z" fill="#263238"/>
<path d="M219.232 45.7386C219.114 45.8573 218.401 45.3295 217.385 45.3295C216.369 45.3295 215.624 45.8441 215.518 45.7188C215.412 45.5934 215.577 45.4417 215.907 45.2042C216.346 44.9034 216.866 44.7424 217.398 44.7424C217.926 44.7418 218.441 44.908 218.869 45.2174C219.193 45.4549 219.298 45.6792 219.232 45.7386Z" fill="#263238"/>
<path d="M207.938 46.7941C207.94 47.0399 207.846 47.2766 207.676 47.454C207.506 47.6315 207.273 47.7355 207.027 47.7441C206.908 47.7522 206.788 47.7365 206.674 47.6981C206.561 47.6596 206.456 47.5991 206.366 47.5201C206.276 47.441 206.202 47.3449 206.149 47.2373C206.096 47.1297 206.065 47.0127 206.058 46.8931C206.054 46.6469 206.148 46.4091 206.318 46.2313C206.488 46.0536 206.722 45.95 206.968 45.9431C207.088 45.9332 207.209 45.9476 207.323 45.9853C207.437 46.0231 207.543 46.0835 207.633 46.1629C207.724 46.2423 207.798 46.3391 207.85 46.4476C207.902 46.556 207.932 46.6739 207.938 46.7941Z" fill="#263238"/>
<path d="M209.271 45.9233C209.152 46.0486 208.433 45.5208 207.423 45.5208C206.414 45.5208 205.662 46.0354 205.55 45.9101C205.438 45.7847 205.616 45.633 205.939 45.3955C206.38 45.0935 206.902 44.9324 207.436 44.9337C207.965 44.9331 208.48 45.0993 208.908 45.4087C209.218 45.633 209.336 45.8705 209.271 45.9233Z" fill="#263238"/>
<path d="M212.952 53.4507C213.487 53.2831 214.041 53.1834 214.601 53.1538C214.858 53.1538 215.102 53.0747 215.149 52.8966C215.17 52.63 215.111 52.3631 214.977 52.1313L214.205 50.1521C213.143 47.3417 212.371 45.0327 212.49 44.9865C212.609 44.9403 213.552 47.19 214.621 50.0004C214.878 50.6931 215.122 51.3528 215.353 51.9795C215.519 52.2911 215.565 52.6521 215.485 52.9955C215.448 53.0868 215.391 53.1686 215.317 53.2348C215.244 53.301 215.157 53.35 215.063 53.3782C214.918 53.4152 214.77 53.4352 214.621 53.4375C214.067 53.5132 213.506 53.5176 212.952 53.4507Z" fill="#263238"/>
<path d="M213.651 65.4643C210.187 65.5132 206.777 64.5997 203.801 62.8254C203.801 62.8254 206.19 67.8788 213.552 67.1927L213.651 65.4643Z" fill="#AA6550"/>
<path d="M212.523 55.8983C212.327 55.6591 212.073 55.4733 211.786 55.358C211.499 55.2427 211.187 55.2016 210.88 55.2386C210.657 55.258 210.439 55.3231 210.242 55.4298C210.045 55.5364 209.871 55.6824 209.732 55.8587C209.595 56.0264 209.513 56.2325 209.498 56.4487C209.482 56.6649 209.534 56.8806 209.646 57.066C209.809 57.2454 210.021 57.3729 210.256 57.4327C210.49 57.4926 210.737 57.482 210.966 57.4024C211.452 57.2346 211.901 56.9723 212.285 56.6306C212.397 56.5445 212.495 56.4422 212.576 56.3271C212.613 56.2715 212.633 56.2061 212.633 56.1391C212.633 56.0721 212.613 56.0066 212.576 55.9511" fill="#AA6550"/>
<path d="M209.996 54.1566C210.161 54.1566 210.161 55.2452 211.105 56.0302C212.048 56.8153 213.222 56.69 213.229 56.8417C213.236 56.9934 212.972 57.0594 212.477 57.0726C211.831 57.0784 211.204 56.8592 210.702 56.4524C210.224 56.0589 209.915 55.497 209.838 54.8823C209.765 54.4205 209.891 54.15 209.996 54.1566Z" fill="#263238"/>
<path d="M202.845 33.5337C202.845 33.4413 202.964 33.3951 203.023 33.4215C203.082 33.4479 203.109 33.5403 203.069 33.6326C203.057 33.67 203.031 33.7016 202.997 33.7211C202.963 33.7406 202.923 33.7467 202.884 33.7382C202.853 33.7156 202.831 33.6818 202.824 33.6438C202.817 33.6058 202.824 33.5664 202.845 33.5337Z" fill="#263238"/>
<path d="M196.472 71.7712C197.551 71.3642 198.529 70.7291 199.339 69.9093C200.15 69.0895 200.774 68.1044 201.169 67.0212C201.943 64.8352 201.999 62.459 201.327 60.2392C201.037 59.2167 200.628 58.0951 201.077 57.132C201.495 56.4823 202.041 55.9236 202.68 55.4892C203.939 54.2727 204.685 52.6203 204.765 50.8712C204.832 49.128 204.514 47.3913 203.834 45.7847C203.485 44.8941 203.063 43.9177 203.386 43.0205C203.682 42.4086 204.121 41.8769 204.666 41.4701C205.712 40.4884 206.576 39.3292 207.219 38.0462C207.667 37.1424 208.004 36.067 207.568 35.1368C207.034 34.0285 205.649 33.6854 204.428 33.5931C201.512 33.3688 198.293 34.0153 196.439 36.2715C194.783 38.2903 194.592 41.1073 194.46 43.7264C194.09 51.9597 193.721 60.2788 195.119 68.4" fill="#263238"/>
<path d="M223.336 36.1594C222.93 36.4049 222.509 36.6252 222.076 36.8191C221.695 37.0946 221.339 37.4038 221.014 37.7427C220.822 37.9275 220.618 38.132 220.433 38.3431L220.301 38.5014L220.09 38.7125L219.582 39.1941C219.092 39.6506 218.564 40.0654 218.005 40.4344C217.178 41.0107 216.252 41.431 215.274 41.6747C213.393 42.0947 211.424 41.8621 209.693 41.015C208.499 40.4404 207.452 39.601 206.632 38.5608C205.378 36.8917 205.187 35.5393 205.761 34.807C206.335 34.0747 207.793 34.1472 209.416 34.5761C210.206 34.782 211.008 34.9406 211.817 35.0511C212.453 35.1421 213.1 35.1242 213.73 34.9983C214.039 34.9287 214.338 34.8224 214.621 34.6816C215.037 34.4969 215.551 34.2264 216.145 33.9427C216.442 33.8042 216.752 33.6656 217.088 33.5337C217.253 33.4677 217.431 33.4084 217.603 33.349C217.774 33.2896 217.992 33.217 218.183 33.1709C218.902 32.9844 219.648 32.9241 220.387 32.9927C220.973 33.0151 221.548 33.1675 222.068 33.4391C222.588 33.7106 223.042 34.0945 223.395 34.5629C223.58 34.7911 223.676 35.0787 223.665 35.3723C223.654 35.6659 223.537 35.9455 223.336 36.1594Z" fill="#263238"/>
<path d="M186.167 76.8379C186.13 76.8049 186.094 76.7696 186.061 76.7323C185.962 76.6239 185.869 76.5093 185.784 76.3893C185.45 75.9325 185.198 75.4214 185.039 74.8785C184.792 74.0207 184.747 73.1177 184.907 72.2396C185.141 71.0559 185.769 69.9863 186.688 69.2049C187.671 68.3077 188.958 67.6347 190.139 66.6979C190.753 66.2234 191.28 65.6452 191.696 64.9893C192.126 64.3013 192.301 63.4841 192.19 62.6802C191.966 61.0177 190.594 59.5597 190.475 57.5674C190.427 56.5633 190.669 55.5666 191.172 54.6963C191.675 53.826 192.418 53.1187 193.312 52.659C194.2 52.2768 195.043 51.7966 195.825 51.2274C196.166 50.9263 196.433 50.552 196.608 50.1327C196.783 49.7133 196.86 49.2599 196.835 48.8063C196.79 47.9088 196.566 47.0294 196.175 46.2202C195.792 45.4219 195.331 44.6632 194.935 43.8913C194.527 43.1378 194.246 42.3219 194.104 41.4767C193.996 40.6619 194.098 39.8332 194.4 39.0688C194.961 37.722 195.939 36.591 197.191 35.8427C198.219 35.2387 199.355 34.842 200.536 34.675C201.409 34.5459 202.292 34.4885 203.175 34.5035C203.907 34.5035 204.494 34.5563 204.85 34.5893L205.286 34.6354C205.385 34.6354 205.431 34.6354 205.431 34.6354C205.238 34.6485 205.044 34.6485 204.85 34.6354C204.468 34.6354 203.9 34.6354 203.175 34.6354C202.29 34.6396 201.408 34.7146 200.536 34.8597C199.39 35.0415 198.29 35.4425 197.297 36.0406C196.106 36.7749 195.181 37.8706 194.658 39.1677C194.381 39.8855 194.29 40.6617 194.394 41.424C194.537 42.2356 194.814 43.018 195.212 43.7396C195.601 44.4983 196.069 45.2504 196.465 46.075C196.89 46.9217 197.135 47.8472 197.184 48.7931C197.215 49.295 197.13 49.7972 196.937 50.2615C196.744 50.7257 196.447 51.1396 196.069 51.4715C195.27 52.065 194.405 52.5631 193.49 52.9559C192.653 53.3907 191.959 54.0575 191.491 54.8765C191.023 55.6955 190.801 56.632 190.851 57.574C190.937 59.408 192.289 60.8726 192.54 62.6538C192.66 63.5301 192.466 64.4204 191.992 65.1674C191.555 65.85 191.001 66.4507 190.356 66.942C189.129 67.8986 187.849 68.5452 186.893 69.4028C185.998 70.1398 185.379 71.1585 185.138 72.2924C184.962 73.1506 184.986 74.038 185.21 74.8851C185.416 75.5857 185.739 76.2462 186.167 76.8379Z" fill="#455A64"/>
<path d="M227.202 75.4195C227.36 75.3378 227.5 75.2249 227.613 75.0877C227.727 74.9506 227.811 74.7919 227.861 74.6212C227.965 74.2246 227.935 73.8048 227.776 73.4271C227.53 72.9411 227.153 72.5342 226.687 72.2528C226.179 71.9031 225.552 71.6261 224.926 71.1972C224.573 70.9853 224.272 70.6979 224.044 70.3557C223.816 70.0134 223.666 69.6249 223.606 69.2181C223.587 68.3066 223.883 67.4164 224.444 66.6979C224.972 65.9392 225.658 65.2927 226.186 64.5274C226.726 63.8109 226.963 62.9104 226.846 62.0205C226.693 61.1931 226.347 60.4133 225.836 59.7445C224.886 58.425 223.705 57.4618 222.96 56.4458C222.307 55.6745 221.872 54.7431 221.7 53.7476C221.662 53.4784 221.662 53.2053 221.7 52.9361C221.7 52.7514 221.752 52.6524 221.766 52.659C221.759 53.0163 221.779 53.3735 221.825 53.7278C222.041 54.6809 222.495 55.5638 223.144 56.2941C223.897 57.2771 225.084 58.2073 226.087 59.5927C226.633 60.3007 227.004 61.1282 227.169 62.0073C227.241 62.4849 227.214 62.9722 227.09 63.4389C226.948 63.9137 226.725 64.3602 226.43 64.7583C225.876 65.5698 225.183 66.2163 224.675 66.9288C224.158 67.5843 223.878 68.3962 223.883 69.2313C223.935 69.5982 224.068 69.9489 224.273 70.2581C224.477 70.5673 224.747 70.8272 225.064 71.0191C225.651 71.4347 226.278 71.7316 226.793 72.101C227.29 72.4221 227.685 72.8804 227.927 73.4205C228.096 73.8422 228.107 74.3103 227.96 74.7399C227.879 75.0116 227.704 75.2455 227.466 75.3997C227.381 75.4283 227.29 75.4351 227.202 75.4195Z" fill="#455A64"/>
<path d="M223.85 33.1511C223.85 33.1511 223.85 33.2302 223.85 33.382C223.849 33.6038 223.825 33.8249 223.778 34.0417C223.615 34.8487 223.218 35.5899 222.637 36.1726C222.204 36.6103 221.679 36.9458 221.101 37.1547C220.522 37.3636 219.904 37.4405 219.292 37.3799C218.56 37.3259 217.856 37.0826 217.247 36.674C216.633 36.2113 216.083 35.6701 215.611 35.0643C215.151 34.4873 214.616 33.9747 214.021 33.5403C213.458 33.148 212.84 32.8432 212.187 32.6365C211.072 32.2896 209.886 32.2464 208.749 32.5111C207.98 32.6946 207.247 33.0045 206.579 33.4281C206.104 33.7316 205.866 33.9361 205.853 33.9163C206.037 33.6794 206.26 33.4763 206.513 33.316C207.169 32.8355 207.91 32.484 208.697 32.2802C209.875 31.9658 211.117 31.9841 212.286 32.333C212.974 32.5424 213.626 32.8561 214.218 33.2632C214.843 33.7099 215.402 34.2404 215.881 34.84C216.334 35.423 216.86 35.9462 217.445 36.3969C218.007 36.7697 218.653 36.9964 219.325 37.0566C219.896 37.1182 220.475 37.0545 221.019 36.8699C221.564 36.6854 222.062 36.3844 222.478 35.9879C223.042 35.4462 223.45 34.7625 223.659 34.0087C223.798 33.4677 223.798 33.1511 223.85 33.1511Z" fill="#455A64"/>
<path d="M209.528 41.9451C209.429 42.2222 208.413 42.0903 207.225 42.2354C206.038 42.3806 205.075 42.7038 204.916 42.4597C204.844 42.341 205.009 42.0771 205.398 41.8C205.916 41.4725 206.502 41.2672 207.111 41.1997C207.72 41.1323 208.337 41.2045 208.914 41.4108C209.336 41.6021 209.574 41.8198 209.528 41.9451Z" fill="#263238"/>
<path d="M218.869 42.7962C218.691 43.0271 217.992 42.7962 217.154 42.7962C216.316 42.7962 215.597 42.9545 215.432 42.7104C215.366 42.5917 215.478 42.3608 215.789 42.1431C216.204 41.8739 216.693 41.7424 217.187 41.767C217.679 41.7783 218.155 41.9394 218.553 42.2288C218.85 42.4465 218.949 42.684 218.869 42.7962Z" fill="#263238"/>
<path d="M190.139 111.816C190.495 112.43 187.889 103.649 187.889 103.649L185.705 111.671L169.509 111.79C169.509 111.79 178.659 81.8781 183.007 77.7021C188.681 72.2528 199.315 71.9559 199.315 71.9559L205.682 77.3854L215.736 72.2198L216.105 72.2594C219.401 72.6649 222.546 73.8794 225.259 75.7948C227.972 77.7102 230.169 80.2669 231.655 83.2372L242.56 111.493H228.165L225.091 103.154L226.12 111.493" fill="#6FC78A"/>
<path d="M194.163 72.6024L208.756 105.8L216.132 72.2594C216.132 72.2594 214.086 72.1406 211.164 72.0285C209.548 71.9691 207.661 78.3618 205.708 78.3288C204.455 78.3288 203.181 71.8438 201.921 71.8504C200.331 71.8504 198.781 71.8504 197.369 71.9559C196.142 72.0219 195.067 72.5167 194.163 72.6024Z" fill="#FAFAFA"/>
<path d="M196.907 72.9125V69.8646C196.907 69.8646 205.602 69.9834 205.754 76.9434C205.754 76.9434 206.988 70.0823 214.007 69.8646L214.456 72.2L212.477 80.2024L207.41 83.5736H200.582L197.758 79.8594L196.907 72.9125Z" fill="#FAFAFA"/>
<path d="M208.631 106.684C208.643 106.557 208.672 106.433 208.716 106.314C208.827 105.964 208.968 105.624 209.139 105.298C209.42 104.788 209.766 104.315 210.168 103.893C210.63 103.392 211.184 102.864 211.744 102.237C213.141 100.835 214.359 99.2659 215.373 97.5663C215.925 96.5497 216.242 95.4228 216.303 94.2677C216.392 93.0316 216.034 91.8047 215.294 90.8108L215.063 90.5139H215.445C215.592 90.5301 215.741 90.5301 215.888 90.5139C216.495 90.3883 217.037 90.046 217.411 89.5507C217.785 89.0648 218.024 88.4891 218.104 87.8816C218.194 86.696 218.103 85.5036 217.834 84.3455C217.458 82.0761 217.115 80.0309 216.831 78.2958C216.547 76.5608 216.343 75.2281 216.171 74.2188C216.112 73.7636 216.059 73.4007 216.013 73.1038C215.99 72.9754 215.979 72.8451 215.98 72.7146C216.029 72.838 216.064 72.9663 216.085 73.0972C216.138 73.3809 216.217 73.757 216.303 74.1924C216.494 75.2017 216.752 76.574 217.062 78.2563L218.137 84.2861C218.427 85.4791 218.525 86.7106 218.427 87.9344C218.344 88.6008 218.082 89.2323 217.669 89.7618C217.245 90.3271 216.627 90.7151 215.934 90.8504C215.76 90.8698 215.586 90.8698 215.412 90.8504L215.558 90.5733C216.35 91.6298 216.732 92.9377 216.633 94.2545C216.567 95.4603 216.229 96.6355 215.643 97.6917C214.605 99.4074 213.353 100.984 211.916 102.382C211.335 103.002 210.768 103.524 210.3 104.005C209.896 104.401 209.542 104.844 209.244 105.325C208.789 106.176 208.677 106.697 208.631 106.684Z" fill="#263238"/>
<path d="M208.631 106.4C208.528 106.311 208.437 106.209 208.36 106.097L207.615 105.206C206.955 104.434 206.011 103.339 204.804 102.006C203.597 100.674 202.165 99.0837 200.694 97.1837C199.9 96.2066 199.216 95.1446 198.656 94.017C198.043 92.7589 197.955 91.309 198.411 89.9861C198.484 89.8082 198.57 89.6362 198.669 89.4715L198.755 89.7222C197.486 89.2638 196.359 88.4841 195.482 87.4594C194.674 86.524 194.039 85.4516 193.609 84.2927C192.916 82.3351 192.639 80.2543 192.797 78.1837C192.884 76.8032 193.05 75.4288 193.292 74.067C193.378 73.6184 193.444 73.2556 193.503 72.9653C193.517 72.8342 193.548 72.7056 193.596 72.5827C193.61 72.7142 193.61 72.8469 193.596 72.9785C193.556 73.2688 193.51 73.6382 193.45 74.0868C193.332 75.0566 193.127 76.4552 193.068 78.1969C192.942 80.2291 193.234 82.2656 193.925 84.1806C194.352 85.3007 194.973 86.3369 195.759 87.2417C196.597 88.2145 197.668 88.9571 198.873 89.399L199.065 89.4649L198.959 89.6497C198.874 89.7995 198.797 89.9537 198.728 90.1115C198.309 91.3495 198.394 92.703 198.966 93.8785C199.507 94.9872 200.171 96.0317 200.945 96.9924C202.37 98.8858 203.801 100.482 204.982 101.841C206.163 103.2 207.1 104.322 207.714 105.14C208.024 105.542 208.255 105.852 208.406 106.077C208.493 106.176 208.568 106.284 208.631 106.4Z" fill="#263238"/>
<path d="M208.472 111.744C208.324 110.759 208.291 109.761 208.373 108.768C208.347 107.775 208.432 106.781 208.624 105.806C208.798 107.785 208.747 109.777 208.472 111.744Z" fill="#263238"/>
<path d="M187.467 105.628C187.537 105.242 187.632 104.861 187.75 104.487C187.942 103.755 188.219 102.692 188.483 101.366C189.169 97.9146 189.435 94.3924 189.274 90.8768C189.217 88.9459 188.956 87.0265 188.496 85.1504C188.123 83.6219 187.423 82.1925 186.444 80.9611C185.783 80.1345 184.967 79.4444 184.043 78.9292C183.383 78.5729 182.967 78.4608 182.981 78.4278C183.082 78.4391 183.181 78.4612 183.277 78.4938C183.561 78.5751 183.837 78.681 184.102 78.8104C185.076 79.2852 185.939 79.9595 186.635 80.7896C187.661 82.0351 188.402 83.4896 188.806 85.0514C189.286 86.9492 189.558 88.8936 189.617 90.8504C189.784 94.393 189.482 97.9422 188.72 101.406C188.423 102.725 188.113 103.788 187.882 104.513C187.764 104.869 187.658 105.173 187.592 105.338C187.526 105.503 187.48 105.668 187.467 105.628Z" fill="#263238"/>
<path d="M225.216 100.251C225.173 99.8858 225.157 99.5175 225.17 99.1497C225.17 98.4372 225.17 97.4146 225.104 96.1479C224.99 92.8517 224.702 89.5639 224.24 86.2983C223.597 81.9646 222.67 77.678 221.462 73.4667L221.416 73.2951L221.548 73.4007C221.785 73.5664 222.006 73.7541 222.208 73.9615C221.954 73.8273 221.714 73.6706 221.489 73.4931L221.581 73.4337C222.97 77.606 223.975 81.8967 224.583 86.2521C225.054 89.5305 225.312 92.8361 225.355 96.1479C225.355 97.4212 225.355 98.4504 225.308 99.1563C225.309 99.5233 225.278 99.8897 225.216 100.251Z" fill="#263238"/>
<path d="M204.138 72.9983C204.138 73.0313 203.973 72.9983 203.749 73.1764C203.455 73.4272 203.229 73.7468 203.089 74.1066C202.461 75.305 202.069 76.613 201.934 77.9594L201.888 78.3882L201.624 78.0386L201.149 77.3788C200.048 75.9472 198.966 74.74 198.167 73.8427C197.707 73.3961 197.282 72.9153 196.894 72.4045C197.423 72.7747 197.91 73.2016 198.345 73.6778C199.448 74.7705 200.475 75.9364 201.42 77.1677L201.901 77.8275L201.591 77.9066C201.746 76.521 202.196 75.1847 202.911 73.9879C203.095 73.6042 203.383 73.2797 203.742 73.0511C203.96 72.9257 204.144 72.9851 204.138 72.9983Z" fill="#263238"/>
<path d="M214.344 72.3452C214.004 72.9181 213.613 73.4591 213.176 73.9615C212.424 74.9379 211.362 76.2705 210.174 77.7285L209.548 78.4938L209.257 78.85V78.3882C209.264 77.6307 209.209 76.8739 209.092 76.1254C208.995 75.5344 208.784 74.9677 208.472 74.4563C208.169 74.0008 207.784 73.605 207.338 73.2886C207.49 73.3145 207.635 73.3755 207.76 73.4667C208.124 73.6858 208.437 73.9805 208.677 74.3309C209.035 74.8558 209.282 75.4485 209.403 76.0726C209.544 76.8341 209.614 77.6071 209.614 78.3816L209.31 78.2827L209.937 77.5108C211.124 76.0528 212.213 74.7465 213.018 73.8097C213.417 73.2843 213.86 72.7942 214.344 72.3452Z" fill="#263238"/>
<path d="M208.34 105.008C208.26 104.645 208.207 104.277 208.182 103.906C208.096 103.134 207.991 102.125 207.859 100.898C207.601 98.3514 207.278 94.8351 206.935 90.9493C206.592 87.0636 206.275 83.5473 206.104 80.9941C206.018 79.767 205.952 78.7511 205.893 77.9792C205.861 77.6082 205.861 77.2352 205.893 76.8643C205.974 77.2272 206.029 77.5953 206.058 77.966C206.137 78.7379 206.242 79.7473 206.374 80.9743C206.632 83.5209 206.961 87.0372 207.305 90.9229C207.648 94.8087 207.964 98.325 208.129 100.872C208.215 102.105 208.288 103.121 208.34 103.893C208.372 104.264 208.372 104.637 208.34 105.008Z" fill="#263238"/>
<path d="M208.36 82.9271C208.36 82.8941 208.604 82.7292 208.96 82.9667C209.063 83.0369 209.147 83.1303 209.207 83.2391C209.266 83.348 209.299 83.4694 209.304 83.5934C209.289 83.7497 209.228 83.8982 209.13 84.0206C209.032 84.143 208.9 84.234 208.75 84.2824C208.601 84.3307 208.441 84.3344 208.289 84.2929C208.138 84.2513 208.002 84.1664 207.898 84.0486C207.828 83.9468 207.783 83.8296 207.767 83.7068C207.751 83.5841 207.764 83.4592 207.806 83.3427C207.958 82.9403 208.274 82.9139 208.268 82.9535C208.261 82.9931 208.09 83.1052 208.043 83.4021C208.028 83.4801 208.029 83.5605 208.047 83.6379C208.066 83.7153 208.1 83.7879 208.149 83.8507C208.212 83.9157 208.292 83.9609 208.38 83.9808C208.468 84.0007 208.559 83.9945 208.644 83.9629C208.732 83.9395 208.812 83.8908 208.872 83.8228C208.933 83.7548 208.973 83.6705 208.987 83.5802C208.988 83.5013 208.973 83.423 208.942 83.3503C208.912 83.2776 208.866 83.2121 208.809 83.158C208.591 82.9403 208.367 82.9799 208.36 82.9271Z" fill="#263238"/>
<path d="M209.627 91.1538C209.627 91.1142 209.917 91.0087 210.214 91.3254C210.302 91.4167 210.366 91.5283 210.4 91.6503C210.435 91.7722 210.439 91.9008 210.412 92.0247C210.365 92.1808 210.269 92.3178 210.138 92.4152C210.008 92.5127 209.849 92.5654 209.686 92.5656C209.524 92.5808 209.362 92.5425 209.224 92.4568C209.085 92.371 208.979 92.2424 208.921 92.0906C208.882 91.9692 208.873 91.84 208.896 91.7145C208.919 91.589 208.973 91.4712 209.053 91.3715C209.323 91.0351 209.647 91.1142 209.62 91.1538C209.594 91.1934 209.396 91.233 209.257 91.5101C209.217 91.5805 209.192 91.6589 209.185 91.7399C209.179 91.8208 209.19 91.9023 209.218 91.9785C209.259 92.0611 209.325 92.1289 209.407 92.1726C209.488 92.2163 209.581 92.2338 209.673 92.2226C209.766 92.2254 209.857 92.1997 209.935 92.149C210.013 92.0983 210.073 92.025 210.108 91.9389C210.128 91.8606 210.13 91.7792 210.117 91.6998C210.103 91.6203 210.073 91.5445 210.029 91.4771C209.858 91.1868 209.627 91.1538 209.627 91.1538Z" fill="#263238"/>
<g opacity="0.3">
<path d="M193.305 72.9983C192.072 77.3854 190.904 82.3531 193.2 86.2917C193.859 87.4792 194.862 88.4886 195.509 89.7024C196.624 91.7806 196.696 94.2479 197.389 96.4976C198.781 101.056 203.755 105.49 208.472 106.182C206.038 103.22 202.271 99.3608 200.028 96.0028C199.315 95.1274 198.789 94.1146 198.484 93.0274C198.207 91.807 198.002 90.5139 198.814 89.5573C195.66 89.0691 193.866 85.8101 193.299 82.6698C192.774 79.5122 192.907 76.2805 193.688 73.1764" fill="black"/>
</g>
<g opacity="0.3">
<path d="M225.348 96.3327C224.563 101.043 225.091 107.218 227.987 111.018C229.049 105.846 228.521 99.0837 225.348 94.8417" fill="black"/>
</g>
<path d="M148.253 38.574H70.709V168.13H148.253V38.574Z" fill="#F5F5F5"/>
<path d="M91.2792 114.864L92.1104 116.547L93.9709 116.817L92.625 118.123L92.9417 119.977L91.2792 119.106L89.6167 119.977L89.94 118.123L88.5941 116.817L90.4479 116.547L91.2792 114.864Z" fill="#6FC78A"/>
<path d="M100.515 114.864L101.347 116.547L103.207 116.817L101.861 118.123L102.178 119.977L100.515 119.106L98.8528 119.977L99.1694 118.123L97.8236 116.817L99.684 116.547L100.515 114.864Z" fill="#6FC78A"/>
<path d="M109.745 114.864L110.576 116.547L112.436 116.817L111.091 118.123L111.407 119.977L109.745 119.106L108.089 119.977L108.406 118.123L107.06 116.817L108.914 116.547L109.745 114.864Z" fill="#6FC78A"/>
<path d="M118.981 114.864L119.812 116.547L121.673 116.817L120.327 118.123L120.643 119.977L118.981 119.106L117.318 119.977L117.635 118.123L116.289 116.817L118.15 116.547L118.981 114.864Z" fill="#6FC78A"/>
<path d="M128.21 114.864L129.042 116.547L130.902 116.817L129.556 118.123L129.873 119.977L128.21 119.106L126.548 119.977L126.871 118.123L125.525 116.817L127.386 116.547L128.21 114.864Z" fill="#6FC78A"/>
<path d="M106.314 130.077C106.314 130.17 100.43 130.249 93.166 130.249C85.9024 130.249 80.0309 130.143 80.0309 130.077C80.0309 130.011 85.9222 129.906 93.1791 129.906C100.436 129.906 106.314 129.952 106.314 130.077Z" fill="#6FC78A"/>
<path d="M139.36 135.758C139.36 135.85 126.231 135.929 110.035 135.929C93.8389 135.929 80.7104 135.85 80.7104 135.758C80.7104 135.665 93.8389 135.586 110.035 135.586C126.231 135.586 139.36 135.665 139.36 135.758Z" fill="#263238"/>
<path d="M139.36 140.666C139.36 140.758 126.231 140.838 110.035 140.838C93.8389 140.838 80.7104 140.758 80.7104 140.666C80.7104 140.574 93.8389 140.488 110.035 140.488C126.231 140.488 139.36 140.567 139.36 140.666Z" fill="#263238"/>
<path d="M139.36 145.568C139.36 145.66 126.231 145.739 110.035 145.739C93.8389 145.739 80.7104 145.66 80.7104 145.568C80.7104 145.475 93.8389 145.396 110.035 145.396C126.231 145.396 139.36 145.475 139.36 145.568Z" fill="#263238"/>
<path d="M139.36 150.476C139.36 150.568 126.231 150.648 110.035 150.648C93.8389 150.648 80.7104 150.568 80.7104 150.476C80.7104 150.384 93.8389 150.305 110.035 150.305C126.231 150.305 139.36 150.377 139.36 150.476Z" fill="#263238"/>
<path d="M139.36 155.378C139.36 155.477 126.231 155.549 110.035 155.549C93.8389 155.549 80.6906 155.477 80.6906 155.378C80.6906 155.279 93.8191 155.206 110.015 155.206C126.211 155.206 139.36 155.285 139.36 155.378Z" fill="#263238"/>
<path d="M142.487 45.1514H75.6899V109.276H142.487V45.1514Z" fill="#E0E0E0"/>
<path d="M113.189 76.9302C113.189 78.5993 113.34 79.5691 113.354 81.2514C113.329 81.4586 113.348 81.6686 113.411 81.8677C113.473 82.0667 113.577 82.2502 113.716 82.4059C113.862 82.5052 114.032 82.5621 114.208 82.5702C114.384 82.5784 114.559 82.5375 114.713 82.4521C115.018 82.2755 115.283 82.0374 115.491 81.7528C117.342 79.4726 118.458 76.6846 118.691 73.757C118.716 73.6339 118.717 73.507 118.693 73.3836C118.669 73.2602 118.621 73.1427 118.552 73.0378C118.288 72.7344 117.8 72.8465 117.437 73.0378C115.631 73.8484 114.139 75.2268 113.189 76.9632" fill="#263238"/>
<path d="M101.973 56.9802L102.006 58.6427L102.343 83.5802C102.375 84.2878 102.547 84.9819 102.849 85.6224C103.152 86.2629 103.578 86.837 104.104 87.3114C104.63 87.7858 105.245 88.1511 105.913 88.386C106.581 88.6209 107.289 88.7208 107.997 88.6799C111.13 88.6139 113.67 86.1927 113.683 83.2636C113.683 80.1958 113.756 76.9632 113.756 76.9632C113.756 76.9632 117.714 76.3035 118.532 71.1511C118.935 68.5847 118.809 64.3757 118.592 60.9386C118.546 60.2048 118.352 59.4879 118.022 58.8309C117.692 58.174 117.232 57.5907 116.671 57.1161C116.109 56.6415 115.457 56.2855 114.755 56.0694C114.052 55.8533 113.313 55.7816 112.582 55.8587L101.973 56.9802Z" fill="#FFBE9D"/>
<path d="M116.606 63.8677C116.606 64.0427 116.536 64.2105 116.413 64.3342C116.289 64.4579 116.121 64.5274 115.946 64.5274C115.782 64.5283 115.624 64.4679 115.502 64.3581C115.38 64.2483 115.303 64.097 115.286 63.9337C115.286 63.7587 115.356 63.5909 115.48 63.4672C115.603 63.3435 115.771 63.274 115.946 63.274C116.11 63.2731 116.269 63.3335 116.391 63.4433C116.513 63.5531 116.589 63.7044 116.606 63.8677Z" fill="#263238"/>
<path d="M117.681 63.1222C117.596 63.2146 117.094 62.8385 116.362 62.8451C115.63 62.8517 115.128 63.2014 115.042 63.1156C114.957 63.0299 115.082 62.9177 115.313 62.7528C115.621 62.5405 115.987 62.4277 116.362 62.4295C116.731 62.4266 117.092 62.5423 117.391 62.7594C117.635 62.9309 117.721 63.0892 117.681 63.1222Z" fill="#263238"/>
<path d="M109.718 63.8677C109.718 64.0427 109.649 64.2105 109.525 64.3342C109.401 64.4579 109.234 64.5274 109.059 64.5274C108.895 64.5283 108.736 64.4679 108.614 64.3581C108.492 64.2483 108.415 64.097 108.399 63.9337C108.399 63.7587 108.468 63.5909 108.592 63.4672C108.716 63.3435 108.884 63.274 109.059 63.274C109.223 63.2731 109.381 63.3335 109.503 63.4433C109.625 63.5531 109.702 63.7044 109.718 63.8677Z" fill="#263238"/>
<path d="M110.682 63.2608C110.596 63.3465 110.094 62.9705 109.362 62.9771C108.63 62.9837 108.128 63.3333 108.043 63.2476C107.957 63.1618 108.082 63.0497 108.313 62.8847C108.622 62.6724 108.988 62.5596 109.362 62.5615C109.732 62.5605 110.093 62.6784 110.391 62.8979C110.642 63.0629 110.721 63.2212 110.682 63.2608Z" fill="#263238"/>
<path d="M113.261 68.5386C113.638 68.4209 114.028 68.3499 114.422 68.3274C114.6 68.3274 114.772 68.2747 114.805 68.1493C114.819 67.9634 114.777 67.7776 114.686 67.615C114.515 67.1729 114.336 66.7111 114.145 66.2295C113.648 65.056 113.244 63.8449 112.938 62.6077C113.532 63.737 114.033 64.913 114.435 66.124L114.95 67.516C115.062 67.7357 115.095 67.9874 115.042 68.2285C115.018 68.2935 114.979 68.3515 114.927 68.3975C114.875 68.4435 114.813 68.4761 114.745 68.4924C114.645 68.522 114.54 68.5375 114.435 68.5386C114.046 68.5885 113.651 68.5885 113.261 68.5386Z" fill="#263238"/>
<path d="M113.756 76.9632C111.327 77.0007 108.936 76.3635 106.849 75.1226C106.849 75.1226 108.524 78.6653 113.683 78.1837L113.756 76.9632Z" fill="#EB996E"/>
<path d="M112.964 70.2538C112.826 70.0855 112.648 69.954 112.447 69.8711C112.245 69.7883 112.026 69.7566 111.81 69.7788C111.653 69.7938 111.501 69.8401 111.363 69.9149C111.225 69.9897 111.103 70.0915 111.005 70.2142C110.908 70.3311 110.85 70.4754 110.839 70.6269C110.829 70.7784 110.866 70.9294 110.946 71.0587C111.06 71.1878 111.21 71.2796 111.377 71.322C111.544 71.3643 111.72 71.3553 111.882 71.2962C112.218 71.177 112.527 70.9932 112.793 70.7552C112.871 70.6949 112.939 70.6238 112.997 70.5441C113.023 70.505 113.037 70.4591 113.037 70.4122C113.037 70.3652 113.023 70.3193 112.997 70.2802" fill="#EB996E"/>
<path d="M111.17 69.0334C111.282 69.0334 111.289 69.7986 111.948 70.3528C112.608 70.907 113.433 70.8146 113.439 70.9268C113.446 71.0389 113.255 71.0719 112.905 71.0851C112.453 71.0916 112.013 70.9372 111.665 70.6497C111.325 70.3766 111.107 69.9807 111.058 69.5479C111.038 69.2181 111.117 69.0268 111.17 69.0334Z" fill="#263238"/>
<path d="M97.2629 109.488C97.507 109.916 95.6796 103.755 95.6796 103.755L94.149 109.382L82.7886 109.468C82.7886 109.468 89.2077 88.482 92.2556 85.5528C96.2139 81.7264 103.695 81.5219 103.695 81.5219L115.221 81.7066H115.478C117.792 81.9929 120 82.8475 121.904 84.1943C123.808 85.5412 125.349 87.3383 126.39 89.4254L134.036 109.25H123.935L121.785 103.398L122.504 109.25" fill="#263238"/>
<path d="M120.426 81.0271C120.076 80.1958 118.809 80.2288 118.255 79.5229C117.701 78.817 118.183 77.6493 118.638 76.7719C120.822 72.5629 120.617 67.5358 120.201 62.8254C120.03 60.8 119.825 58.7351 118.948 56.8879C117.2 53.233 112.971 50.3434 107.733 50.5809C103.451 50.7458 100.192 54.6052 97.8764 58.2139C95.5608 61.8226 94.3271 67.45 95.0858 71.692C95.4684 73.8031 97.7247 75.4326 97.3288 77.5372C97.0649 78.8566 95.6795 80.4531 95.95 81.7792C96.3195 83.5868 98.9451 84.2135 100.482 85.2427C102.012 86.3696 103.444 87.6231 104.764 88.9899C106.093 90.3561 107.696 91.4261 109.468 92.1302C111.269 92.7372 113.426 92.625 114.877 91.4177C117.272 89.4385 117.041 85.5264 119.218 83.3229C119.852 82.6698 120.789 81.9177 120.426 81.0271ZM117.048 58.2139C117.925 59.5333 117.998 61.242 118.202 62.832C118.629 65.4891 118.66 68.1946 118.295 70.8608C117.919 73.5417 116.691 76.0306 114.792 77.9594C113.834 78.9085 112.659 79.6091 111.369 80C110.079 80.391 108.713 80.4605 107.39 80.2024C104.454 79.5427 103.51 76.9038 102.679 74.034C101.848 71.1642 103.702 68.4924 104.526 65.5962C105.186 63.3597 105.404 60.2063 106.849 58.3854C108.293 56.5646 110.688 56.4392 111.394 56.4722C111.394 56.4656 115.286 55.5618 117.048 58.2139Z" fill="#6FC78A"/>
<g opacity="0.3">
<path d="M96.2139 79.6615C97.9555 80.6049 99.3212 82.1025 100.74 83.4879C102.158 84.8733 103.735 86.2191 105.654 86.7139C107.574 87.2087 109.91 86.6215 110.866 84.8865C108.119 85.2858 105.318 84.7409 102.922 83.3411C100.525 81.9413 98.6738 79.7695 97.6719 77.1809" fill="black"/>
</g>
<g opacity="0.3">
<path d="M117.971 78.4278C117.79 79.1138 117.466 79.7541 117.022 80.3075C116.578 80.8609 116.023 81.315 115.392 81.6406C115.093 81.7625 114.813 81.927 114.561 82.1288C114.436 82.2318 114.345 82.3697 114.299 82.5249C114.253 82.6801 114.255 82.8454 114.303 82.9997C114.397 83.1556 114.54 83.2749 114.711 83.3373C114.882 83.3998 115.068 83.4017 115.24 83.3427C115.579 83.21 115.882 82.9999 116.124 82.7292C117.074 81.8122 118.064 80.816 118.334 79.5229" fill="black"/>
</g>
<path d="M359.432 109.646C360.666 104.453 357.457 99.2428 352.264 98.0085C347.071 96.7742 341.86 99.9834 340.626 105.177C339.392 110.37 342.601 115.58 347.794 116.814C352.987 118.049 358.198 114.84 359.432 109.646Z" fill="#E0E0E0"/>
<path d="M348.538 111.519C348.946 111.056 349.399 110.634 349.89 110.259C350.761 109.521 351.975 108.511 353.334 107.409V107.673L353.268 107.614C351.949 106.453 350.735 105.391 349.877 104.606C349.397 104.208 348.956 103.766 348.558 103.286C349.087 103.62 349.586 104 350.049 104.421C350.946 105.16 352.166 106.196 353.506 107.357L353.572 107.409L353.73 107.548L353.565 107.673C352.213 108.775 350.972 109.758 350.069 110.451C349.59 110.85 349.078 111.207 348.538 111.519Z" fill="#263238"/>
<path d="M74.9142 110.007C76.1419 104.829 72.9398 99.6364 67.7621 98.4087C62.5845 97.181 57.3919 100.383 56.1642 105.561C54.9365 110.738 58.1386 115.931 63.3163 117.159C68.4939 118.386 73.6865 115.184 74.9142 110.007Z" fill="#E0E0E0"/>
<path d="M67.4962 103.286C67.0806 103.743 66.6258 104.162 66.1372 104.54C65.2664 105.285 64.0591 106.294 62.7 107.396V107.132L62.7726 107.192C64.092 108.353 65.3059 109.415 66.157 110.2C66.6374 110.597 67.0791 111.039 67.4764 111.519C66.9437 111.185 66.4424 110.803 65.9788 110.378C65.0816 109.646 63.8611 108.61 62.5285 107.449L62.4559 107.39L62.3042 107.258L62.4625 107.126C63.8216 106.031 65.0618 105.048 65.9657 104.355C66.4396 103.949 66.9522 103.591 67.4962 103.286Z" fill="#263238"/>
<path d="M171.435 12.8118C158.484 19.693 147.863 30.2599 140.917 43.1765C133.97 56.0932 131.01 70.7795 132.409 85.3786C133.809 99.9777 139.506 113.834 148.78 125.196C158.054 136.557 170.488 144.914 184.511 149.209C195.913 152.697 207.988 153.382 219.711 151.205C231.434 149.029 242.459 144.055 251.849 136.708L314.344 214.885L323.904 207.265L260.881 128.428C268.351 120.306 273.906 110.612 277.136 100.06C277.922 97.4975 278.569 94.8944 279.076 92.2622C281.708 78.5231 280.401 64.3198 275.305 51.2919C270.21 38.264 261.534 26.9429 250.279 18.6354C239.024 10.3279 225.649 5.37296 211.698 4.34251C197.747 3.31206 183.789 6.24816 171.435 12.8118ZM224.352 19.099C238.052 23.2923 249.874 32.1063 257.804 44.0392C265.735 55.9721 269.282 70.2855 267.841 84.5406C266.401 98.7956 260.063 112.11 249.906 122.216C239.749 132.321 226.403 138.592 212.141 139.961C197.878 141.329 183.583 137.709 171.691 129.719C159.798 121.729 151.044 109.862 146.92 96.1407C142.796 82.4194 143.557 67.6927 149.074 54.4698C154.591 41.247 164.522 30.3461 177.175 23.6247C184.349 19.7885 192.212 17.4133 200.31 16.6365C208.408 15.8597 216.579 16.6966 224.352 19.099Z" fill="#455A64"/>
</svg>
