<svg width="337" height="325" viewBox="0 0 337 325" fill="none" xmlns="http://www.w3.org/2000/svg">
<path d="M103.889 52.6855C104.129 55.2884 104.187 57.9049 104.062 60.5159C103.996 61.8371 103.854 63.1534 103.637 64.4583C103.517 65.1278 103.355 65.7893 103.154 66.4388C103.048 66.7788 102.921 67.1116 102.772 67.4351L102.589 67.8427C102.546 67.9559 102.511 68.0724 102.485 68.1911C102.337 69.2837 102.584 70.3933 103.181 71.3203C103.786 72.3886 104.507 73.3879 105.329 74.3003L105.953 75.0014L106.275 75.3434L106.439 75.5121C106.53 75.6048 106.614 75.7048 106.689 75.8113C106.99 76.2433 107.117 76.7725 107.047 77.2943C107.011 77.55 106.929 77.7969 106.803 78.0223C106.702 78.1895 106.591 78.3503 106.471 78.5038C105.626 79.7121 104.363 80.5649 102.927 80.8981L103.328 80.5684C102.218 82.6874 100.985 84.7398 99.6363 86.7153C98.3385 88.7311 96.8097 90.5884 95.081 92.2496C94.1848 93.0997 93.1463 93.786 92.0128 94.277C91.414 94.52 90.7788 94.6613 90.1335 94.6952C89.8037 94.7073 89.4735 94.6891 89.1471 94.6407L88.2489 94.4805C87.0439 94.2678 85.8599 93.9498 84.7104 93.5301C84.1054 93.3005 83.5277 93.0045 82.9879 92.6476C82.6886 92.4497 82.4151 92.2152 82.1739 91.9496C82.0338 91.7981 81.9125 91.6302 81.8127 91.4496C81.7532 91.3464 81.7035 91.238 81.6641 91.1257C81.6022 90.96 81.5723 90.784 81.576 90.6072L82.8526 91.3269C81.1794 92.7027 79.7826 94.3836 78.7364 96.2805C78.2081 97.2247 77.7802 98.2218 77.4599 99.2553C77.1415 100.285 76.9105 101.34 76.7694 102.408L76.7612 102.46C76.7278 102.67 76.6295 102.865 76.4801 103.017C76.3306 103.17 76.1374 103.271 75.9274 103.308C75.7174 103.346 75.501 103.316 75.3084 103.225C75.1158 103.133 74.9567 102.983 74.8531 102.797C73.6373 100.573 72.6474 98.2321 71.8984 95.8104C71.1339 93.4058 70.6144 90.9302 70.3476 88.4211C70.0594 85.9099 70.128 83.3705 70.5512 80.8784C70.96 78.4005 71.8211 76.019 73.0914 73.8525C73.1044 73.8304 73.1257 73.8143 73.1506 73.8078C73.1754 73.8013 73.2019 73.8049 73.2241 73.8179C73.2438 73.8303 73.2586 73.8492 73.266 73.8714C73.2734 73.8935 73.2728 73.9175 73.2645 73.9393C72.8115 75.0741 72.4414 76.2403 72.1571 77.4287C71.891 78.6092 71.7064 79.8066 71.6048 81.0125C71.4409 83.4164 71.5563 85.8313 71.9487 88.2087C72.3526 90.5837 72.9624 92.9191 73.7711 95.1884C74.5579 97.4512 75.5168 99.6505 76.6392 101.767L74.7229 102.156C75.0475 99.7471 75.8553 97.4286 77.0978 95.3395C77.7074 94.3003 78.419 93.3245 79.2221 92.4264C80.0231 91.5063 80.9316 90.6858 81.9281 89.9823L83.2049 90.7022C83.2043 90.5394 83.1968 90.6235 83.202 90.6171C83.2092 90.6451 83.2199 90.6722 83.234 90.6975C83.2721 90.7787 83.3211 90.8544 83.3797 90.9223C83.5281 91.1027 83.6986 91.2638 83.8872 91.4016C84.3206 91.719 84.7867 91.9892 85.2775 92.2077C86.3191 92.6852 87.4003 93.0709 88.5089 93.3604C90.646 94.2325 92.8797 93.236 94.6381 91.7411C96.3906 90.187 97.8971 88.3761 99.1064 86.3702C100.333 84.3706 101.391 82.272 102.268 80.0962C102.299 80.0201 102.347 79.9521 102.408 79.8973C102.469 79.8424 102.542 79.8023 102.621 79.7798L102.669 79.7663C103.76 79.4015 104.679 78.6475 105.249 77.6484C105.32 77.5402 105.385 77.4281 105.444 77.3127C105.469 77.2502 105.483 77.1832 105.483 77.1157C105.485 76.9862 105.443 76.8599 105.364 76.7575C105.343 76.7329 105.321 76.7097 105.297 76.6879L105.114 76.5158L104.752 76.1663C104.514 75.9303 104.278 75.6911 104.05 75.4435C103.115 74.4439 102.312 73.3279 101.661 72.1232C100.884 70.8194 100.616 69.2746 100.909 67.7852C100.962 67.5894 101.03 67.398 101.113 67.2127L101.35 66.7422C101.484 66.4821 101.601 66.2134 101.701 65.9378C101.91 65.3569 102.084 64.7637 102.222 64.1615C102.515 62.922 102.744 61.6681 102.908 60.4049C103.262 57.8601 103.503 55.2782 103.696 52.6889C103.697 52.6632 103.709 52.6391 103.728 52.6219C103.747 52.6047 103.772 52.5959 103.798 52.5973C103.821 52.5989 103.843 52.6087 103.86 52.6248C103.876 52.6409 103.887 52.6624 103.889 52.6855Z" fill="#020202"/>
<path d="M75.7463 78.0779C76.0808 79.8779 76.6473 81.627 77.4315 83.2814C77.823 84.0826 78.3089 84.8341 78.8787 85.52C79.4749 86.2225 80.1341 86.8689 80.8482 87.4511C79.9147 87.1801 79.0555 86.6992 78.3362 86.0454C77.6024 85.3893 77.0018 84.5982 76.5669 83.7152C76.1368 82.8412 75.8439 81.9061 75.6986 80.9429C75.5416 79.9929 75.5578 79.0222 75.7463 78.0779Z" fill="#020202"/>
<path d="M73.1781 73.8958C65.8712 91.0835 75.7463 102.282 75.7463 102.282C57.6768 98.394 48.2947 109.267 48.2947 109.267C43.426 98.8495 32.2025 100.384 32.2025 100.384C32.2025 100.384 25.3209 93.2648 34.1009 87.4511C40.2469 83.3814 41.0442 79.6025 40.9695 77.7014C40.8658 75.9844 41.0683 74.2627 41.5673 72.6165C42.3461 70.231 43.5244 67.995 45.052 66.004C47.5605 62.7856 49.4462 59.1271 50.612 55.2166C53.1113 46.6016 59.0242 32.8863 71.2164 33.7036C74.3018 33.4116 77.4134 33.5715 80.4527 34.1782C84.6279 35.0645 88.5991 36.7282 92.1593 39.0823C96.5773 41.8124 100.485 45.2921 103.708 49.3651C104.081 52.8637 103.304 56.3888 101.493 59.4056C98.203 64.7258 92.5943 66.3406 89.4743 66.8306C88.414 67.016 87.3238 66.9257 86.3084 66.5684C85.2931 66.2111 84.3866 65.5988 83.676 64.7903C83.1735 64.1955 82.7954 63.506 82.5641 62.7625C82.2779 61.6736 81.7738 60.654 81.0824 59.7653C80.3911 58.8766 79.5267 58.1373 78.5417 57.592C76.1067 56.3867 73.1262 56.7509 71.7123 64.0774C70.5355 70.1755 71.6256 72.8249 73.1781 73.8958Z" fill="#020202"/>
<path d="M183.754 180.824C180.45 181.401 177.116 181.787 173.768 181.982C170.438 182.204 167.108 182.321 163.778 182.333C160.448 182.351 157.118 182.245 153.787 182.044C150.438 181.87 147.101 181.501 143.794 180.94C147.098 180.36 150.433 179.972 153.781 179.778C157.11 179.558 160.44 179.433 163.77 179.431C167.099 179.419 170.429 179.517 173.76 179.725C177.11 179.9 180.446 180.267 183.754 180.824Z" fill="#020202"/>
<path d="M108.122 181.153C101.609 181.696 95.0765 181.979 88.5413 182.175L86.09 182.249L84.8642 182.282C84.4347 182.306 84.0039 182.297 83.5758 182.256C81.6878 182.101 79.8702 181.469 78.2943 180.418C76.7974 179.426 75.4654 178.206 74.3467 176.802C73.2222 175.438 72.2514 173.954 71.4519 172.378C71.4223 172.32 71.3979 172.259 71.3789 172.197L71.3589 172.129C69.4521 165.728 67.5035 159.319 65.513 152.902C64.4957 149.701 63.4396 146.509 62.3447 143.327L60.5933 138.597L58.7101 133.917C57.4017 130.819 56.0528 127.737 54.6163 124.696C53.1839 121.652 51.665 118.649 50.1476 115.648C48.6153 112.654 47.0531 109.677 45.4609 106.717C44.8328 105.456 43.8775 104.388 42.695 103.623C41.5125 102.858 40.1462 102.424 38.7389 102.368L28.7733 102.74C25.3921 102.84 22.0067 102.905 18.6073 102.894C15.2039 102.836 11.808 102.736 8.32061 102.334C7.44683 102.219 6.56681 102.082 5.65165 101.88C5.16957 101.776 4.69338 101.647 4.22514 101.493C3.59328 101.298 2.99969 100.996 2.47039 100.6C2.24292 100.417 2.04095 100.205 1.86991 99.9683C1.62237 99.621 1.46042 99.2201 1.39727 98.7983C1.37032 98.5723 1.36924 98.3439 1.39408 98.1177L1.46232 97.7916C1.50425 97.5844 1.56573 97.3817 1.64591 97.1862C1.77239 96.8748 1.92949 96.5768 2.11491 96.2966C2.26528 96.0553 2.43326 95.8254 2.61747 95.6088C3.24339 94.8724 3.93456 94.194 4.68255 93.5819C7.42324 91.4755 10.3001 89.5525 13.2943 87.8254L22.0077 82.7327C23.4387 81.8799 24.861 81.0073 26.1955 80.0809C26.5379 79.8504 26.8426 79.6153 27.1811 79.3702L28.3 78.59C28.6899 78.357 29.0939 78.1472 29.4886 77.9285C29.8936 77.7283 30.3176 77.5665 30.7311 77.392C32.4046 76.7901 34.1762 76.5078 35.9539 76.5599C37.6889 76.5784 39.4072 76.9016 41.0303 77.5147C41.0753 77.5322 41.1122 77.5658 41.1337 77.609C41.1552 77.6522 41.1597 77.7019 41.1465 77.7483C41.1332 77.7946 41.1031 77.8344 41.062 77.8597C41.0209 77.8851 40.9719 77.8941 40.9245 77.8851L40.907 77.8818C37.7081 77.1904 34.3704 77.5765 31.4139 78.9801C31.0738 79.1789 30.7201 79.3467 30.3909 79.5558L29.4334 80.2236L28.5508 80.9829C28.2339 81.2658 27.9001 81.5798 27.569 81.8548C26.2404 82.9896 24.8538 83.9802 23.4727 84.9769C20.7105 86.9623 17.8748 88.7858 15.1162 90.6864C12.3631 92.4705 9.72131 94.4209 7.20573 96.5268C6.66129 96.9945 6.15856 97.5086 5.70318 98.0633C5.61491 98.1678 5.53663 98.2803 5.4694 98.3993C5.42192 98.4698 5.38251 98.5453 5.35186 98.6246C5.31975 98.6694 5.36857 98.6244 5.35795 98.6227C5.35834 98.6157 5.35618 98.6088 5.35186 98.6033C5.37042 98.4819 5.36946 98.3584 5.34904 98.2373C5.3223 97.9388 5.18384 97.6614 4.96134 97.4605C4.91349 97.4241 5.18107 97.5726 5.47453 97.6505C5.80901 97.7498 6.14849 97.8314 6.49154 97.895C7.22445 98.037 8.01216 98.1424 8.80976 98.2258C12.0146 98.5898 15.3583 98.7104 18.6846 98.7948C22.0179 98.9096 25.3671 98.951 28.7187 98.9562L33.7493 98.9346L36.2659 98.9043C37.1152 98.9046 37.8835 98.8439 38.9472 98.9146C40.9228 99.0574 42.8205 99.7433 44.4308 100.897C46.0411 102.05 47.3013 103.626 48.0725 105.45C49.425 108.547 50.73 111.662 52.0272 114.778L55.8852 124.135L59.7946 133.461C64.957 145.892 71.0954 158.042 74.6834 171.17L74.5906 170.921C75.8538 173.605 77.7362 175.949 80.0829 177.763C81.1854 178.588 82.4805 179.117 83.8451 179.3C84.225 179.355 84.6087 179.38 84.9926 179.375L86.2083 179.422L88.6399 179.524C95.1259 179.794 101.615 180.15 108.122 180.766C108.174 180.77 108.221 180.795 108.254 180.834C108.288 180.873 108.304 180.924 108.3 180.976C108.295 181.021 108.275 181.064 108.243 181.096C108.211 181.129 108.168 181.149 108.122 181.153Z" fill="#020202"/>
<path d="M149.061 172.143C154.394 171.995 159.726 171.909 165.058 171.826L173.055 171.695L177.053 171.64C178.444 171.599 179.835 171.687 181.209 171.903C183.992 172.347 186.661 173.328 189.07 174.791C189.687 175.166 190.219 175.532 190.781 175.898C191.385 176.289 191.963 176.718 192.511 177.183C194.746 179.106 196.347 181.661 197.102 184.511C197.291 185.222 197.425 185.946 197.503 186.678C197.556 187.042 197.56 187.411 197.585 187.778L197.616 188.788L197.812 196.784L198.177 212.775L198.468 228.767C198.669 239.429 198.782 250.092 198.806 260.756L198.77 276.752L198.757 280.752C198.75 281.427 198.763 282.066 198.74 282.77C198.668 286.433 197.222 289.935 194.688 292.582C192.688 294.669 190.097 296.095 187.264 296.668C185.89 296.906 184.497 297.004 183.104 296.958L179.101 296.962L163.096 296.942C152.427 296.917 141.759 296.816 131.091 296.639C120.424 296.437 109.751 296.266 99.0845 295.795C88.4185 295.349 77.7441 294.845 67.0968 293.908C64.4332 293.698 61.7749 293.419 59.113 293.177C56.4537 292.944 53.7884 292.652 51.1208 292.348L47.1206 291.899L46.1208 291.783L45.6209 291.725C45.4935 291.709 45.3671 291.685 45.2424 291.654L44.9282 291.576C44.1639 291.363 43.4245 291.069 42.7225 290.7C41.3297 289.969 40.0927 288.974 39.0811 287.77C38.0953 286.567 37.3328 285.197 36.8297 283.726C35.9899 280.922 35.7342 277.975 36.0782 275.068C36.2566 272.531 36.2718 269.862 36.2713 267.231C36.2439 261.947 36.0508 256.645 35.7512 251.351C35.4386 246.057 35.0504 240.766 34.5868 235.48C34.1195 230.194 33.504 224.924 32.862 219.658C32.2127 214.392 31.463 209.141 30.6128 203.903C29.7362 198.672 28.8037 193.45 27.7474 188.253C25.688 177.847 23.0727 167.559 19.9128 157.433C18.3412 152.37 16.5958 147.365 14.7488 142.394C12.8104 137.463 10.8213 132.54 8.49424 127.774C7.40024 125.355 6.12266 123.033 4.93064 120.661C3.61406 118.291 2.52316 115.804 1.67234 113.23C0.859807 110.64 0.355191 107.964 0.168924 105.257C0.065168 103.882 0.198205 102.5 0.562235 101.171C0.753434 100.49 1.08839 99.8573 1.54453 99.3164C2.0172 98.7823 2.6294 98.3907 3.31237 98.1854C3.33635 98.1767 3.36179 98.1728 3.38728 98.1739C3.41276 98.1751 3.43777 98.1813 3.46086 98.1921C3.48394 98.203 3.50465 98.2183 3.52178 98.2372C3.53892 98.2561 3.55215 98.2782 3.56071 98.3022C3.56927 98.3263 3.573 98.3518 3.57168 98.3772C3.57035 98.4027 3.564 98.4277 3.55299 98.4507C3.54198 98.4737 3.52652 98.4943 3.50752 98.5113C3.48851 98.5283 3.46632 98.5414 3.44224 98.5498L3.42919 98.5545C2.84453 98.7852 2.32928 99.1629 1.93328 99.651C1.53728 100.139 1.27392 100.721 1.16868 101.341C0.91093 102.608 0.861826 103.91 1.02329 105.193C1.33306 107.8 1.94753 110.361 2.8541 112.825C3.80034 115.275 4.97539 117.63 6.36364 119.86C7.69764 122.183 9.0465 124.503 10.2463 126.9C15.1921 136.423 19.3863 146.318 22.7907 156.495C29.5328 176.866 34.2774 197.844 36.9572 219.133C38.3112 229.762 39.3083 240.438 39.7804 251.148C40.0174 256.503 40.1472 261.864 40.1091 267.242C40.0745 269.942 40.0328 272.609 39.804 275.388C39.7328 276.128 39.7236 276.652 39.6779 277.291C39.6336 277.896 39.6348 278.502 39.6813 279.106C39.7278 280.278 39.9285 281.438 40.2781 282.557C40.9407 284.694 42.4084 286.489 44.3709 287.563C44.8455 287.822 45.3459 288.031 45.8641 288.185L46.0345 288.229C46.0704 288.242 46.1081 288.25 46.1463 288.252L46.6387 288.315L47.6237 288.441L51.5619 288.961C54.185 289.318 56.8132 289.663 59.4601 289.952C62.1026 290.25 64.741 290.585 67.3877 290.851C77.97 291.953 88.5754 292.923 99.201 293.679C120.452 295.195 141.749 295.864 163.092 295.687C168.421 295.643 173.749 295.518 179.075 295.372L183.068 295.227C184.342 295.227 185.613 295.097 186.861 294.839C188.059 294.534 189.21 294.066 190.281 293.448C191.329 292.804 192.283 292.017 193.114 291.11C194.755 289.286 195.806 287.009 196.127 284.576C196.209 283.977 196.246 283.372 196.237 282.766C196.237 282.138 196.202 281.444 196.186 280.786L196.063 276.789L195.585 260.799C195.322 250.138 195.14 239.477 195.04 228.814L194.889 212.82L194.812 196.824L194.788 188.827L194.786 187.837C194.772 187.54 194.781 187.24 194.745 186.943C194.699 186.347 194.607 185.755 194.47 185.173C194.192 184.004 193.743 182.882 193.136 181.844C192.521 180.805 191.756 179.862 190.866 179.046C190.408 178.636 189.924 178.256 189.418 177.908L187.807 176.791C185.695 175.396 183.331 174.425 180.848 173.931C179.595 173.685 178.322 173.557 177.044 173.549L173.046 173.421L165.049 173.142C159.718 172.961 154.387 172.776 149.057 172.53C149.007 172.528 148.96 172.506 148.925 172.47C148.891 172.433 148.872 172.385 148.872 172.335C148.873 172.285 148.893 172.237 148.928 172.201C148.963 172.165 149.011 172.145 149.061 172.143L149.061 172.143Z" fill="#020202"/>
<path d="M187.603 192.485L187.704 195.387C187.704 195.407 187.701 195.428 187.694 195.447C187.686 195.467 187.675 195.485 187.661 195.5C187.647 195.515 187.63 195.527 187.611 195.536C187.593 195.544 187.572 195.549 187.552 195.55C187.531 195.55 187.51 195.547 187.491 195.54C187.472 195.533 187.454 195.522 187.439 195.507C187.424 195.493 187.411 195.476 187.403 195.458C187.394 195.439 187.389 195.418 187.389 195.398L187.388 195.391L187.409 192.487C187.409 192.462 187.419 192.438 187.437 192.42C187.455 192.402 187.479 192.391 187.505 192.391C187.53 192.391 187.554 192.4 187.573 192.418C187.591 192.435 187.602 192.459 187.603 192.485Z" fill="#020202"/>
<path d="M187.802 198.289L187.888 201.191C187.89 201.226 187.884 201.26 187.872 201.293C187.86 201.325 187.841 201.355 187.818 201.38C187.794 201.405 187.766 201.426 187.734 201.44C187.703 201.454 187.669 201.462 187.634 201.463C187.599 201.464 187.565 201.458 187.533 201.446C187.5 201.433 187.471 201.415 187.446 201.391C187.421 201.367 187.401 201.339 187.387 201.307C187.372 201.276 187.365 201.241 187.364 201.207L187.364 201.199L187.37 198.295C187.37 198.238 187.393 198.184 187.432 198.143C187.472 198.103 187.526 198.08 187.583 198.079C187.64 198.078 187.695 198.1 187.736 198.139C187.777 198.178 187.801 198.232 187.802 198.289Z" fill="#020202"/>
<path d="M187.975 204.094L188.061 206.996C188.064 207.09 188.029 207.181 187.965 207.25C187.9 207.318 187.811 207.358 187.717 207.361C187.623 207.364 187.532 207.329 187.463 207.265C187.395 207.2 187.355 207.111 187.352 207.017L187.352 207.006L187.358 204.102C187.358 204.021 187.39 203.944 187.447 203.886C187.504 203.828 187.581 203.795 187.662 203.794C187.743 203.793 187.821 203.824 187.88 203.88C187.938 203.936 187.972 204.013 187.975 204.094Z" fill="#020202"/>
<path d="M188.147 209.899L188.234 212.801C188.236 212.919 188.192 213.033 188.11 213.118C188.029 213.203 187.917 213.253 187.8 213.257C187.682 213.26 187.568 213.217 187.481 213.137C187.395 213.056 187.344 212.945 187.34 212.828L187.339 212.813L187.345 209.91C187.346 209.805 187.388 209.704 187.462 209.63C187.536 209.555 187.636 209.513 187.741 209.511C187.846 209.51 187.947 209.55 188.023 209.622C188.099 209.694 188.144 209.794 188.147 209.899H188.147Z" fill="#020202"/>
<path d="M188.308 215.703L188.377 218.606C188.381 218.742 188.33 218.873 188.236 218.971C188.143 219.069 188.014 219.126 187.879 219.129C187.743 219.132 187.612 219.082 187.514 218.988C187.416 218.895 187.359 218.766 187.356 218.631L187.356 218.62L187.345 215.717C187.345 215.59 187.394 215.468 187.483 215.378C187.572 215.287 187.693 215.235 187.82 215.234C187.947 215.232 188.069 215.28 188.161 215.368C188.252 215.456 188.305 215.577 188.308 215.703Z" fill="#020202"/>
<path d="M188.447 221.509L188.517 224.411C188.52 224.563 188.464 224.709 188.36 224.818C188.255 224.928 188.112 224.991 187.961 224.995C187.809 224.999 187.663 224.942 187.554 224.838C187.444 224.733 187.381 224.59 187.377 224.439L187.377 224.427L187.366 221.524C187.366 221.381 187.421 221.244 187.521 221.143C187.621 221.041 187.757 220.983 187.899 220.981C188.042 220.979 188.179 221.033 188.282 221.132C188.384 221.231 188.444 221.366 188.447 221.509Z" fill="#020202"/>
<path d="M188.586 227.314L188.656 230.217C188.658 230.299 188.644 230.381 188.614 230.459C188.584 230.536 188.539 230.606 188.482 230.666C188.425 230.726 188.357 230.774 188.282 230.807C188.206 230.841 188.125 230.859 188.042 230.861C187.959 230.863 187.877 230.848 187.8 230.819C187.723 230.789 187.653 230.744 187.593 230.687C187.533 230.63 187.485 230.562 187.452 230.486C187.418 230.411 187.4 230.329 187.398 230.247L187.398 230.234L187.387 227.331C187.387 227.173 187.449 227.021 187.559 226.908C187.67 226.796 187.821 226.731 187.979 226.729C188.137 226.727 188.289 226.787 188.403 226.897C188.517 227.006 188.583 227.156 188.586 227.314Z" fill="#020202"/>
<path d="M188.726 233.119L188.795 236.022C188.798 236.112 188.782 236.202 188.75 236.287C188.717 236.372 188.668 236.449 188.606 236.514C188.544 236.58 188.469 236.633 188.386 236.669C188.303 236.706 188.214 236.726 188.124 236.728C188.033 236.73 187.943 236.715 187.859 236.682C187.774 236.649 187.697 236.6 187.632 236.538C187.566 236.475 187.514 236.4 187.477 236.318C187.441 236.235 187.421 236.145 187.419 236.055L187.419 236.041L187.408 233.137C187.408 232.964 187.475 232.797 187.597 232.673C187.719 232.549 187.884 232.479 188.058 232.476C188.231 232.474 188.399 232.54 188.524 232.66C188.649 232.781 188.721 232.946 188.726 233.119V233.119Z" fill="#020202"/>
<path d="M188.865 238.925L188.92 241.827C188.924 242.022 188.85 242.209 188.715 242.349C188.58 242.489 188.395 242.569 188.201 242.573C188.007 242.577 187.819 242.503 187.679 242.369C187.539 242.234 187.458 242.05 187.454 241.855L187.454 241.848L187.429 238.944C187.427 238.755 187.501 238.572 187.634 238.436C187.766 238.3 187.947 238.223 188.137 238.22C188.327 238.217 188.51 238.29 188.646 238.422C188.783 238.554 188.861 238.735 188.865 238.925V238.925Z" fill="#020202"/>
<path d="M188.972 244.73L189.025 247.633C189.028 247.834 188.951 248.027 188.812 248.171C188.672 248.316 188.481 248.398 188.281 248.402C188.08 248.406 187.887 248.33 187.742 248.191C187.598 248.052 187.514 247.861 187.51 247.66L187.51 247.654L187.482 244.751C187.48 244.554 187.557 244.364 187.694 244.223C187.832 244.082 188.02 244.002 188.217 243.999C188.414 243.996 188.604 244.072 188.746 244.209C188.887 244.346 188.969 244.533 188.972 244.73Z" fill="#020202"/>
<path d="M189.077 250.536L189.129 253.439C189.133 253.646 189.054 253.846 188.91 253.995C188.766 254.145 188.569 254.231 188.362 254.234C188.154 254.238 187.954 254.159 187.805 254.015C187.656 253.871 187.57 253.674 187.566 253.467L187.566 253.46L187.538 250.557C187.536 250.354 187.614 250.157 187.757 250.011C187.899 249.865 188.093 249.782 188.297 249.779C188.501 249.776 188.697 249.854 188.843 249.996C188.99 250.138 189.073 250.332 189.077 250.536Z" fill="#020202"/>
<path d="M189.181 256.342L189.233 259.245C189.237 259.458 189.155 259.664 189.007 259.818C188.859 259.972 188.656 260.06 188.442 260.064C188.228 260.068 188.022 259.987 187.868 259.839C187.715 259.69 187.626 259.487 187.622 259.274L187.622 259.267L187.594 256.364C187.592 256.154 187.673 255.951 187.82 255.801C187.966 255.651 188.167 255.565 188.377 255.562C188.587 255.559 188.789 255.639 188.94 255.786C189.091 255.932 189.177 256.132 189.181 256.342Z" fill="#020202"/>
<path d="M189.285 262.147L189.337 265.05C189.339 265.159 189.32 265.268 189.28 265.369C189.24 265.47 189.18 265.563 189.105 265.641C189.029 265.72 188.939 265.782 188.839 265.826C188.739 265.869 188.632 265.893 188.523 265.895C188.414 265.897 188.305 265.877 188.204 265.837C188.103 265.797 188.01 265.738 187.932 265.662C187.853 265.587 187.791 265.496 187.747 265.396C187.704 265.297 187.68 265.189 187.678 265.08L187.678 265.073L187.65 262.17C187.648 261.954 187.732 261.746 187.883 261.591C188.034 261.437 188.24 261.349 188.456 261.346C188.672 261.343 188.881 261.425 189.036 261.576C189.192 261.726 189.281 261.931 189.285 262.147Z" fill="#020202"/>
<path d="M189.389 267.953L189.441 270.856C189.444 270.968 189.424 271.08 189.383 271.185C189.342 271.289 189.281 271.385 189.203 271.465C189.125 271.546 189.032 271.611 188.929 271.656C188.826 271.701 188.715 271.725 188.603 271.727C188.491 271.729 188.379 271.709 188.275 271.668C188.17 271.627 188.075 271.565 187.994 271.487C187.914 271.409 187.849 271.316 187.804 271.213C187.76 271.11 187.736 270.999 187.734 270.887L187.734 270.88L187.706 267.976C187.704 267.754 187.79 267.539 187.946 267.38C188.101 267.22 188.314 267.129 188.536 267.126C188.759 267.123 188.974 267.208 189.134 267.363C189.294 267.518 189.386 267.731 189.389 267.953Z" fill="#020202"/>
<path d="M189.494 273.759L189.53 276.683C189.531 276.797 189.51 276.91 189.468 277.015C189.426 277.121 189.363 277.217 189.284 277.298C189.205 277.379 189.11 277.444 189.006 277.489C188.901 277.534 188.789 277.558 188.675 277.559C188.562 277.56 188.449 277.539 188.344 277.497C188.238 277.455 188.142 277.392 188.061 277.313C187.979 277.234 187.914 277.139 187.87 277.035C187.825 276.93 187.801 276.818 187.8 276.705L187.799 276.665L187.762 273.783C187.761 273.669 187.781 273.556 187.823 273.451C187.865 273.345 187.927 273.248 188.007 273.167C188.086 273.085 188.18 273.02 188.285 272.975C188.389 272.93 188.501 272.906 188.615 272.904C188.729 272.902 188.841 272.923 188.947 272.965C189.053 273.007 189.149 273.069 189.231 273.148C189.312 273.227 189.378 273.322 189.423 273.426C189.468 273.531 189.492 273.643 189.494 273.756L189.494 273.759Z" fill="#020202"/>
<path d="M189.109 279.764C188.843 280.769 188.453 281.737 187.95 282.646C187.842 282.842 187.66 282.988 187.444 283.051C187.229 283.113 186.997 283.088 186.801 282.979C186.604 282.871 186.458 282.69 186.396 282.474C186.333 282.259 186.359 282.027 186.467 281.83C186.897 281.041 187.229 280.202 187.453 279.331C187.481 279.223 187.53 279.12 187.598 279.031C187.665 278.941 187.75 278.865 187.847 278.808C187.943 278.751 188.051 278.713 188.162 278.698C188.273 278.682 188.386 278.688 188.495 278.716C188.604 278.744 188.706 278.793 188.796 278.861C188.886 278.929 188.961 279.013 189.019 279.11C189.076 279.207 189.113 279.314 189.129 279.425C189.145 279.536 189.138 279.649 189.11 279.758L189.109 279.764Z" fill="#020202"/>
<path d="M186.125 285.155C185.417 285.913 184.619 286.581 183.748 287.145C183.564 287.264 183.341 287.305 183.126 287.26C182.912 287.214 182.725 287.086 182.605 286.902C182.486 286.719 182.444 286.495 182.489 286.281C182.534 286.067 182.662 285.879 182.846 285.759C183.599 285.265 184.289 284.68 184.899 284.017C185.05 283.855 185.258 283.759 185.479 283.75C185.701 283.742 185.916 283.821 186.079 283.971C186.242 284.121 186.338 284.329 186.348 284.55C186.357 284.772 186.278 284.987 186.129 285.151L186.125 285.155Z" fill="#020202"/>
<path d="M180.958 288.494C179.976 288.827 178.956 289.037 177.923 289.119C177.709 289.137 177.498 289.069 177.334 288.931C177.171 288.793 177.069 288.595 177.051 288.382C177.034 288.169 177.101 287.957 177.239 287.794C177.378 287.63 177.575 287.529 177.788 287.511C178.688 287.433 179.575 287.244 180.429 286.949C180.53 286.914 180.638 286.899 180.745 286.905C180.852 286.911 180.957 286.939 181.053 286.985C181.15 287.032 181.236 287.098 181.307 287.178C181.379 287.258 181.433 287.352 181.469 287.453C181.504 287.554 181.518 287.662 181.512 287.769C181.506 287.876 181.478 287.981 181.432 288.077C181.385 288.174 181.319 288.26 181.239 288.331C181.159 288.403 181.065 288.457 180.964 288.492L180.958 288.494Z" fill="#020202"/>
<path d="M174.973 289.194L172.07 289.216C171.867 289.217 171.673 289.139 171.528 288.997C171.383 288.856 171.3 288.663 171.296 288.46C171.293 288.258 171.37 288.062 171.51 287.916C171.651 287.77 171.843 287.685 172.045 287.68L174.943 287.6C175.154 287.594 175.359 287.671 175.513 287.816C175.667 287.961 175.758 288.161 175.764 288.373C175.77 288.584 175.693 288.789 175.548 288.943C175.403 289.097 175.203 289.187 174.991 289.194L174.973 289.194Z" fill="#020202"/>
<path d="M169.168 289.228L166.265 289.231C166.078 289.232 165.899 289.158 165.767 289.027C165.634 288.896 165.559 288.718 165.557 288.532C165.555 288.345 165.626 288.166 165.756 288.032C165.886 287.898 166.064 287.821 166.25 287.818L169.149 287.753C169.246 287.75 169.342 287.767 169.433 287.801C169.523 287.836 169.606 287.888 169.676 287.955C169.747 288.022 169.803 288.102 169.843 288.19C169.882 288.279 169.904 288.375 169.906 288.471C169.909 288.568 169.892 288.665 169.857 288.755C169.822 288.846 169.77 288.929 169.703 288.999C169.636 289.069 169.556 289.125 169.467 289.165C169.378 289.204 169.283 289.225 169.186 289.227L169.168 289.228Z" fill="#020202"/>
<path d="M163.364 289.227L160.461 289.215C160.291 289.214 160.128 289.146 160.008 289.026C159.887 288.906 159.819 288.743 159.818 288.572C159.818 288.402 159.884 288.239 160.003 288.117C160.122 287.996 160.285 287.926 160.455 287.924L163.354 287.875C163.533 287.871 163.706 287.94 163.835 288.064C163.964 288.188 164.038 288.358 164.041 288.538C164.045 288.717 163.977 288.89 163.853 289.019C163.729 289.148 163.559 289.223 163.38 289.227L163.364 289.227Z" fill="#020202"/>
<path d="M157.558 289.195L154.654 289.167C154.5 289.165 154.353 289.103 154.245 288.994C154.136 288.884 154.076 288.736 154.076 288.583C154.076 288.429 154.137 288.281 154.245 288.172C154.353 288.062 154.501 288 154.654 287.999L157.555 287.965C157.636 287.963 157.717 287.977 157.793 288.006C157.869 288.036 157.938 288.08 157.997 288.136C158.056 288.193 158.103 288.26 158.135 288.335C158.168 288.409 158.185 288.49 158.186 288.571C158.187 288.652 158.172 288.733 158.142 288.809C158.112 288.884 158.067 288.953 158.01 289.011C157.953 289.069 157.885 289.115 157.81 289.147C157.735 289.178 157.654 289.195 157.573 289.195L157.558 289.195Z" fill="#020202"/>
<path d="M151.752 289.13L148.85 289.086C148.713 289.084 148.583 289.027 148.487 288.929C148.391 288.831 148.337 288.7 148.338 288.562C148.339 288.425 148.394 288.294 148.491 288.197C148.588 288.1 148.719 288.046 148.856 288.045L151.756 288.026C151.829 288.025 151.901 288.038 151.968 288.066C152.035 288.093 152.097 288.133 152.149 288.183C152.2 288.234 152.242 288.295 152.27 288.362C152.299 288.428 152.314 288.5 152.314 288.573C152.315 288.645 152.301 288.717 152.274 288.785C152.247 288.852 152.207 288.913 152.156 288.965C152.105 289.017 152.044 289.058 151.977 289.086C151.911 289.115 151.839 289.13 151.766 289.13L151.752 289.13Z" fill="#020202"/>
<path d="M145.947 289.034L143.044 288.974C142.924 288.97 142.811 288.92 142.728 288.834C142.644 288.747 142.599 288.632 142.6 288.512C142.601 288.392 142.65 288.277 142.735 288.193C142.82 288.108 142.935 288.06 143.055 288.06L145.956 288.056C146.085 288.056 146.21 288.107 146.302 288.198C146.394 288.289 146.446 288.413 146.446 288.543C146.447 288.673 146.396 288.797 146.305 288.889C146.213 288.981 146.089 289.033 145.96 289.034L145.947 289.034Z" fill="#020202"/>
<path d="M140.141 288.906L137.242 288.83C137.138 288.827 137.039 288.784 136.968 288.709C136.896 288.634 136.857 288.534 136.858 288.43C136.86 288.326 136.903 288.227 136.977 288.155C137.051 288.082 137.151 288.042 137.254 288.043L140.153 288.055C140.266 288.055 140.374 288.1 140.453 288.18C140.533 288.26 140.578 288.368 140.578 288.481C140.577 288.594 140.532 288.702 140.453 288.782C140.373 288.861 140.264 288.906 140.152 288.906L140.141 288.906Z" fill="#020202"/>
<path d="M134.341 288.761L131.439 288.688C131.343 288.685 131.252 288.644 131.186 288.575C131.12 288.505 131.084 288.412 131.086 288.316C131.088 288.22 131.128 288.128 131.198 288.061C131.267 287.995 131.36 287.958 131.456 287.96L134.355 288.008C134.405 288.008 134.454 288.019 134.499 288.038C134.545 288.058 134.586 288.086 134.62 288.121C134.655 288.157 134.682 288.199 134.7 288.245C134.719 288.291 134.728 288.34 134.727 288.389C134.726 288.439 134.716 288.488 134.697 288.533C134.677 288.579 134.649 288.62 134.613 288.654C134.578 288.689 134.536 288.716 134.49 288.734C134.444 288.752 134.395 288.762 134.345 288.761L134.341 288.761Z" fill="#020202"/>
<path d="M128.538 288.606L125.636 288.517C125.546 288.514 125.461 288.476 125.4 288.41C125.338 288.345 125.305 288.258 125.308 288.168C125.31 288.079 125.348 287.994 125.413 287.932C125.478 287.87 125.565 287.837 125.655 287.839L128.555 287.904C128.602 287.904 128.647 287.914 128.69 287.933C128.732 287.951 128.771 287.978 128.803 288.011C128.835 288.044 128.86 288.084 128.877 288.127C128.894 288.17 128.902 288.216 128.901 288.262C128.901 288.308 128.891 288.354 128.872 288.396C128.853 288.439 128.827 288.477 128.793 288.509C128.76 288.541 128.72 288.566 128.677 288.583C128.634 288.6 128.588 288.608 128.542 288.607L128.538 288.606Z" fill="#020202"/>
<path d="M122.733 288.418L119.832 288.311C119.748 288.308 119.67 288.273 119.613 288.212C119.556 288.151 119.526 288.07 119.529 287.987C119.532 287.904 119.567 287.825 119.628 287.768C119.689 287.712 119.77 287.681 119.853 287.684L122.754 287.766C122.797 287.767 122.839 287.776 122.878 287.794C122.918 287.811 122.953 287.836 122.983 287.867C123.012 287.898 123.036 287.935 123.051 287.975C123.067 288.015 123.074 288.057 123.073 288.1C123.072 288.143 123.062 288.186 123.045 288.225C123.027 288.264 123.002 288.3 122.971 288.329C122.94 288.359 122.903 288.382 122.863 288.397C122.823 288.412 122.78 288.42 122.737 288.418L122.733 288.418Z" fill="#020202"/>
<path d="M116.93 288.195L114.033 288.073C113.955 288.07 113.883 288.037 113.83 287.98C113.778 287.923 113.75 287.847 113.753 287.77C113.756 287.693 113.79 287.62 113.847 287.568C113.904 287.515 113.979 287.487 114.056 287.491L116.952 287.593C117.032 287.596 117.108 287.63 117.162 287.688C117.217 287.747 117.246 287.824 117.244 287.904C117.241 287.984 117.207 288.059 117.149 288.114C117.09 288.169 117.013 288.198 116.933 288.195L116.93 288.195Z" fill="#020202"/>
<path d="M111.134 287.961L108.234 287.839C108.194 287.838 108.154 287.828 108.117 287.811C108.08 287.794 108.046 287.769 108.019 287.739C107.991 287.709 107.97 287.674 107.956 287.636C107.942 287.598 107.936 287.557 107.937 287.516C107.939 287.475 107.949 287.435 107.966 287.398C107.983 287.361 108.007 287.328 108.037 287.301C108.067 287.273 108.103 287.252 108.141 287.238C108.179 287.224 108.22 287.217 108.26 287.219L108.264 287.219L111.16 287.36C111.24 287.363 111.315 287.398 111.369 287.457C111.423 287.516 111.451 287.594 111.448 287.673C111.444 287.753 111.409 287.828 111.35 287.882C111.292 287.936 111.214 287.965 111.134 287.961Z" fill="#020202"/>
<path d="M105.334 287.708L102.434 287.566C102.347 287.562 102.266 287.523 102.207 287.458C102.149 287.394 102.118 287.309 102.122 287.222C102.127 287.135 102.165 287.053 102.23 286.994C102.294 286.935 102.379 286.905 102.466 286.909L102.47 286.909L105.367 287.069C105.451 287.073 105.53 287.111 105.587 287.174C105.644 287.237 105.673 287.32 105.669 287.404C105.665 287.489 105.627 287.568 105.564 287.625C105.502 287.682 105.419 287.712 105.334 287.708L105.334 287.708Z" fill="#020202"/>
<path d="M99.5344 287.415L96.6346 287.253C96.589 287.25 96.5444 287.239 96.5032 287.219C96.462 287.199 96.4252 287.171 96.3947 287.137C96.3643 287.103 96.3408 287.063 96.3257 287.02C96.3106 286.977 96.3041 286.932 96.3067 286.886C96.3092 286.84 96.3207 286.796 96.3405 286.754C96.3604 286.713 96.3881 286.676 96.4221 286.646C96.4562 286.615 96.4959 286.592 96.5391 286.577C96.5822 286.562 96.6278 286.555 96.6735 286.558L96.677 286.558L99.5731 286.739C99.6624 286.744 99.7458 286.785 99.8051 286.852C99.8644 286.919 99.8948 287.007 99.8897 287.096C99.8846 287.185 99.8444 287.269 99.7778 287.329C99.7112 287.388 99.6237 287.419 99.5344 287.415H99.5344Z" fill="#020202"/>
<path d="M93.7353 287.08L90.8359 286.904C90.7368 286.898 90.6442 286.853 90.5784 286.778C90.5126 286.704 90.4791 286.606 90.4851 286.507C90.4911 286.408 90.5361 286.315 90.6104 286.25C90.6847 286.184 90.782 286.15 90.8811 286.156L90.8872 286.156L93.7814 286.367C93.8282 286.37 93.874 286.382 93.9161 286.403C93.9582 286.423 93.9958 286.452 94.0268 286.487C94.0578 286.523 94.0815 286.564 94.0966 286.608C94.1117 286.652 94.1179 286.699 94.1149 286.746C94.1119 286.793 94.0997 286.839 94.079 286.881C94.0582 286.923 94.0294 286.961 93.9942 286.992C93.9589 287.023 93.9179 287.046 93.8735 287.061C93.8291 287.077 93.7821 287.083 93.7353 287.08H93.7353Z" fill="#020202"/>
<path d="M87.9405 286.725L85.0395 286.534C84.9837 286.531 84.9292 286.516 84.879 286.491C84.8289 286.466 84.7841 286.432 84.7472 286.39C84.6728 286.305 84.6351 286.194 84.6425 286.081C84.6499 285.969 84.7018 285.863 84.7867 285.789C84.8717 285.715 84.9827 285.677 85.0954 285.684L85.1047 285.685L87.9985 285.927C88.1039 285.935 88.2017 285.985 88.2706 286.065C88.3395 286.145 88.3739 286.249 88.3662 286.355C88.3586 286.46 88.3095 286.558 88.2297 286.628C88.15 286.697 88.046 286.732 87.9405 286.725Z" fill="#020202"/>
<path d="M82.1414 286.331L79.244 286.116C79.1814 286.112 79.1202 286.095 79.0641 286.067C79.0079 286.039 78.9579 286 78.9168 285.952C78.8757 285.905 78.8444 285.85 78.8247 285.79C78.805 285.73 78.7972 285.668 78.8018 285.605C78.8065 285.542 78.8235 285.481 78.8518 285.425C78.8801 285.369 78.9192 285.319 78.9669 285.278C79.0145 285.237 79.0698 285.206 79.1295 285.187C79.1891 285.167 79.2521 285.16 79.3147 285.165L79.3252 285.166L82.2143 285.432C82.3332 285.442 82.4431 285.499 82.5201 285.59C82.5971 285.681 82.6349 285.799 82.6253 285.918C82.6156 286.037 82.5593 286.147 82.4687 286.224C82.378 286.302 82.2604 286.34 82.1414 286.331Z" fill="#020202"/>
<path d="M76.3472 285.888L73.4514 285.646C73.3119 285.635 73.1826 285.568 73.0922 285.461C73.0017 285.354 72.9575 285.216 72.9691 285.076C72.9808 284.937 73.0473 284.807 73.1542 284.717C73.2612 284.627 73.3996 284.582 73.5392 284.594L73.5509 284.595L76.4372 284.887C76.5694 284.9 76.6913 284.964 76.7762 285.066C76.861 285.168 76.9019 285.3 76.89 285.432C76.8781 285.564 76.8144 285.687 76.7126 285.772C76.6109 285.857 76.4795 285.899 76.3472 285.888Z" fill="#020202"/>
<path d="M70.5564 285.395L67.6623 285.129C67.5074 285.115 67.3645 285.039 67.265 284.92C67.1655 284.8 67.1176 284.646 67.1319 284.491C67.1461 284.336 67.2213 284.193 67.3409 284.094C67.4604 283.994 67.6147 283.946 67.7696 283.961L67.7842 283.962L70.6668 284.286C70.8128 284.302 70.9467 284.375 71.0393 284.489C71.1319 284.603 71.1757 284.749 71.1612 284.895C71.1466 285.041 71.0749 285.176 70.9616 285.269C70.8484 285.363 70.7027 285.408 70.5564 285.395Z" fill="#020202"/>
<path d="M64.7692 284.848L61.8775 284.552C61.7072 284.535 61.5509 284.45 61.4428 284.318C61.3347 284.185 61.2838 284.015 61.3012 283.845C61.3186 283.674 61.403 283.518 61.5357 283.41C61.6684 283.302 61.8386 283.251 62.0089 283.268L62.0253 283.27L64.9038 283.624C65.0651 283.643 65.2124 283.725 65.3135 283.852C65.4146 283.979 65.4614 284.141 65.4437 284.303C65.4259 284.464 65.3451 284.612 65.2188 284.714C65.0924 284.817 64.9309 284.865 64.7692 284.848V284.848Z" fill="#020202"/>
<path d="M58.9869 284.24L56.0941 283.911C56.002 283.901 55.9127 283.873 55.8315 283.828C55.7504 283.783 55.6788 283.723 55.621 283.65C55.5631 283.578 55.5201 283.495 55.4945 283.406C55.4689 283.317 55.4611 283.223 55.4716 283.131C55.482 283.039 55.5106 282.95 55.5556 282.869C55.6006 282.788 55.6612 282.717 55.7338 282.659C55.8065 282.602 55.8897 282.559 55.9789 282.534C56.0681 282.508 56.1614 282.501 56.2534 282.512L56.2716 282.514L59.1492 282.901C59.3258 282.923 59.4864 283.015 59.5958 283.155C59.7052 283.296 59.7546 283.474 59.7332 283.651C59.7118 283.828 59.6213 283.989 59.4815 284.099C59.3417 284.21 59.1639 284.26 58.9869 284.24Z" fill="#020202"/>
<path d="M53.0887 283.395C52.0976 283.045 51.17 282.537 50.342 281.889C50.1853 281.767 50.0834 281.588 50.0589 281.39C50.0344 281.193 50.0893 280.994 50.2114 280.838C50.3335 280.681 50.5129 280.579 50.7101 280.555C50.9073 280.53 51.1062 280.585 51.263 280.707L51.2724 280.714C51.9657 281.272 52.7447 281.713 53.5791 282.02C53.7605 282.086 53.9085 282.221 53.9907 282.396C54.073 282.57 54.0828 282.77 54.0179 282.952C53.9531 283.134 53.819 283.282 53.6449 283.365C53.4708 283.449 53.2708 283.459 53.0887 283.395V283.395Z" fill="#020202"/>
<path d="M48.2187 279.583C47.6488 278.71 47.2062 277.76 46.9041 276.761C46.8736 276.662 46.8629 276.558 46.8726 276.455C46.8823 276.352 46.9122 276.252 46.9605 276.161C47.0089 276.069 47.0748 275.988 47.1545 275.922C47.2342 275.856 47.3262 275.807 47.425 275.776C47.5239 275.746 47.6279 275.735 47.7309 275.745C47.8339 275.754 47.934 275.784 48.0255 275.833C48.117 275.881 48.1981 275.947 48.2641 276.027C48.3301 276.106 48.3797 276.198 48.4102 276.297L48.4133 276.308C48.6604 277.168 49.0287 277.988 49.507 278.745C49.6169 278.915 49.6547 279.123 49.6121 279.321C49.5695 279.52 49.4501 279.694 49.2799 279.805C49.1096 279.915 48.9025 279.954 48.7036 279.913C48.5048 279.871 48.3305 279.753 48.2187 279.583Z" fill="#020202"/>
<path d="M46.3404 273.745C46.2622 272.737 46.2622 271.725 46.3403 270.717C46.3579 270.5 46.4608 270.298 46.6265 270.156C46.7922 270.014 47.0073 269.943 47.2249 269.959C47.4425 269.975 47.6449 270.077 47.7881 270.241C47.9313 270.406 48.0037 270.62 47.9893 270.838L47.9883 270.849C47.9042 271.772 47.8915 272.699 47.9505 273.623C47.9653 273.836 47.8954 274.046 47.7559 274.207C47.6164 274.369 47.4188 274.468 47.2061 274.484C46.9934 274.501 46.783 274.432 46.6208 274.293C46.4586 274.155 46.3578 273.958 46.3404 273.745L46.3404 273.745Z" fill="#020202"/>
<path d="M46.5179 267.855L46.5787 264.98L46.5791 264.959C46.5844 264.73 46.6804 264.512 46.846 264.354C47.0117 264.196 47.2334 264.109 47.4625 264.114C47.6917 264.119 47.9096 264.215 48.0684 264.38C48.2272 264.545 48.3139 264.767 48.3095 264.996L48.3093 265.007L48.2085 267.927C48.2001 268.15 48.1042 268.361 47.9416 268.513C47.779 268.665 47.5628 268.747 47.34 268.741C47.1172 268.735 46.9058 268.641 46.7518 268.48C46.5978 268.319 46.5136 268.104 46.5175 267.881L46.5179 267.855Z" fill="#020202"/>
<path d="M46.5854 262.096L46.5514 259.207L46.5513 259.196C46.55 259.079 46.5716 258.963 46.6151 258.855C46.6585 258.746 46.7229 258.647 46.8046 258.564C46.8862 258.48 46.9835 258.413 47.091 258.367C47.1984 258.321 47.3138 258.297 47.4307 258.296C47.5475 258.294 47.6635 258.316 47.772 258.359C47.8805 258.403 47.9794 258.467 48.063 258.549C48.1466 258.631 48.2133 258.728 48.2592 258.835C48.3052 258.943 48.3296 259.058 48.331 259.175L48.3311 259.182L48.3431 262.094C48.3442 262.326 48.253 262.55 48.0896 262.715C47.9263 262.881 47.704 262.975 47.4715 262.976C47.2389 262.978 47.0152 262.888 46.8491 262.725C46.6831 262.562 46.5883 262.34 46.5855 262.108L46.5854 262.096Z" fill="#020202"/>
<path d="M46.4823 256.318L46.383 253.43L46.3826 253.421C46.3744 253.179 46.4626 252.944 46.6276 252.768C46.7927 252.591 47.0211 252.487 47.2628 252.479C47.5045 252.47 47.7395 252.558 47.9163 252.723C48.0931 252.888 48.1972 253.117 48.2057 253.358L48.2058 253.365L48.2837 256.272C48.2898 256.51 48.2014 256.741 48.0378 256.914C47.8742 257.087 47.6488 257.188 47.4108 257.196C47.1728 257.203 46.9416 257.116 46.7677 256.953C46.5938 256.79 46.4913 256.566 46.4827 256.328L46.4823 256.318Z" fill="#020202"/>
<path d="M46.2558 250.54L46.1028 247.653L46.1024 247.645C46.0958 247.523 46.1134 247.4 46.1542 247.284C46.195 247.169 46.2582 247.062 46.3402 246.971C46.4223 246.879 46.5215 246.805 46.6323 246.752C46.7431 246.699 46.8632 246.668 46.9858 246.662C47.1084 246.655 47.2311 246.673 47.3468 246.714C47.4626 246.755 47.5691 246.818 47.6604 246.901C47.7516 246.983 47.8258 247.082 47.8786 247.193C47.9314 247.304 47.9618 247.424 47.9682 247.547L47.9685 247.554L48.1001 250.458C48.1116 250.702 48.0257 250.94 47.8614 251.121C47.6971 251.302 47.4677 251.411 47.2236 251.423C46.9795 251.435 46.7405 251.349 46.5592 251.186C46.3779 251.022 46.2689 250.793 46.2563 250.549L46.2558 250.54Z" fill="#020202"/>
<path d="M45.9252 244.766L45.724 241.879L45.7233 241.872C45.7064 241.619 45.7903 241.37 45.9567 241.179C46.1231 240.988 46.3584 240.871 46.611 240.853C46.8636 240.836 47.1129 240.919 47.3042 241.085C47.4955 241.251 47.6132 241.486 47.6314 241.738L47.6319 241.746L47.8122 244.65C47.8279 244.899 47.744 245.145 47.5789 245.333C47.4137 245.521 47.1808 245.636 46.9312 245.652C46.6816 245.669 46.4356 245.586 46.2471 245.421C46.0587 245.256 45.9431 245.024 45.9258 244.774L45.9252 244.766Z" fill="#020202"/>
<path d="M45.4997 238.997L45.2527 236.115L45.2521 236.107C45.2411 235.979 45.2555 235.851 45.2943 235.728C45.3332 235.606 45.3958 235.492 45.4786 235.394C45.6457 235.195 45.8849 235.071 46.1434 235.049C46.402 235.027 46.6587 235.108 46.8572 235.276C47.0557 235.443 47.1797 235.682 47.2018 235.94L47.2024 235.948L47.4285 238.847C47.4486 239.102 47.3667 239.355 47.2007 239.55C47.0348 239.745 46.7983 239.866 46.5432 239.887C46.2881 239.908 46.0351 239.827 45.8396 239.661C45.6441 239.496 45.5221 239.26 45.5003 239.005L45.4997 238.997Z" fill="#020202"/>
<path d="M44.9834 233.234L44.6917 230.354L44.6909 230.347C44.6776 230.216 44.6903 230.084 44.7281 229.958C44.7659 229.832 44.8281 229.715 44.9112 229.613C44.9942 229.511 45.0966 229.427 45.2123 229.365C45.328 229.302 45.4548 229.264 45.5856 229.25C45.7163 229.237 45.8483 229.25 45.9742 229.288C46.1 229.325 46.2172 229.388 46.319 229.471C46.4208 229.554 46.5053 229.656 46.5675 229.772C46.6298 229.888 46.6686 230.014 46.6819 230.145L46.6826 230.153L46.9537 233.05C46.9783 233.31 46.8985 233.57 46.7319 233.772C46.5652 233.974 46.3254 234.102 46.0648 234.127C45.8042 234.153 45.5442 234.074 45.3417 233.908C45.1391 233.742 45.0106 233.502 44.9843 233.242L44.9834 233.234Z" fill="#020202"/>
<path d="M44.378 227.477L44.0425 224.606L44.0415 224.598C44.0102 224.328 44.087 224.058 44.2553 223.845C44.4235 223.632 44.6694 223.495 44.9387 223.464C45.2081 223.432 45.4789 223.509 45.6916 223.677C45.9044 223.845 46.0416 224.091 46.0732 224.36L46.074 224.368L46.3893 227.257C46.4184 227.523 46.3409 227.79 46.1738 227.999C46.0066 228.208 45.7634 228.342 45.4975 228.373C45.2315 228.403 44.9645 228.326 44.7549 228.16C44.5452 227.993 44.41 227.751 44.3789 227.485L44.378 227.477Z" fill="#020202"/>
<path d="M43.6921 221.735L43.327 218.865L43.326 218.857C43.2914 218.588 43.365 218.317 43.5306 218.102C43.6962 217.888 43.9403 217.748 44.2091 217.713C44.4779 217.679 44.7494 217.752 44.964 217.918C45.1785 218.083 45.3185 218.327 45.3531 218.596L45.7286 221.481C45.7469 221.615 45.7385 221.751 45.7039 221.882C45.6693 222.013 45.6092 222.135 45.527 222.243C45.4448 222.35 45.3422 222.441 45.2251 222.508C45.1079 222.576 44.9785 222.62 44.8444 222.637C44.7102 222.655 44.574 222.645 44.4434 222.61C44.3128 222.575 44.1906 222.514 44.0836 222.431C43.9767 222.348 43.8871 222.245 43.8202 222.127C43.7533 222.01 43.7102 221.88 43.6936 221.746L43.6931 221.743L43.6921 221.735Z" fill="#020202"/>
<path d="M42.9393 215.997L42.5288 213.133L42.5276 213.125C42.489 212.859 42.5578 212.588 42.7186 212.373C42.8795 212.158 43.1193 212.015 43.3853 211.976C43.6512 211.938 43.9216 212.007 44.137 212.168C44.3523 212.328 44.4949 212.568 44.5334 212.834L44.9547 215.714C44.974 215.846 44.9671 215.981 44.9344 216.11C44.9017 216.24 44.8437 216.362 44.7639 216.469C44.6841 216.576 44.5839 216.667 44.4692 216.735C44.3544 216.804 44.2273 216.849 44.0951 216.868C43.9628 216.887 43.8281 216.881 43.6985 216.848C43.569 216.815 43.4471 216.757 43.3399 216.677C43.2328 216.598 43.1424 216.497 43.0739 216.383C43.0054 216.268 42.9602 216.141 42.9409 216.008L42.9405 216.006L42.9393 215.997Z" fill="#020202"/>
<path d="M42.095 210.271L41.6378 207.413L41.6364 207.405C41.5952 207.142 41.6597 206.874 41.8157 206.659C41.9718 206.444 42.2066 206.299 42.4689 206.257C42.7313 206.214 42.9997 206.278 43.2155 206.433C43.4313 206.588 43.5769 206.822 43.6204 207.084L44.0887 209.957C44.11 210.088 44.1053 210.222 44.075 210.351C44.0446 210.48 43.9892 210.602 43.9117 210.709C43.8343 210.817 43.7365 210.908 43.6238 210.978C43.5111 211.048 43.3858 211.094 43.255 211.116C43.1242 211.137 42.9905 211.132 42.8615 211.102C42.7325 211.072 42.6108 211.016 42.5032 210.939C42.3957 210.861 42.3044 210.764 42.2347 210.651C42.1649 210.538 42.1181 210.413 42.0967 210.282L42.0963 210.279L42.095 210.271Z" fill="#020202"/>
<path d="M41.1569 204.558L40.6524 201.712L40.6509 201.704C40.605 201.444 40.6641 201.177 40.8152 200.96C40.9662 200.744 41.197 200.596 41.4567 200.55C41.7165 200.504 41.984 200.562 42.2007 200.713C42.4174 200.863 42.5655 201.094 42.6125 201.353L43.1283 204.215C43.1751 204.476 43.1163 204.745 42.9649 204.962C42.8135 205.18 42.5819 205.329 42.3209 205.376C42.0599 205.423 41.7909 205.364 41.573 205.213C41.3552 205.062 41.2062 204.831 41.1588 204.57L41.1584 204.567L41.1569 204.558Z" fill="#020202"/>
<path d="M40.1228 198.87L39.5682 196.031L39.5665 196.022C39.5162 195.765 39.57 195.499 39.7159 195.282C39.8619 195.064 40.0882 194.914 40.345 194.863C40.6019 194.813 40.8683 194.866 41.0857 195.012C41.3032 195.158 41.4539 195.384 41.5048 195.64L42.0714 198.495C42.0967 198.623 42.0967 198.754 42.0712 198.882C42.0457 199.01 41.9953 199.131 41.9229 199.24C41.8505 199.348 41.7574 199.441 41.649 199.513C41.5407 199.586 41.4191 199.636 41.2913 199.661C41.1635 199.687 41.032 199.687 40.9042 199.661C40.7765 199.636 40.655 199.585 40.5467 199.513C40.4384 199.44 40.3454 199.347 40.273 199.239C40.2007 199.131 40.1504 199.009 40.1251 198.881L40.1245 198.878L40.1228 198.87Z" fill="#020202"/>
<path d="M38.9876 193.197L38.3808 190.368L38.3788 190.359C38.3249 190.105 38.3737 189.841 38.5146 189.623C38.6554 189.405 38.8767 189.252 39.13 189.198C39.3833 189.143 39.648 189.191 39.8661 189.331C40.0842 189.471 40.2378 189.692 40.2934 189.945L40.9124 192.79C40.9398 192.916 40.9422 193.047 40.9192 193.174C40.8963 193.301 40.8486 193.422 40.7787 193.531C40.7089 193.64 40.6184 193.734 40.5123 193.807C40.4062 193.881 40.2866 193.933 40.1604 193.961C40.0341 193.988 39.9038 193.99 39.7767 193.967C39.6495 193.944 39.5282 193.897 39.4195 193.827C39.3108 193.757 39.217 193.666 39.1433 193.56C39.0696 193.454 39.0176 193.335 38.9901 193.209L38.9895 193.206L38.9876 193.197Z" fill="#020202"/>
<path d="M37.7471 187.544L37.0858 184.727L37.0836 184.718C37.0251 184.468 37.0683 184.204 37.2036 183.986C37.339 183.767 37.5555 183.611 37.8057 183.552C38.0559 183.493 38.3193 183.536 38.5381 183.67C38.757 183.805 38.9135 184.021 38.9732 184.271L39.6473 187.105C39.7067 187.357 39.6639 187.621 39.5283 187.841C39.3927 188.061 39.1753 188.218 38.924 188.278C38.6726 188.338 38.4079 188.295 38.1878 188.16C37.9677 188.025 37.8102 187.808 37.7501 187.556L37.7493 187.554L37.7471 187.544Z" fill="#020202"/>
<path d="M36.4006 181.916L35.6973 179.111L35.6949 179.101C35.6343 178.86 35.6716 178.604 35.7988 178.39C35.9259 178.176 36.1326 178.021 36.3736 177.959C36.6146 177.897 36.8704 177.933 37.0852 178.058C37.3 178.184 37.4563 178.39 37.52 178.63L38.2665 181.445C38.3317 181.692 38.2962 181.954 38.168 182.175C38.0398 182.395 37.8293 182.556 37.5828 182.621C37.3363 182.686 37.0739 182.651 36.8533 182.523C36.6327 182.395 36.472 182.185 36.4063 181.939L36.4044 181.931L36.4006 181.916Z" fill="#020202"/>
<path d="M34.9638 176.312L34.1998 173.521L34.1971 173.512C34.1341 173.282 34.1646 173.036 34.282 172.829C34.3993 172.621 34.594 172.468 34.8235 172.404C35.053 172.339 35.2987 172.368 35.507 172.484C35.7153 172.6 35.8693 172.794 35.9353 173.023L36.7429 175.822C36.7765 175.939 36.7868 176.061 36.7733 176.181C36.7598 176.301 36.7227 176.418 36.6641 176.524C36.6056 176.63 36.5267 176.724 36.432 176.799C36.3373 176.875 36.2286 176.931 36.1122 176.965C35.9958 176.998 35.8739 177.008 35.7535 176.995C35.6331 176.981 35.5165 176.944 35.4104 176.886C35.3044 176.827 35.2109 176.748 35.1353 176.654C35.0597 176.559 35.0035 176.45 34.9699 176.334L34.9679 176.326L34.9638 176.312Z" fill="#020202"/>
<path d="M33.4044 170.74L32.5765 167.968L32.5734 167.958C32.5082 167.739 32.532 167.504 32.6396 167.303C32.7473 167.102 32.9299 166.952 33.1479 166.885C33.3658 166.819 33.6013 166.841 33.8029 166.947C34.0045 167.053 34.156 167.235 34.2242 167.453L35.0961 170.233C35.1662 170.456 35.1447 170.698 35.0362 170.906C34.9278 171.114 34.7413 171.27 34.5178 171.34C34.2943 171.41 34.0522 171.388 33.8446 171.28C33.637 171.171 33.4811 170.985 33.411 170.761L33.4088 170.754L33.4044 170.74Z" fill="#020202"/>
<path d="M31.715 165.206L30.819 162.456L30.8158 162.446C30.7483 162.239 30.7653 162.014 30.8632 161.819C30.9611 161.625 31.1319 161.477 31.3383 161.409C31.5447 161.34 31.7699 161.355 31.9648 161.452C32.1597 161.549 32.3084 161.719 32.3784 161.925L33.3186 164.683C33.3544 164.788 33.3691 164.899 33.362 165.009C33.3549 165.12 33.3261 165.228 33.2772 165.327C33.2284 165.427 33.1604 165.515 33.0772 165.588C32.994 165.662 32.8972 165.718 32.7924 165.753C32.6876 165.789 32.5767 165.804 32.4662 165.797C32.3557 165.79 32.2476 165.761 32.1482 165.712C32.0488 165.663 31.96 165.595 31.8869 165.512C31.8137 165.429 31.7577 165.332 31.7219 165.227L31.7198 165.221L31.715 165.206Z" fill="#020202"/>
<path d="M29.8876 159.717L28.9193 156.991L28.9157 156.981C28.8806 156.884 28.8648 156.782 28.8694 156.679C28.874 156.576 28.8988 156.475 28.9424 156.382C29.0305 156.193 29.1898 156.048 29.3852 155.977C29.5807 155.906 29.7963 155.915 29.9847 156.003C30.1731 156.092 30.3187 156.251 30.3897 156.446L31.4025 159.179C31.4759 159.379 31.4672 159.599 31.3781 159.793C31.289 159.986 31.1269 160.136 30.9274 160.21C30.7278 160.284 30.507 160.276 30.3135 160.187C30.12 160.099 29.9694 159.937 29.8949 159.738L29.8927 159.731L29.8876 159.717Z" fill="#020202"/>
<path d="M27.9132 154.28L26.8679 151.583L26.8639 151.573C26.793 151.389 26.7974 151.185 26.8761 151.005C26.9549 150.825 27.1017 150.684 27.2844 150.611C27.4671 150.539 27.671 150.542 27.8516 150.62C28.0322 150.697 28.1749 150.843 28.2484 151.025L29.3387 153.728C29.3762 153.821 29.3951 153.921 29.3941 154.021C29.3932 154.121 29.3725 154.22 29.3332 154.313C29.294 154.405 29.2369 154.489 29.1653 154.559C29.0936 154.63 29.0089 154.685 28.9158 154.723C28.8227 154.76 28.7231 154.779 28.6228 154.778C28.5224 154.777 28.4232 154.756 28.3308 154.717C28.2385 154.678 28.1547 154.621 28.0844 154.549C28.0141 154.478 27.9586 154.393 27.9211 154.3L27.9187 154.294L27.9132 154.28Z" fill="#020202"/>
<path d="M25.7826 148.902L24.6664 146.234L24.6621 146.224C24.5917 146.056 24.5905 145.867 24.6586 145.698C24.7268 145.529 24.8588 145.393 25.0261 145.321C25.1934 145.249 25.3824 145.246 25.5521 145.312C25.7217 145.378 25.8584 145.509 25.9324 145.676L27.1168 148.339C27.1556 148.426 27.1769 148.52 27.1795 148.615C27.182 148.71 27.1658 148.805 27.1317 148.893C27.0976 148.982 27.0463 149.064 26.9808 149.133C26.9153 149.202 26.8368 149.257 26.7498 149.296C26.6629 149.334 26.5691 149.356 26.474 149.358C26.3788 149.36 26.2841 149.344 26.1953 149.31C26.1065 149.276 26.0252 149.224 25.9563 149.159C25.8874 149.093 25.832 149.014 25.7935 148.927L25.7885 148.916L25.7826 148.902Z" fill="#020202"/>
<path d="M23.5068 143.584L22.3022 140.955L22.2976 140.945C22.2289 140.795 22.2222 140.623 22.2789 140.468C22.3355 140.313 22.4511 140.187 22.6004 140.117C22.7497 140.046 22.9208 140.037 23.0765 140.092C23.2322 140.147 23.36 140.261 23.4321 140.41L24.7047 143.032C24.7425 143.11 24.7646 143.195 24.7697 143.281C24.7749 143.367 24.7629 143.454 24.7345 143.536C24.7062 143.618 24.6619 143.693 24.6044 143.758C24.5469 143.823 24.4772 143.876 24.3992 143.913C24.3213 143.951 24.2367 143.973 24.1502 143.978C24.0638 143.984 23.9771 143.972 23.8953 143.943C23.8134 143.915 23.738 143.871 23.6732 143.813C23.6084 143.756 23.5556 143.686 23.5178 143.608L23.5129 143.598L23.5068 143.584Z" fill="#020202"/>
<path d="M21.051 138.347L19.7517 135.763L19.7468 135.753C19.6802 135.621 19.6685 135.467 19.7142 135.326C19.76 135.185 19.8595 135.068 19.9911 135C20.1227 134.932 20.2759 134.919 20.4173 134.963C20.5588 135.007 20.6771 135.106 20.7465 135.236L22.1132 137.811C22.1507 137.88 22.1742 137.956 22.1823 138.034C22.1903 138.112 22.1828 138.191 22.1601 138.266C22.1375 138.342 22.1001 138.412 22.0502 138.472C22.0003 138.533 21.9389 138.583 21.8694 138.62C21.8 138.657 21.7239 138.68 21.6456 138.687C21.5673 138.694 21.4884 138.686 21.4133 138.663C21.3383 138.639 21.2686 138.601 21.2083 138.551C21.148 138.5 21.0984 138.438 21.0622 138.369L21.0574 138.36L21.051 138.347Z" fill="#020202"/>
<path d="M18.401 133.201C17.9353 132.365 17.4816 131.502 17.0353 130.626C16.9757 130.51 16.9647 130.374 17.0044 130.249C17.0442 130.124 17.1316 130.02 17.2477 129.959C17.3637 129.898 17.4991 129.886 17.6245 129.924C17.7499 129.962 17.8551 130.048 17.9173 130.164L17.9206 130.17C18.3709 131.007 18.8349 131.845 19.3286 132.687C19.3997 132.808 19.4198 132.953 19.3843 133.089C19.3488 133.225 19.2607 133.341 19.1393 133.413C19.018 133.484 18.8733 133.504 18.7372 133.468C18.601 133.433 18.4846 133.345 18.4134 133.223L18.4089 133.215L18.401 133.201Z" fill="#020202"/>
<path d="M15.7556 128.01L14.517 125.373C14.4688 125.27 14.4629 125.152 14.5008 125.045C14.5387 124.938 14.6172 124.851 14.7193 124.801C14.8215 124.751 14.939 124.744 15.0465 124.781C15.154 124.817 15.2428 124.895 15.2935 124.996L15.2965 125.002L16.5911 127.599L16.5941 127.604C16.6215 127.659 16.6379 127.719 16.6422 127.78C16.6466 127.841 16.6389 127.902 16.6195 127.96C16.6001 128.019 16.5695 128.072 16.5293 128.119C16.4892 128.165 16.4403 128.203 16.3855 128.23C16.3307 128.257 16.271 128.274 16.2099 128.278C16.1488 128.282 16.0875 128.274 16.0294 128.255C15.9713 128.235 15.9177 128.205 15.8715 128.164C15.8253 128.124 15.7876 128.075 15.7603 128.02L15.7556 128.01Z" fill="#020202"/>
<path d="M13.3292 122.717L12.1812 120.04C12.1462 119.958 12.1447 119.866 12.1769 119.784C12.2091 119.701 12.2724 119.635 12.3533 119.598C12.4341 119.562 12.526 119.559 12.6091 119.59C12.6922 119.62 12.7598 119.683 12.7975 119.763L12.8002 119.769L14.0287 122.397L14.0314 122.402C14.0529 122.448 14.0652 122.498 14.0675 122.548C14.0699 122.599 14.0622 122.649 14.045 122.697C14.0278 122.745 14.0014 122.788 13.9673 122.826C13.9331 122.863 13.892 122.893 13.8461 122.915C13.8003 122.936 13.7507 122.948 13.7001 122.951C13.6496 122.953 13.5991 122.945 13.5515 122.928C13.504 122.91 13.4603 122.884 13.423 122.85C13.3857 122.815 13.3556 122.774 13.3343 122.728L13.3292 122.717Z" fill="#020202"/>
<path d="M11.0856 117.343L10.0589 114.617C10.0363 114.557 10.0382 114.49 10.0641 114.432C10.09 114.373 10.1379 114.327 10.1974 114.304C10.2569 114.28 10.3234 114.281 10.3823 114.306C10.4413 114.331 10.4882 114.378 10.5127 114.437L10.5159 114.445L11.6238 117.121L11.627 117.129C11.6416 117.164 11.6492 117.202 11.6491 117.241C11.6491 117.279 11.6416 117.317 11.6269 117.352C11.6123 117.387 11.5908 117.419 11.5638 117.446C11.5368 117.473 11.5047 117.495 11.4693 117.509C11.434 117.524 11.3962 117.532 11.3579 117.532C11.3197 117.532 11.2818 117.524 11.2465 117.509C11.2112 117.495 11.1791 117.473 11.1521 117.446C11.1251 117.419 11.1036 117.387 11.089 117.352L11.0856 117.343Z" fill="#020202"/>
<path d="M9.13887 111.85L8.42304 109.014C8.41338 108.976 8.41911 108.935 8.43901 108.901C8.4589 108.867 8.49136 108.843 8.52938 108.832C8.56741 108.822 8.60795 108.827 8.64227 108.846C8.67659 108.866 8.70192 108.898 8.71282 108.936L8.7182 108.955L9.51483 111.73L9.51983 111.748C9.53403 111.798 9.52775 111.852 9.50236 111.897C9.47697 111.943 9.43454 111.977 9.38436 111.991C9.33418 112.006 9.28033 111.999 9.23461 111.974C9.1889 111.949 9.15504 111.907 9.14044 111.857L9.13887 111.85Z" fill="#020202"/>
<path d="M8.5078 106.072C8.62036 105.882 8.79925 105.74 9.00989 105.675C9.02202 105.671 9.03477 105.67 9.04743 105.671C9.06008 105.672 9.07239 105.676 9.08365 105.682C9.09491 105.687 9.1049 105.695 9.11304 105.705C9.12118 105.715 9.12731 105.726 9.13109 105.738C9.13814 105.763 9.13554 105.789 9.12384 105.811C9.11214 105.834 9.09224 105.851 9.06824 105.859C8.9051 105.914 8.76844 106.028 8.68518 106.179C8.67836 106.191 8.66927 106.201 8.65845 106.209C8.64763 106.218 8.63529 106.224 8.62212 106.227C8.60895 106.231 8.59524 106.232 8.58173 106.23C8.56822 106.228 8.55519 106.224 8.5434 106.217C8.53161 106.21 8.52128 106.201 8.513 106.19C8.50473 106.179 8.49868 106.167 8.49518 106.154C8.49168 106.141 8.49081 106.127 8.49262 106.113C8.49443 106.1 8.49889 106.087 8.50574 106.075L8.5078 106.072Z" fill="#020202"/>
<path d="M98.793 171.882C96.676 172.422 94.5173 172.783 92.3397 172.961C90.1902 173.155 88.0416 173.235 85.8939 173.217C83.7463 173.2 81.5996 173.081 79.4539 172.849C77.2794 172.633 75.1274 172.232 73.0212 171.65C75.1375 171.105 77.2964 170.743 79.4744 170.566C81.624 170.373 83.7725 170.293 85.9202 170.315C88.0677 170.336 90.2145 170.454 92.3602 170.686C94.5342 170.903 96.6861 171.303 98.793 171.882Z" fill="#020202"/>
<path d="M43.2727 288.934C43.6421 291.959 43.8051 294.984 43.926 298.009C44.033 301.033 44.0941 304.058 43.9815 307.083C43.8429 310.107 43.5609 313.132 43.4898 316.157C43.4845 316.913 43.4601 317.669 43.4706 318.426C43.4136 319.146 43.5135 319.869 43.7634 320.547C44.0218 321.186 44.4423 321.747 44.9834 322.174C45.5246 322.601 46.1677 322.88 46.8494 322.983C47.5041 323.068 48.1697 322.993 48.7889 322.765C49.3819 322.529 49.9099 322.154 50.3291 321.673C50.7354 321.204 51.0193 320.641 51.1554 320.035C51.2207 319.737 51.252 319.433 51.2488 319.128L51.225 317.997C51.1581 314.972 51.0768 311.947 51.1031 308.923C51.1849 302.873 51.4279 296.824 52.0386 290.774C52.041 290.75 52.0522 290.728 52.0701 290.712C52.088 290.696 52.1112 290.687 52.1353 290.687C52.1594 290.687 52.1827 290.696 52.2005 290.712C52.2184 290.728 52.2296 290.75 52.2321 290.774C52.8427 296.824 53.0857 302.873 53.1675 308.923C53.1937 311.947 53.1126 314.972 53.0457 317.997L53.0203 319.134C53.0092 319.586 52.9396 320.035 52.8134 320.469C52.4509 321.75 51.6017 322.839 50.4471 323.503C49.2925 324.167 47.9241 324.353 46.6343 324.021C45.8298 323.81 45.09 323.403 44.4814 322.837C43.8727 322.27 43.4141 321.561 43.1466 320.774C43.0189 320.39 42.9343 319.992 42.8944 319.589C42.8686 319.176 42.8773 318.803 42.8814 318.425C42.8919 317.669 42.8674 316.913 42.8622 316.157C42.7909 313.132 42.509 310.107 42.3705 307.083C42.2578 304.058 42.319 301.033 42.4259 298.009C42.5469 294.984 42.7097 291.959 43.0792 288.934C43.0821 288.911 43.0935 288.889 43.1114 288.873C43.1292 288.857 43.1521 288.849 43.176 288.849C43.1998 288.849 43.2228 288.857 43.2406 288.873C43.2584 288.889 43.2698 288.911 43.2727 288.934Z" fill="#020202"/>
<path d="M181.379 295.709C181.748 298.291 181.911 300.874 182.032 303.456C182.139 306.038 182.2 308.621 182.088 311.203C181.968 313.786 181.656 316.368 181.596 318.951C181.559 319.556 181.663 320.161 181.899 320.72C182.136 321.278 182.498 321.775 182.958 322.17C183.492 322.63 184.142 322.935 184.838 323.053C185.533 323.171 186.247 323.097 186.904 322.839C187.56 322.581 188.134 322.149 188.563 321.589C188.992 321.03 189.26 320.363 189.338 319.662C189.386 319.196 189.341 318.494 189.331 317.857C189.264 315.274 189.183 312.692 189.209 310.11C189.255 304.932 189.567 299.76 190.145 294.615C190.147 294.591 190.159 294.57 190.177 294.554C190.195 294.538 190.218 294.529 190.241 294.529C190.265 294.529 190.288 294.538 190.306 294.554C190.324 294.57 190.335 294.591 190.338 294.615C190.916 299.76 191.228 304.932 191.274 310.11C191.3 312.692 191.219 315.274 191.152 317.857C191.157 318.546 191.117 319.235 191.033 319.919C190.837 321.036 190.271 322.055 189.425 322.812C188.579 323.568 187.503 324.016 186.371 324.085C185.663 324.133 184.954 324.029 184.289 323.783C183.624 323.536 183.019 323.151 182.513 322.654C182.018 322.174 181.626 321.598 181.361 320.961C181.095 320.324 180.962 319.64 180.968 318.951C180.909 316.368 180.596 313.786 180.477 311.203C180.364 308.621 180.425 306.038 180.532 303.456C180.653 300.874 180.816 298.291 181.185 295.709C181.189 295.685 181.2 295.664 181.218 295.649C181.236 295.633 181.259 295.625 181.282 295.625C181.306 295.625 181.328 295.633 181.346 295.649C181.364 295.664 181.376 295.685 181.379 295.709Z" fill="#020202"/>
<path d="M48.2108 109.219C48.8668 108.141 49.6941 107.178 50.6602 106.366C51.6145 105.54 52.6463 104.808 53.7413 104.18C55.9593 102.959 58.3563 102.096 60.8437 101.623C63.3171 101.116 65.836 100.864 68.3609 100.87C69.6165 100.925 70.8751 100.973 72.1299 101.052L75.8722 101.486C76.0253 101.503 76.1684 101.57 76.2798 101.677L76.3067 101.703C78.3102 103.614 80.3351 105.503 82.3211 107.433L81.6042 107.196C84.9934 106.934 88.4008 107.355 91.6244 108.434C94.8124 109.471 97.7988 111.048 100.454 113.095C101.118 113.595 101.714 114.181 102.345 114.719C102.652 114.999 102.977 115.258 103.267 115.553L104.105 116.472C104.65 117.096 105.25 117.67 105.762 118.318L107.241 120.305C107.48 120.641 107.747 120.957 107.969 121.304L108.608 122.362L109.885 124.477C110.644 125.936 111.339 127.428 112.069 128.904L112.072 128.911L112.078 128.928C112.695 130.682 113.481 132.371 114.426 133.971C114.895 134.756 115.449 135.486 116.077 136.15C116.636 136.801 117.376 137.27 118.203 137.498C118.262 137.509 118.318 137.532 118.368 137.565C118.419 137.598 118.462 137.641 118.496 137.69C118.529 137.74 118.553 137.796 118.565 137.855C118.577 137.913 118.578 137.974 118.567 138.033L118.551 138.094L118.546 138.109C117.433 141.293 116.117 144.403 114.605 147.419C113.098 150.448 111.363 153.358 109.414 156.123C107.444 158.909 105.182 161.477 102.667 163.784C100.079 166.095 97.1227 167.957 93.9208 169.293C93.751 169.362 93.5653 169.382 93.3847 169.351C93.2042 169.319 93.0359 169.239 92.8988 169.117L92.8835 169.103C89.4395 166.04 86.1513 162.87 82.9882 159.547C79.8068 156.249 76.797 152.783 73.9425 149.189C72.5276 147.382 71.1483 145.544 69.8494 143.647C68.5752 141.732 67.3688 139.769 66.2858 137.735C65.1777 135.706 64.2883 133.565 63.6328 131.348C62.9226 129.135 62.7448 126.787 63.1136 124.493C63.1161 124.48 63.121 124.468 63.1281 124.458C63.1352 124.447 63.1443 124.438 63.1549 124.431C63.1655 124.424 63.1774 124.419 63.1898 124.417C63.2023 124.414 63.2152 124.414 63.2276 124.417C63.2514 124.422 63.2724 124.436 63.2865 124.456C63.3007 124.476 63.3071 124.501 63.3045 124.525C63.1358 126.775 63.476 129.034 64.2998 131.134C65.0882 133.244 66.0715 135.276 67.237 137.203C69.6177 141.048 72.2868 144.707 75.2213 148.148C78.1375 151.614 81.2514 154.914 84.421 158.157C87.6103 161.374 90.8791 164.548 94.2386 167.555L93.2016 167.366C96.1973 166.161 98.9741 164.471 101.42 162.363C103.868 160.181 106.087 157.754 108.041 155.121C110.017 152.469 111.804 149.681 113.389 146.778C115.015 143.887 116.442 140.888 117.661 137.803L118.004 138.413C117.009 138.115 116.127 137.522 115.476 136.713C114.839 135.982 114.28 135.187 113.808 134.34C112.861 132.683 112.079 130.938 111.473 129.128L111.482 129.152C110.773 127.693 110.139 126.191 109.368 124.764L108.089 122.693L107.449 121.658C107.231 121.317 106.958 121.013 106.713 120.692L105.206 118.787C104.686 118.169 104.085 117.623 103.521 117.046L102.664 116.193C102.368 115.921 102.039 115.684 101.728 115.429C101.09 114.938 100.49 114.399 99.8255 113.949C97.1965 112.118 94.2746 110.749 91.1854 109.9C88.1496 109.026 84.9837 108.693 81.8325 108.916L81.7915 108.919C81.6682 108.93 81.5442 108.913 81.4277 108.872C81.3111 108.831 81.2047 108.765 81.1153 108.68C79.12 106.76 77.1638 104.8 75.1861 102.862L75.6201 103.078L71.9866 102.588C70.7714 102.489 69.5531 102.42 68.3353 102.343C65.902 102.268 63.4668 102.412 61.0593 102.775C58.6525 103.139 56.31 103.844 54.1028 104.871C53.0053 105.4 51.9614 106.034 50.9855 106.764C49.9966 107.482 49.1183 108.342 48.3787 109.316L48.3721 109.325C48.3575 109.345 48.3358 109.358 48.3114 109.363C48.2871 109.367 48.2619 109.362 48.2412 109.349C48.2204 109.335 48.2057 109.314 48.2 109.29C48.1944 109.266 48.1983 109.24 48.2108 109.219L48.2108 109.219Z" fill="#020202"/>
<path d="M67.9551 114.859C68.5401 113.839 69.2841 112.919 70.1592 112.133C71.0324 111.33 72.0108 110.65 73.0675 110.111C74.1333 109.568 75.2842 109.212 76.4703 109.058C77.6451 108.9 78.84 108.99 79.978 109.322C78.8424 109.372 77.7144 109.532 76.6098 109.8C75.5329 110.075 74.4901 110.469 73.5009 110.975C71.4944 112.028 69.6307 113.333 67.9551 114.859Z" fill="#020202"/>
<path d="M95.4231 167.515C98.8263 171.788 102.652 175.707 106.841 179.212C110.927 182.755 115.655 185.48 120.767 187.241C123.29 188.052 125.944 188.376 128.588 188.195C131.215 187.976 133.773 187.24 136.115 186.028C140.83 183.648 144.463 179.427 147.097 174.791C149.692 170.037 151.15 164.746 151.355 159.334L151.543 142.904L151.548 138.793C151.505 137.403 151.598 136.011 151.826 134.639C152.027 133.261 152.34 131.901 152.76 130.574C153.27 129.282 153.849 128.019 154.494 126.789C155.732 124.334 157.024 121.918 158.197 119.458C159.424 117.069 160.348 114.536 160.947 111.918C160.954 111.882 160.963 111.846 160.976 111.811L160.983 111.792L164.123 103.349L165.637 99.1185C165.757 98.8399 165.835 98.5452 165.87 98.244C165.892 97.9874 165.861 97.729 165.779 97.4849C165.71 97.2608 165.587 97.0568 165.422 96.8903C165.256 96.7238 165.053 96.5997 164.829 96.5286C164.086 96.2509 162.916 97.2184 162.114 98.3184C161.266 99.4833 160.532 100.727 159.921 102.033C158.606 104.833 156.946 107.457 154.979 109.845C153.956 111.086 152.749 112.165 151.401 113.044C150.663 113.515 149.849 113.854 148.994 114.046C147.989 114.279 146.932 114.106 146.054 113.565C145.306 112.972 144.741 112.179 144.424 111.279C144.107 110.379 144.05 109.408 144.26 108.477C144.401 107.645 144.653 106.837 145.01 106.074L145.271 105.532C145.346 105.384 145.414 105.234 145.478 105.083C145.605 104.782 145.709 104.473 145.791 104.157C145.953 103.544 146.009 102.908 145.955 102.276C145.946 102.076 145.898 101.879 145.814 101.697C145.799 101.668 145.86 101.749 145.908 101.747C145.965 101.753 145.928 101.747 145.856 101.764C145.312 101.984 144.818 102.311 144.403 102.726C143.904 103.191 143.455 103.707 143.063 104.266C141.484 106.672 140.39 109.365 139.843 112.191L139.854 111.995L140.171 119.243L140.329 122.866L140.409 124.677C140.455 125.299 140.46 125.923 140.425 126.545C140.063 129.007 139.356 131.406 138.325 133.67C137.395 135.922 136.337 138.106 135.299 140.281L135.291 140.299L135.269 140.337C132.957 143.783 130.656 147.238 128.31 150.663C128.296 150.684 128.274 150.698 128.25 150.703C128.225 150.708 128.199 150.703 128.178 150.69C128.157 150.677 128.142 150.656 128.136 150.631C128.13 150.607 128.134 150.581 128.146 150.559C130.238 146.973 132.375 143.415 134.5 139.85L134.47 139.905C135.438 137.689 136.413 135.49 137.252 133.247C138.152 131.08 138.751 128.799 139.031 126.47C139.04 125.886 139.013 125.302 138.952 124.721L138.833 122.916L138.594 119.307L138.117 112.09C138.113 112.025 138.117 111.959 138.129 111.894C138.41 110.359 138.821 108.851 139.358 107.385C139.885 105.893 140.596 104.471 141.473 103.153C141.938 102.475 142.473 101.849 143.07 101.283C143.715 100.626 144.506 100.13 145.378 99.8342C145.724 99.7379 146.09 99.7345 146.438 99.8244C146.837 99.9349 147.187 100.179 147.428 100.516C147.735 100.976 147.917 101.509 147.956 102.062C148.043 102.93 147.979 103.806 147.766 104.652C147.664 105.065 147.532 105.47 147.371 105.864C147.291 106.06 147.205 106.253 147.112 106.441L146.889 106.917C146.616 107.52 146.42 108.155 146.306 108.807C146.197 109.396 146.218 110.002 146.37 110.582C146.505 111.077 146.792 111.518 147.192 111.841C147.871 112.335 149.202 112.005 150.321 111.291C151.493 110.523 152.549 109.59 153.457 108.522C155.342 106.286 156.942 103.823 158.218 101.191C158.9 99.7807 159.718 98.4403 160.659 97.1882C161.165 96.5122 161.769 95.9157 162.452 95.4187C162.855 95.103 163.326 94.8847 163.828 94.7809C164.329 94.677 164.848 94.6904 165.344 94.82C165.839 94.9776 166.289 95.2525 166.655 95.6213C167.021 95.9901 167.293 96.4419 167.447 96.9382C167.599 97.4107 167.652 97.9095 167.602 98.4034C167.547 98.8492 167.428 99.2849 167.251 99.6975L165.626 103.919C164.518 106.719 163.415 109.516 162.257 112.294L162.293 112.167C161.587 114.881 160.541 117.494 159.179 119.944C157.912 122.395 156.554 124.78 155.251 127.183C154.59 128.363 153.989 129.576 153.451 130.817C153.023 132.097 152.704 133.412 152.494 134.745C152.256 136.076 152.149 137.427 152.175 138.779L152.128 142.891C152.125 148.382 152.039 153.836 152.216 159.354C152.209 164.953 150.897 170.473 148.385 175.476C147.114 177.987 145.509 180.315 143.615 182.397C141.71 184.516 139.437 186.271 136.906 187.578C134.349 188.867 131.56 189.631 128.704 189.824C125.859 189.981 123.011 189.595 120.311 188.688C114.92 186.947 110.285 183.65 106.154 180.013C104.09 178.18 102.148 176.215 100.338 174.131C98.5124 172.071 96.8178 169.899 95.265 167.627C95.2579 167.616 95.253 167.604 95.2504 167.592C95.2479 167.579 95.2479 167.566 95.2503 167.554C95.2528 167.542 95.2577 167.53 95.2647 167.519C95.2718 167.508 95.2808 167.499 95.2914 167.492C95.3123 167.479 95.3372 167.474 95.3616 167.478C95.3859 167.483 95.4078 167.496 95.4231 167.515Z" fill="#020202"/>
<path d="M117.28 140.093C119.159 141.522 120.928 143.082 122.66 144.68C124.399 146.272 126.053 147.952 127.676 149.662C129.287 151.384 130.846 153.156 132.315 155.001C133.8 156.835 135.182 158.749 136.454 160.736C135.644 159.875 134.91 158.959 134.098 158.106C133.33 157.219 132.543 156.348 131.749 155.485C130.155 153.764 128.588 152.021 126.971 150.324L117.28 140.093Z" fill="#020202"/>
<path d="M93.5072 109.812C98.7312 105.952 104.312 102.599 110.173 99.799C113.102 98.3709 116.114 97.121 119.194 96.0561C122.283 94.9699 125.472 94.1909 128.715 93.7304C131.938 93.2911 135.184 93.0432 138.436 92.988C139.249 92.9688 140.064 92.9722 140.878 93.0138L141.489 93.0416C141.717 93.0567 141.943 93.1015 142.159 93.175C142.596 93.328 142.98 93.601 143.269 93.9627C143.521 94.2801 143.692 94.6539 143.769 95.052C143.845 95.4502 143.824 95.8609 143.708 96.2492C143.591 96.6375 143.382 96.9918 143.099 97.2819C142.816 97.572 142.467 97.7894 142.081 97.9153L141.506 98.1074C138.442 99.1455 135.369 100.159 132.267 101.109C130.713 101.574 129.154 102.037 127.563 102.411C126.767 102.602 125.965 102.776 125.145 102.922C124.274 103.098 123.386 103.168 122.499 103.13C122.28 103.115 122.075 103.015 121.928 102.852C121.78 102.689 121.701 102.476 121.707 102.256C121.714 102.037 121.804 101.828 121.96 101.673C122.116 101.519 122.326 101.431 122.546 101.427L122.612 101.426L136.454 101.254L136.467 101.253C136.635 101.252 136.801 101.295 136.947 101.379C137.252 101.556 137.529 101.778 137.769 102.037C138.05 102.345 138.247 102.72 138.34 103.127C138.408 103.531 138.37 103.946 138.23 104.332C138.09 104.718 137.853 105.061 137.542 105.328C136.715 106.032 135.765 106.579 134.74 106.94C133.818 107.283 132.878 107.574 131.924 107.812C130.986 108.08 130.044 108.245 129.104 108.465L129.594 108.2C128.518 109.21 127.36 110.127 126.132 110.942C124.91 111.774 123.609 112.484 122.248 113.06C120.851 113.67 119.347 114.001 117.823 114.033C116.243 114.034 114.711 113.493 113.481 112.502L114.151 112.525C112.632 113.445 111.13 114.393 109.596 115.291C108.066 116.196 106.546 117.115 105.002 117.998C104.98 118.01 104.955 118.013 104.931 118.008C104.908 118.002 104.887 117.987 104.873 117.967C104.86 117.946 104.854 117.921 104.859 117.897C104.863 117.873 104.876 117.851 104.895 117.836C106.312 116.761 107.753 115.722 109.185 114.669C110.612 113.609 112.071 112.598 113.513 111.561C113.605 111.496 113.714 111.46 113.826 111.459C113.938 111.457 114.048 111.491 114.141 111.555L114.183 111.584C115.238 112.321 116.515 112.673 117.799 112.58C119.118 112.49 120.407 112.143 121.594 111.559C122.824 110.973 123.994 110.267 125.086 109.451C126.184 108.639 127.226 107.755 128.207 106.805C128.334 106.682 128.49 106.594 128.661 106.549L128.697 106.54C129.595 106.31 130.517 106.13 131.393 105.86C132.27 105.62 133.134 105.336 133.983 105.01C134.746 104.745 135.46 104.355 136.095 103.855C136.362 103.615 136.31 103.525 136.326 103.561C136.338 103.558 136.301 103.499 136.24 103.415C136.155 103.33 136.062 103.252 135.962 103.185L136.454 103.31L122.612 103.138L122.725 101.434C123.453 101.479 124.183 101.444 124.903 101.331C125.678 101.227 126.461 101.091 127.244 100.938C128.808 100.623 130.381 100.292 131.947 99.9225C135.08 99.1814 138.197 98.3564 141.298 97.4477L141.877 97.2742C142.043 97.2263 142.201 97.1556 142.346 97.0642C142.64 96.8789 142.875 96.6145 143.025 96.3012C143.172 95.9837 143.23 95.6317 143.19 95.2839C143.151 94.936 143.017 94.6056 142.803 94.3288C142.588 94.0527 142.299 93.8433 141.97 93.7251C141.803 93.6716 141.63 93.64 141.455 93.6311L140.855 93.6125C140.057 93.5834 139.255 93.5907 138.453 93.6223C135.246 93.8107 132.059 94.247 128.919 94.9273C125.805 95.6266 122.746 96.5462 119.762 97.679C116.751 98.7482 113.78 99.9429 110.85 101.263C104.99 103.879 99.2486 106.809 93.6149 109.973C93.604 109.98 93.5919 109.984 93.5794 109.986C93.5668 109.988 93.554 109.987 93.5416 109.984C93.5293 109.981 93.5177 109.976 93.5074 109.968C93.4972 109.961 93.4885 109.951 93.482 109.94C93.4702 109.919 93.4663 109.895 93.4709 109.872C93.4755 109.848 93.4884 109.827 93.5072 109.812Z" fill="#020202"/>
<path d="M151.599 81.3826L143.111 94.2637C144.727 97.0217 141.118 97.8638 141.118 97.8638L137.005 102.722C137.005 102.722 138.176 104.667 134.885 105.77L140.102 108.035C140.102 108.035 141.873 102.722 144.563 101.222L142.337 100.515L152.363 84.1506L165.912 85.5344L155.876 104.812L146.973 101.987C147.093 103.698 146.681 105.406 145.792 106.874L145.231 109.225L151.947 111.393C154.496 108.257 156.877 104.988 159.08 101.599C161.16 98.0476 163.028 95.2315 164.364 95.5991L171.854 82.7664L151.599 81.3826ZM140.13 104.754C139.754 104.741 139.398 104.582 139.137 104.311C138.876 104.04 138.73 103.679 138.73 103.303C138.73 102.926 138.876 102.565 139.137 102.294C139.398 102.023 139.754 101.864 140.13 101.851C140.507 101.864 140.863 102.023 141.124 102.294C141.386 102.565 141.532 102.926 141.532 103.303C141.532 103.679 141.386 104.041 141.124 104.311C140.863 104.582 140.507 104.741 140.13 104.754V104.754ZM151.976 108.703C151.6 108.689 151.244 108.531 150.983 108.26C150.721 107.989 150.575 107.627 150.575 107.251C150.575 106.875 150.721 106.513 150.983 106.242C151.244 105.972 151.6 105.813 151.976 105.799C152.352 105.813 152.709 105.972 152.97 106.242C153.231 106.513 153.377 106.875 153.377 107.251C153.377 107.628 153.231 107.989 152.97 108.26C152.709 108.531 152.352 108.69 151.976 108.703V108.703Z" fill="#020202"/>
<path d="M100.35 105.767C102.115 107.026 103.772 108.432 105.301 109.969C106.862 111.474 108.291 113.11 109.574 114.859C107.807 113.601 106.151 112.196 104.622 110.657C103.064 109.15 101.635 107.514 100.35 105.767Z" fill="#020202"/>
<path d="M282.315 212.622C277.564 210.251 241.737 142.323 241.737 142.323C236.037 131.804 228.575 126.578 221.472 124.158C216.621 122.562 211.469 122.093 206.41 122.787C201.35 123.481 196.516 125.32 192.274 128.165L151.666 154.943C152.295 167.321 149.218 171.966 149.218 171.966L183.477 173.505C196.716 177.202 196.193 187.905 196.193 187.905L197.277 266.73C219.265 277.405 246.479 266.73 246.479 266.73L242.443 244.655L238.524 223.064C237.179 215.884 235.833 208.713 234.256 201.59C233.511 198.019 232.659 194.477 231.749 190.944C230.859 187.422 229.872 183.908 228.739 180.463C227.655 177.005 226.296 173.64 224.675 170.398C223.883 168.78 222.878 167.277 221.684 165.927C221.084 165.266 220.369 164.719 219.575 164.311C219.182 164.093 218.743 163.971 218.294 163.954C217.845 163.937 217.399 164.026 216.991 164.214C217.394 163.976 217.848 163.836 218.316 163.808C218.784 163.779 219.252 163.862 219.681 164.05C220.554 164.404 221.355 164.916 222.043 165.56C223.382 166.856 224.544 168.323 225.498 169.924C227.358 173.119 228.919 176.478 230.162 179.96C232.638 186.886 234.636 193.974 236.143 201.174C237.701 208.345 238.969 215.574 240.014 222.822C241.079 230.071 241.843 237.358 242.443 244.655C260.957 241.336 282.315 212.622 282.315 212.622ZM201.584 266.024C201.208 266.01 200.852 265.852 200.59 265.581C200.329 265.31 200.183 264.948 200.183 264.572C200.183 264.196 200.329 263.834 200.59 263.564C200.852 263.293 201.208 263.134 201.584 263.121C201.96 263.134 202.316 263.293 202.577 263.564C202.839 263.834 202.985 264.196 202.985 264.572C202.985 264.948 202.839 265.31 202.577 265.581C202.316 265.852 201.96 266.01 201.584 266.024ZM208.552 267.882C208.176 267.868 207.82 267.71 207.558 267.439C207.297 267.168 207.151 266.806 207.151 266.43C207.151 266.054 207.297 265.692 207.558 265.422C207.82 265.151 208.176 264.992 208.552 264.979C208.928 264.992 209.284 265.15 209.546 265.421C209.807 265.692 209.954 266.054 209.954 266.43C209.954 266.807 209.807 267.168 209.546 267.439C209.284 267.71 208.928 267.869 208.552 267.882V267.882ZM239.908 263.12C240.284 263.133 240.641 263.291 240.903 263.562C241.166 263.833 241.312 264.195 241.312 264.572C241.312 264.949 241.166 265.311 240.903 265.582C240.641 265.853 240.284 266.011 239.908 266.024C239.531 266.011 239.174 265.853 238.912 265.582C238.65 265.311 238.504 264.949 238.504 264.572C238.504 264.195 238.65 263.833 238.912 263.563C239.174 263.292 239.531 263.133 239.908 263.121V263.12ZM232.243 265.443C232.62 265.455 232.977 265.614 233.239 265.885C233.501 266.156 233.647 266.518 233.647 266.895C233.647 267.272 233.501 267.634 233.239 267.905C232.977 268.176 232.62 268.334 232.243 268.346C231.866 268.334 231.509 268.175 231.247 267.904C230.986 267.634 230.839 267.272 230.839 266.895C230.839 266.518 230.986 266.156 231.247 265.885C231.509 265.614 231.866 265.456 232.243 265.443V265.443ZM224.81 266.372C225.187 266.384 225.544 266.543 225.806 266.814C226.068 267.085 226.215 267.447 226.215 267.824C226.215 268.201 226.068 268.563 225.806 268.834C225.544 269.105 225.187 269.263 224.81 269.275C224.434 269.263 224.077 269.104 223.815 268.833C223.553 268.562 223.407 268.2 223.407 267.824C223.407 267.447 223.553 267.085 223.815 266.814C224.077 266.543 224.434 266.385 224.81 266.372V266.372ZM216.681 269.043C216.305 269.03 215.949 268.871 215.688 268.6C215.426 268.329 215.28 267.968 215.28 267.591C215.28 267.215 215.426 266.854 215.688 266.583C215.949 266.312 216.305 266.153 216.681 266.14C217.057 266.153 217.414 266.311 217.676 266.582C217.937 266.853 218.084 267.215 218.084 267.591C218.084 267.968 217.937 268.33 217.676 268.601C217.414 268.872 217.057 269.03 216.681 269.043V269.043ZM278.928 209.932C279.305 209.944 279.662 210.103 279.924 210.373C280.186 210.644 280.333 211.006 280.333 211.383C280.333 211.76 280.186 212.122 279.924 212.393C279.662 212.664 279.305 212.823 278.928 212.835C278.552 212.822 278.195 212.664 277.934 212.393C277.672 212.122 277.526 211.76 277.526 211.383C277.526 211.007 277.672 210.645 277.934 210.374C278.195 210.103 278.552 209.945 278.928 209.932V209.932ZM273.818 215.738C274.195 215.751 274.552 215.909 274.814 216.18C275.076 216.451 275.223 216.813 275.223 217.19C275.223 217.567 275.076 217.929 274.814 218.2C274.552 218.471 274.195 218.629 273.818 218.642C273.442 218.629 273.085 218.47 272.824 218.199C272.562 217.929 272.416 217.567 272.416 217.19C272.416 216.813 272.562 216.452 272.824 216.181C273.085 215.91 273.442 215.751 273.818 215.738V215.738ZM244.321 242.1C243.945 242.087 243.589 241.928 243.327 241.657C243.066 241.387 242.92 241.025 242.92 240.649C242.92 240.273 243.066 239.911 243.327 239.64C243.589 239.369 243.945 239.211 244.321 239.197C244.697 239.21 245.054 239.369 245.315 239.64C245.577 239.91 245.723 240.272 245.723 240.649C245.723 241.025 245.577 241.387 245.315 241.658C245.054 241.929 244.697 242.088 244.321 242.101V242.1ZM250.592 239.313C250.216 239.3 249.86 239.141 249.598 238.87C249.337 238.599 249.191 238.238 249.191 237.861C249.191 237.485 249.337 237.124 249.598 236.853C249.86 236.582 250.216 236.423 250.592 236.41C250.968 236.423 251.325 236.581 251.587 236.852C251.848 237.123 251.995 237.485 251.995 237.862C251.995 238.238 251.848 238.6 251.587 238.871C251.325 239.142 250.968 239.3 250.592 239.313V239.313ZM256.863 235.597C256.487 235.584 256.131 235.425 255.869 235.154C255.608 234.883 255.462 234.522 255.462 234.145C255.462 233.769 255.608 233.407 255.869 233.137C256.131 232.866 256.487 232.707 256.863 232.694C257.239 232.707 257.596 232.865 257.858 233.136C258.119 233.407 258.266 233.769 258.266 234.145C258.266 234.522 258.119 234.884 257.858 235.155C257.596 235.426 257.239 235.584 256.863 235.597V235.597ZM262.67 230.487C262.294 230.474 261.937 230.315 261.676 230.044C261.415 229.773 261.269 229.412 261.269 229.036C261.269 228.659 261.415 228.298 261.676 228.027C261.937 227.756 262.294 227.597 262.67 227.584C263.046 227.597 263.403 227.755 263.664 228.026C263.926 228.297 264.072 228.659 264.072 229.036C264.072 229.412 263.926 229.774 263.664 230.045C263.403 230.316 263.046 230.474 262.67 230.487V230.487ZM268.476 221.313C268.853 221.325 269.21 221.483 269.472 221.754C269.734 222.025 269.881 222.387 269.881 222.764C269.881 223.141 269.734 223.503 269.472 223.774C269.21 224.045 268.853 224.203 268.476 224.216C268.1 224.203 267.743 224.044 267.482 223.774C267.22 223.503 267.074 223.141 267.074 222.764C267.074 222.388 267.22 222.026 267.482 221.755C267.743 221.484 268.1 221.326 268.476 221.313V221.313Z" fill="#020202"/>
<path d="M197.45 284.602C197.715 289.088 197.836 293.583 197.677 298.091C197.646 300.38 197.419 302.662 196.996 304.912C196.928 305.214 196.84 305.511 196.733 305.802L196.516 306.275L196.403 306.51C196.393 306.54 196.381 306.569 196.367 306.598C196.331 306.759 196.329 306.927 196.363 307.089C196.397 307.251 196.465 307.404 196.562 307.538C197.11 308.38 197.835 309.092 198.686 309.626C200.453 310.795 202.46 311.551 204.56 311.837C206.659 312.123 208.796 311.932 210.811 311.278C211.309 311.109 211.798 310.912 212.276 310.691C212.792 310.446 213.321 310.208 213.854 309.987C214.926 309.547 216.03 309.189 217.157 308.917C219.411 308.401 221.73 308.229 224.036 308.406C226.32 308.522 228.581 308.929 230.762 309.619C231.85 309.962 232.911 310.388 233.934 310.895C234.934 311.369 235.967 311.772 237.024 312.1C239.154 312.771 241.323 313.312 243.518 313.718C245.713 314.139 247.921 314.501 250.143 314.742C254.564 315.273 259.027 315.356 263.465 314.991C265.62 314.845 267.738 314.356 269.739 313.543C270.627 313.182 271.388 312.566 271.926 311.773C272.131 311.381 272.254 310.952 272.287 310.512C272.321 310.072 272.265 309.629 272.122 309.212L272.272 309.51C271.842 309.025 271.374 308.576 270.873 308.166C270.359 307.728 269.805 307.326 269.252 306.926C268.118 306.146 266.934 305.441 265.708 304.815C263.228 303.566 260.651 302.522 258.001 301.693C255.333 300.866 252.622 300.187 249.879 299.658C248.511 299.359 247.13 299.188 245.756 298.945C244.301 298.762 242.863 298.463 241.456 298.052C238.64 297.238 235.965 296 233.522 294.381C231.07 292.772 228.989 290.659 227.417 288.183C225.846 285.707 224.819 282.925 224.407 280.021C224.001 277.181 224.024 274.297 224.474 271.464C224.478 271.439 224.491 271.417 224.511 271.402C224.53 271.386 224.555 271.379 224.58 271.382C224.605 271.385 224.628 271.397 224.644 271.416C224.66 271.435 224.668 271.459 224.667 271.484C224.464 274.292 224.654 277.114 225.233 279.869C225.786 282.584 226.889 285.158 228.473 287.433C230.066 289.667 232.084 291.565 234.412 293.019C236.752 294.462 239.297 295.542 241.961 296.221C243.287 296.567 244.635 296.82 245.995 296.978C247.416 297.205 248.855 297.364 250.261 297.65C251.671 297.921 253.084 298.18 254.473 298.56C255.874 298.884 257.251 299.31 258.63 299.731C261.386 300.616 264.059 301.746 266.614 303.107C269.268 304.446 271.662 306.246 273.685 308.423C273.75 308.497 273.797 308.584 273.824 308.678L273.836 308.722C274.037 309.373 274.101 310.059 274.024 310.736C273.946 311.414 273.729 312.068 273.386 312.657C272.648 313.722 271.606 314.54 270.396 315.004C268.215 315.838 265.907 316.294 263.572 316.35C259.046 316.5 254.517 316.217 250.045 315.503C245.579 314.894 241.165 313.952 236.839 312.684C235.752 312.352 234.685 311.958 233.642 311.505C232.64 311.045 231.602 310.666 230.538 310.373C228.403 309.817 226.206 309.537 224 309.538C221.817 309.477 219.638 309.747 217.535 310.336C216.496 310.65 215.479 311.03 214.488 311.474C213.99 311.696 213.502 311.932 213.011 312.181C212.479 312.446 211.932 312.683 211.374 312.89C209.116 313.686 206.695 313.907 204.331 313.534C201.98 313.169 199.742 312.277 197.784 310.925C196.743 310.238 195.87 309.327 195.228 308.258C195.054 307.941 194.933 307.596 194.869 307.24C194.786 306.816 194.838 306.377 195.016 305.985L195.168 305.696L195.233 305.55L195.37 305.26C195.46 305.026 195.534 304.787 195.594 304.543C196.091 302.4 196.409 300.219 196.545 298.023C196.887 293.572 197.093 289.089 197.256 284.605C197.257 284.592 197.26 284.58 197.265 284.568C197.27 284.557 197.277 284.546 197.286 284.537C197.296 284.528 197.307 284.522 197.318 284.517C197.33 284.512 197.343 284.51 197.356 284.511C197.38 284.512 197.403 284.521 197.42 284.538C197.437 284.555 197.448 284.577 197.45 284.602Z" fill="#020202"/>
<path d="M254.164 239.768C255.101 241.492 255.944 243.261 256.745 245.052C257.546 246.843 258.304 248.658 258.957 250.515C259.626 252.375 260.195 254.269 260.661 256.19C261.174 258.143 261.417 260.157 261.384 262.177C261.369 262.7 261.314 263.221 261.218 263.736C261.174 264.001 261.114 264.263 261.038 264.52L260.917 264.911C260.9 264.968 260.868 265.059 260.864 265.089C260.86 265.116 260.854 265.143 260.846 265.169C260.727 265.63 261.197 266.479 261.779 267.09C263.062 268.39 264.636 269.367 266.37 269.94C268.108 270.549 269.949 270.806 271.787 270.695C273.635 270.564 275.437 270.056 277.081 269.201C278.907 268.333 280.84 267.711 282.829 267.351C284.812 267.043 286.824 266.97 288.824 267.134C290.812 267.26 292.779 267.608 294.69 268.171C295.643 268.454 296.578 268.796 297.489 269.195C298.358 269.629 299.249 270.015 300.158 270.352C303.854 271.57 307.668 272.394 311.536 272.809C315.391 273.302 319.285 273.417 323.162 273.151C325.074 273.02 326.97 272.709 328.825 272.223C329.722 271.975 330.593 271.64 331.426 271.223C332.225 270.852 332.939 270.321 333.525 269.663C334.082 269.057 334.412 268.277 334.461 267.456C334.538 266.617 334.399 265.772 334.058 265.002C333.684 264.199 333.18 263.463 332.566 262.825C331.942 262.123 331.272 261.463 330.561 260.849C327.652 258.389 324.345 256.444 320.782 255.096C319.001 254.397 317.181 253.8 315.332 253.307C313.476 252.807 311.512 252.305 309.646 251.671C305.876 250.424 302.23 248.829 298.755 246.906C295.311 244.952 292.04 242.706 288.979 240.194C285.899 237.713 283.081 234.925 280.569 231.871C278.033 228.837 276.055 225.378 274.726 221.654C274.717 221.63 274.719 221.604 274.73 221.581C274.741 221.557 274.761 221.54 274.786 221.531C274.809 221.524 274.834 221.525 274.856 221.535C274.879 221.545 274.897 221.563 274.906 221.586C276.507 225.127 278.67 228.386 281.313 231.236C283.929 234.09 286.809 236.691 289.914 239.004C296.024 243.742 302.921 247.366 310.288 249.709C312.131 250.315 313.952 250.8 315.87 251.315C317.801 251.824 319.695 252.463 321.539 253.227C325.281 254.716 328.742 256.834 331.771 259.488C332.528 260.165 333.24 260.891 333.902 261.662C334.631 262.45 335.217 263.359 335.635 264.348C336.058 265.386 336.208 266.516 336.073 267.629C336.008 268.198 335.859 268.754 335.632 269.28C335.38 269.788 335.058 270.259 334.676 270.679C333.94 271.467 333.05 272.095 332.061 272.526C331.126 272.947 330.152 273.274 329.153 273.503C327.202 273.924 325.216 274.161 323.221 274.209C319.284 274.296 315.346 274.053 311.449 273.484C307.549 272.977 303.701 272.127 299.95 270.944C299.024 270.629 298.073 270.223 297.212 269.84C296.323 269.476 295.41 269.175 294.479 268.938C292.611 268.484 290.698 268.24 288.776 268.21C286.869 268.146 284.962 268.303 283.091 268.679C281.247 269.109 279.465 269.771 277.787 270.649C275.973 271.659 273.96 272.262 271.889 272.416C269.818 272.569 267.739 272.27 265.795 271.538C263.814 270.842 262.029 269.68 260.59 268.15C260.215 267.733 259.897 267.268 259.644 266.768C259.329 266.179 259.223 265.502 259.342 264.845L259.418 264.571L259.473 264.399L259.574 264.091C259.641 263.881 259.694 263.667 259.734 263.45C259.824 263.006 259.881 262.555 259.901 262.101C259.878 258.267 259.233 254.462 257.993 250.834C256.844 247.109 255.508 243.444 253.99 239.853C253.98 239.83 253.979 239.803 253.989 239.779C253.998 239.755 254.016 239.736 254.04 239.726C254.062 239.716 254.087 239.716 254.11 239.723C254.133 239.731 254.152 239.747 254.164 239.768Z" fill="#020202"/>
<path d="M97.6962 70.6309C98.0725 70.6179 98.4291 70.4593 98.6907 70.1885C98.9523 69.9176 99.0985 69.5558 99.0985 69.1793C99.0985 68.8028 98.9523 68.4409 98.6907 68.1701C98.4291 67.8993 98.0725 67.7407 97.6962 67.7276C97.3199 67.7407 96.9634 67.8993 96.7018 68.1701C96.4402 68.4409 96.2939 68.8028 96.2939 69.1793C96.2939 69.5558 96.4402 69.9176 96.7018 70.1885C96.9634 70.4593 97.3199 70.6179 97.6962 70.6309Z" fill="#020202"/>
<path d="M74.6709 72.4336C75.0473 72.4206 75.4039 72.262 75.6655 71.9912C75.9271 71.7204 76.0733 71.3585 76.0733 70.982C76.0733 70.6054 75.9271 70.2436 75.6655 69.9728C75.4039 69.702 75.0473 69.5433 74.6709 69.5303C74.2946 69.5433 73.9381 69.702 73.6764 69.9728C73.4148 70.2436 73.2686 70.6054 73.2686 70.982C73.2686 71.3585 73.4148 71.7204 73.6764 71.9912C73.9381 72.262 74.2946 72.4206 74.6709 72.4336Z" fill="#020202"/>
<path d="M93.5612 81.0441C94.235 81.8718 94.792 82.6167 95.4489 83.2741C95.7683 83.6099 96.1127 83.921 96.4792 84.2047C96.8444 84.5113 97.256 84.7505 97.6961 85.078C97.1565 85.1502 96.6074 85.0755 96.1067 84.8617C95.5977 84.656 95.1378 84.3453 94.757 83.9499C94.3806 83.5603 94.0778 83.1059 93.8631 82.6086C93.6399 82.1184 93.5365 81.5821 93.5612 81.0441Z" fill="#020202"/>
<path d="M100.35 64.6707C99.8426 64.7921 99.3092 64.7453 98.8305 64.5372C98.3518 64.329 97.9537 63.9709 97.6963 63.5168C98.203 63.3843 98.74 63.4314 99.2159 63.6501C99.6995 63.8508 100.1 64.211 100.35 64.6707Z" fill="#020202"/>
<path d="M73.178 73.8959C73.6725 73.9599 74.1704 73.9945 74.6691 73.9997C75.1254 74.0072 75.5616 73.9363 76.1636 73.8959C76.0186 74.1562 75.8004 74.3683 75.5361 74.5059C75.2701 74.6497 74.9724 74.7251 74.6699 74.7251C74.3694 74.7353 74.0717 74.6635 73.8089 74.5174C73.5461 74.3714 73.328 74.1565 73.178 73.8959Z" fill="#020202"/>
<path d="M94.5126 164.062C94.8889 164.049 95.2455 163.891 95.5071 163.62C95.7687 163.349 95.9149 162.987 95.9149 162.611C95.9149 162.234 95.7687 161.872 95.5071 161.601C95.2455 161.331 94.8889 161.172 94.5126 161.159C94.1363 161.172 93.7798 161.331 93.5182 161.601C93.2566 161.872 93.1104 162.234 93.1104 162.611C93.1104 162.987 93.2566 163.349 93.5182 163.62C93.7798 163.891 94.1363 164.049 94.5126 164.062Z" fill="#020202"/>
<path d="M99.3901 159.881C99.7664 159.868 100.123 159.71 100.385 159.439C100.646 159.168 100.792 158.806 100.792 158.43C100.792 158.053 100.646 157.691 100.385 157.421C100.123 157.15 99.7664 156.991 99.3901 156.978C99.0138 156.991 98.6572 157.15 98.3956 157.421C98.134 157.691 97.9878 158.053 97.9878 158.43C97.9878 158.806 98.134 159.168 98.3956 159.439C98.6572 159.71 99.0138 159.868 99.3901 159.881Z" fill="#020202"/>
<path d="M104.5 154.772C104.876 154.759 105.233 154.6 105.495 154.329C105.756 154.058 105.902 153.697 105.902 153.32C105.902 152.943 105.756 152.582 105.495 152.311C105.233 152.04 104.876 151.881 104.5 151.868C104.124 151.881 103.767 152.04 103.506 152.311C103.244 152.582 103.098 152.943 103.098 153.32C103.098 153.697 103.244 154.058 103.506 154.329C103.767 154.6 104.124 154.759 104.5 154.772Z" fill="#020202"/>
<path d="M108.913 148.965C109.289 148.952 109.646 148.793 109.908 148.523C110.169 148.252 110.316 147.89 110.316 147.513C110.316 147.137 110.169 146.775 109.908 146.504C109.646 146.233 109.289 146.075 108.913 146.062C108.537 146.075 108.18 146.233 107.919 146.504C107.657 146.775 107.511 147.137 107.511 147.513C107.511 147.89 107.657 148.252 107.919 148.523C108.18 148.793 108.537 148.952 108.913 148.965Z" fill="#020202"/>
<path d="M112.629 143.158C113.006 143.145 113.362 142.987 113.624 142.716C113.885 142.445 114.032 142.083 114.032 141.707C114.032 141.33 113.885 140.968 113.624 140.697C113.362 140.427 113.006 140.268 112.629 140.255C112.253 140.268 111.896 140.427 111.635 140.697C111.373 140.968 111.227 141.33 111.227 141.707C111.227 142.083 111.373 142.445 111.635 142.716C111.896 142.987 112.253 143.145 112.629 143.158Z" fill="#020202"/>
<path d="M163.51 46.6766L137.888 46.6766L137.888 62.5376L147.207 62.5376L150.699 66.0296L154.19 62.5376L163.51 62.5376L163.51 46.6766Z" stroke="black" stroke-width="0.96777" stroke-miterlimit="10"/>
<path d="M189.132 22.3056L163.51 22.3056L163.51 38.1666L172.829 38.1666L176.321 41.6586L179.812 38.1666L189.132 38.1666L189.132 22.3056Z" stroke="black" stroke-width="0.96777" stroke-miterlimit="10"/>
<path d="M160.507 1.09563L134.885 1.09563L134.885 16.9566L144.205 16.9566L147.697 20.4476L151.188 16.9566L160.507 16.9566L160.507 1.09563Z" stroke="black" stroke-width="0.96777" stroke-miterlimit="10"/>
</svg>
