<svg width="161" height="161" viewBox="0 0 161 161" fill="none" xmlns="http://www.w3.org/2000/svg">
<path d="M50 2.5H111C137.234 2.5 158.5 23.7665 158.5 50V111C158.5 137.234 137.234 158.5 111 158.5H50C23.7665 158.5 2.5 137.234 2.5 111V50C2.5 23.7665 23.7665 2.5 50 2.5Z" fill="#F6F6F6" stroke="#F89300" stroke-width="5"/>
<path d="M125.124 70.1907C117.646 67.5374 111.784 65.3428 107.82 63.8323C104.212 62.4562 102.211 61.6495 99.3282 61.5487C92.3054 61.3035 87.3468 64.9948 85.8936 66.1653C84.5314 67.6936 83.1711 69.2219 81.8089 70.7502C81.5519 70.2935 81.2513 69.8289 80.8974 69.3623C79.4996 67.5236 77.9001 66.4955 76.9432 65.9755C69.3273 59.9986 61.7114 54.0198 54.0956 48.043C53.2632 47.4063 52.2964 46.5562 51.3375 45.445C50.1255 44.0432 49.3089 42.6751 48.7652 41.5817C45.6592 41.817 40.748 42.5723 35.3228 45.1445C30.2317 47.5586 26.6926 50.6231 24.5593 52.7821C25.1782 54.9589 25.797 57.1377 26.4158 59.3145C27.8888 67.1005 29.3637 74.8844 30.8367 82.6703C32.1693 85.7309 33.5019 88.7915 34.8344 91.8501C35.3327 92.4669 35.8329 93.0838 36.3311 93.7026C43.8086 96.3559 49.6708 98.5505 53.6349 100.061C57.2431 101.437 59.244 102.244 62.1266 102.345C69.1494 102.59 74.108 98.8985 75.5612 97.7281C76.9234 96.1997 78.2837 94.6714 79.6459 93.1431C79.9029 93.5998 80.2035 94.0645 80.5574 94.5311C81.9552 96.3698 83.5547 97.3979 84.5116 97.9179C92.1275 103.895 99.7434 109.874 107.359 115.85C108.192 116.487 109.158 117.337 110.117 118.448C111.329 119.85 112.146 121.218 112.69 122.312C115.796 122.076 120.707 121.321 126.132 118.749C131.223 116.335 134.762 113.27 136.895 111.111C136.277 108.934 135.658 106.756 135.039 104.579C133.566 96.7929 132.091 89.0089 130.618 81.223C129.286 78.1625 127.953 75.1019 126.62 72.0433C126.122 71.4264 125.622 70.8076 125.124 70.1907ZM72.4136 87.7732C71.8897 88.3802 68.6373 92.026 63.3109 92.1328C59.3409 92.2119 56.5531 90.2802 55.6753 89.6159C55.268 89.268 51.2386 85.7052 51.7962 80.968C52.3695 76.1003 57.5654 71.8357 64.1216 72.1698C65.207 72.2568 69.0861 72.6997 72.2179 75.9006C74.3195 78.0498 75.0946 80.4302 75.3912 81.6106C75.407 81.7292 75.4366 81.917 75.492 82.1464C75.5019 82.2729 75.5177 82.4054 75.5414 82.5438C76.1266 83.9831 76.7099 85.4225 77.2951 86.8618C76.3797 86.585 75.3971 86.5158 74.5113 86.7096C73.5228 86.927 72.809 87.4391 72.4136 87.7732ZM109.655 82.9273C109.081 87.795 103.885 92.0596 97.3293 91.7255C96.2439 91.6385 92.3648 91.1956 89.233 87.9947C87.1313 85.8456 86.3563 83.4651 86.0597 82.2848C86.0439 82.1661 86.0142 81.9783 85.9589 81.749C85.949 81.6224 85.9332 81.49 85.9094 81.3516C85.3242 79.9122 84.741 78.4729 84.1557 77.0335C85.0711 77.3103 86.0538 77.3795 86.9395 77.1858C87.9301 76.9683 88.6418 76.4582 89.0392 76.1221C89.5632 75.5151 92.8155 71.8693 98.1419 71.7625C102.112 71.6834 104.9 73.6151 105.778 74.2794C106.185 74.6274 110.214 78.1882 109.655 82.9273Z" fill="#F89300" stroke="#533923" stroke-width="2" stroke-miterlimit="10"/>
<path d="M116.911 60.0321C113.909 56.3191 110.908 52.608 107.907 48.895C103.419 43.3433 98.9287 37.7895 94.4406 32.2378C94.3635 32.0914 93.8376 31.1306 92.6849 30.8656C91.815 30.6659 91.1171 30.9862 90.9115 31.089C90.3895 31.5596 88.7524 33.1571 88.3293 35.8045C88.0011 37.8548 88.5666 39.4819 88.8592 40.1799C95.1801 48.0626 101.501 55.9474 107.822 63.8302C113.589 65.9497 119.356 68.0691 125.126 70.1886C122.385 66.8038 119.647 63.417 116.911 60.0321Z" fill="#FFBE82" stroke="#533923" stroke-width="2" stroke-miterlimit="10"/>
<path d="M108.109 30.3733C105.831 29.4065 103.273 29.9404 101.798 31.6249C100.149 33.5091 100.621 35.9548 100.683 36.2474C103.091 40.4626 105.499 44.6778 107.909 48.895C110.91 52.6081 113.911 56.3191 116.913 60.0322C113.977 50.1446 111.043 40.259 108.109 30.3733Z" fill="#FFBE82" stroke="#533923" stroke-width="2" stroke-miterlimit="10"/>
<path d="M120.209 42.3369C118.993 41.4077 117.377 41.2772 116.142 41.9988C114.688 42.845 114.451 44.4623 114.426 44.666C115.254 49.7887 116.08 54.9114 116.909 60.0322C119.647 63.419 122.383 66.8058 125.122 70.1906C123.485 60.9061 121.848 51.6215 120.209 42.3369Z" fill="#FFBE82" stroke="#533923" stroke-width="2" stroke-miterlimit="10"/>
<path d="M44.5442 103.863C47.5454 107.576 50.5467 111.287 53.548 115C58.0361 120.552 62.5261 126.106 67.0142 131.657C67.0913 131.804 67.6172 132.765 68.7699 133.03C69.6398 133.229 70.3377 132.909 70.5433 132.806C71.0653 132.336 72.7024 130.738 73.1255 128.091C73.4537 126.04 72.8882 124.413 72.5956 123.715C66.2747 115.833 59.9539 107.948 53.633 100.065C47.8657 97.9455 42.0985 95.826 36.3292 93.7065C39.0695 97.0894 41.8059 100.476 44.5442 103.863Z" fill="#FFBE82" stroke="#533923" stroke-width="2" stroke-miterlimit="10"/>
<path d="M53.3464 133.522C55.624 134.489 58.1824 133.955 59.6573 132.27C61.3063 130.386 60.8337 127.94 60.7724 127.648C58.3643 123.433 55.9562 119.217 53.5461 115C50.5448 111.287 47.5435 107.576 44.5422 103.863C47.4783 113.749 50.4123 123.636 53.3464 133.522Z" fill="#FFBE82" stroke="#533923" stroke-width="2" stroke-miterlimit="10"/>
<path d="M41.2442 121.558C42.4601 122.487 44.0754 122.618 45.3111 121.896C46.7643 121.05 47.0016 119.433 47.0273 119.229C46.1989 114.106 45.3724 108.984 44.544 103.863C41.8057 100.476 39.0694 97.0893 36.3311 93.7045C37.9681 102.989 39.6071 112.274 41.2442 121.558Z" fill="#FFBE82" stroke="#533923" stroke-width="2" stroke-miterlimit="10"/>
</svg>
